solid OpenSCAD_Model
  facet normal -1 0 0
    outer loop
      vertex -6 -2.5 -6
      vertex -6 -2.5 6
      vertex -6 1.5 -6
    endloop
  endfacet
  facet normal -1 0 0
    outer loop
      vertex -6 1.5 -6
      vertex -6 -2.5 6
      vertex -6 1.5 6
    endloop
  endfacet
  facet normal 0 -1 0
    outer loop
      vertex -6 -2.5 6
      vertex -6 -2.5 -6
      vertex 35 -2.5 -6
    endloop
  endfacet
  facet normal 0 -1 0
    outer loop
      vertex 20 -2.5 0
      vertex -6 -2.5 6
      vertex 35 -2.5 -6
    endloop
  endfacet
  facet normal 0 -1 0
    outer loop
      vertex 35 -2.5 0
      vertex 20 -2.5 0
      vertex 35 -2.5 -6
    endloop
  endfacet
  facet normal 0 -1 0
    outer loop
      vertex 20 -2.5 0
      vertex 20 -2.5 6
      vertex -6 -2.5 6
    endloop
  endfacet
  facet normal 0 0 -1
    outer loop
      vertex -6 -2.5 -6
      vertex -6 1.5 -6
      vertex 35 -2.5 -6
    endloop
  endfacet
  facet normal 0 0 -1
    outer loop
      vertex 35 -2.5 -6
      vertex -6 1.5 -6
      vertex 11.5 1.5 -6
    endloop
  endfacet
  facet normal 0 0 -1
    outer loop
      vertex 35 -2.5 -6
      vertex 11.5 1.5 -6
      vertex 11.5 1.64842 -6
    endloop
  endfacet
  facet normal 0 0 -1
    outer loop
      vertex 35 -2.5 -6
      vertex 11.5 1.64842 -6
      vertex 12.4821 1.52917 -6
    endloop
  endfacet
  facet normal 0 0 -1
    outer loop
      vertex 35 -2.5 -6
      vertex 12.4821 1.52917 -6
      vertex 14.2723 2.20806 -6
    endloop
  endfacet
  facet normal 0 0 -1
    outer loop
      vertex 27 0 -6
      vertex 35 -2.5 -6
      vertex 26.6545 -0.475528 -6
    endloop
  endfacet
  facet normal 0 0 -1
    outer loop
      vertex 32.75 3.25 -6
      vertex 35 -2.5 -6
      vertex 20.25 3.25 -6
    endloop
  endfacet
  facet normal 0 0 -1
    outer loop
      vertex 32.75 3.25 -6
      vertex 35 32.5 -6
      vertex 35 -2.5 -6
    endloop
  endfacet
  facet normal 0 0 -1
    outer loop
      vertex 12.4821 28.4708 -6
      vertex 11.5 28.3516 -6
      vertex 11.5 28.5 -6
    endloop
  endfacet
  facet normal 0 0 -1
    outer loop
      vertex 11.5 28.5 -6
      vertex -6 28.5 -6
      vertex -6 32.5 -6
    endloop
  endfacet
  facet normal 0 0 -1
    outer loop
      vertex 11.5 28.5 -6
      vertex -6 32.5 -6
      vertex 12.4821 28.4708 -6
    endloop
  endfacet
  facet normal 0 0 -1
    outer loop
      vertex 12.4821 28.4708 -6
      vertex -6 32.5 -6
      vertex 35 32.5 -6
    endloop
  endfacet
  facet normal 0 0 -1
    outer loop
      vertex 12.4821 28.4708 -6
      vertex 35 32.5 -6
      vertex 14.2723 27.7919 -6
    endloop
  endfacet
  facet normal 0 0 -1
    outer loop
      vertex 26.6545 29.5245 -6
      vertex 35 32.5 -6
      vertex 20.25 26.75 -6
    endloop
  endfacet
  facet normal 0 0 -1
    outer loop
      vertex 15.5418 3.64111 -6
      vertex 16 5.5 -6
      vertex 20.25 3.25 -6
    endloop
  endfacet
  facet normal 0 0 -1
    outer loop
      vertex 26.6545 0.475528 -6
      vertex 20.25 3.25 -6
      vertex 35 -2.5 -6
    endloop
  endfacet
  facet normal 0 0 -1
    outer loop
      vertex 32.75 26.75 -6
      vertex 35 32.5 -6
      vertex 32.75 3.25 -6
    endloop
  endfacet
  facet normal 0 0 -1
    outer loop
      vertex 26.0955 0.293893 -6
      vertex 15.5418 3.64111 -6
      vertex 26.6545 0.475528 -6
    endloop
  endfacet
  facet normal 0 0 -1
    outer loop
      vertex 20.25 26.75 -6
      vertex 35 32.5 -6
      vertex 32.75 26.75 -6
    endloop
  endfacet
  facet normal 0 0 -1
    outer loop
      vertex 14.2723 2.20806 -6
      vertex 15.5418 3.64111 -6
      vertex 26.0955 0.293893 -6
    endloop
  endfacet
  facet normal 0 0 -1
    outer loop
      vertex 14.2723 2.20806 -6
      vertex 26.0955 0.293893 -6
      vertex 26.0955 -0.293893 -6
    endloop
  endfacet
  facet normal 0 0 -1
    outer loop
      vertex 14.2723 2.20806 -6
      vertex 26.0955 -0.293893 -6
      vertex 26.6545 -0.475528 -6
    endloop
  endfacet
  facet normal 0 0 -1
    outer loop
      vertex 14.2723 2.20806 -6
      vertex 26.6545 -0.475528 -6
      vertex 35 -2.5 -6
    endloop
  endfacet
  facet normal 0 0 -1
    outer loop
      vertex 26.6545 0.475528 -6
      vertex 35 -2.5 -6
      vertex 27 0 -6
    endloop
  endfacet
  facet normal 0 0 -1
    outer loop
      vertex 15.5418 3.64111 -6
      vertex 20.25 3.25 -6
      vertex 26.6545 0.475528 -6
    endloop
  endfacet
  facet normal 0 0 -1
    outer loop
      vertex 14.2723 27.7919 -6
      vertex 26.0955 30.2939 -6
      vertex 15.5418 26.3589 -6
    endloop
  endfacet
  facet normal 0 0 -1
    outer loop
      vertex 26.6545 30.4755 -6
      vertex 35 32.5 -6
      vertex 27 30 -6
    endloop
  endfacet
  facet normal 0 0 -1
    outer loop
      vertex 26.0955 30.2939 -6
      vertex 26.0955 29.7061 -6
      vertex 15.5418 26.3589 -6
    endloop
  endfacet
  facet normal 0 0 -1
    outer loop
      vertex 27 30 -6
      vertex 35 32.5 -6
      vertex 26.6545 29.5245 -6
    endloop
  endfacet
  facet normal 0 0 -1
    outer loop
      vertex 15.5418 26.3589 -6
      vertex 26.6545 29.5245 -6
      vertex 20.25 26.75 -6
    endloop
  endfacet
  facet normal 0 0 -1
    outer loop
      vertex 14.2723 27.7919 -6
      vertex 35 32.5 -6
      vertex 26.6545 30.4755 -6
    endloop
  endfacet
  facet normal 0 0 -1
    outer loop
      vertex 14.2723 27.7919 -6
      vertex 26.6545 30.4755 -6
      vertex 26.0955 30.2939 -6
    endloop
  endfacet
  facet normal 0 0 -1
    outer loop
      vertex 20.25 3.25 -6
      vertex 16 5.5 -6
      vertex 16 24.5 -6
    endloop
  endfacet
  facet normal 0 0 -1
    outer loop
      vertex 16 24.5 -6
      vertex 15.5418 26.3589 -6
      vertex 20.25 26.75 -6
    endloop
  endfacet
  facet normal 0 0 -1
    outer loop
      vertex 20.25 3.25 -6
      vertex 16 24.5 -6
      vertex 20.25 26.75 -6
    endloop
  endfacet
  facet normal 0 0 -1
    outer loop
      vertex 26.6545 29.5245 -6
      vertex 15.5418 26.3589 -6
      vertex 26.0955 29.7061 -6
    endloop
  endfacet
  facet normal 0 1 0
    outer loop
      vertex 11.5 1.5 6
      vertex 11.5 1.5 -6
      vertex -6 1.5 6
    endloop
  endfacet
  facet normal 0 1 0
    outer loop
      vertex -6 1.5 6
      vertex 11.5 1.5 -6
      vertex -6 1.5 -6
    endloop
  endfacet
  facet normal 0 0 1
    outer loop
      vertex -6 1.5 6
      vertex -6 -2.5 6
      vertex 20 -2.5 6
    endloop
  endfacet
  facet normal 0 0 1
    outer loop
      vertex 16 24.5 6
      vertex 16 5.5 6
      vertex 20 -2.5 6
    endloop
  endfacet
  facet normal 0 0 1
    outer loop
      vertex 11.5 1.5 6
      vertex -6 1.5 6
      vertex 20 -2.5 6
    endloop
  endfacet
  facet normal 0 0 1
    outer loop
      vertex -6 32.5 6
      vertex -6 28.5 6
      vertex 20 32.5 6
    endloop
  endfacet
  facet normal 0 0 1
    outer loop
      vertex -6 28.5 6
      vertex 11.5 28.5 6
      vertex 20 32.5 6
    endloop
  endfacet
  facet normal 0 0 1
    outer loop
      vertex 11.5 28.5 6
      vertex 11.5 28.3516 6
      vertex 20 32.5 6
    endloop
  endfacet
  facet normal 0 0 1
    outer loop
      vertex 11.5 28.3516 6
      vertex 12.4821 28.4708 6
      vertex 20 32.5 6
    endloop
  endfacet
  facet normal 0 0 1
    outer loop
      vertex 12.4821 28.4708 6
      vertex 14.2723 27.7919 6
      vertex 20 32.5 6
    endloop
  endfacet
  facet normal 0 0 1
    outer loop
      vertex 11.5 1.64842 6
      vertex 11.5 1.5 6
      vertex 12.4821 1.52917 6
    endloop
  endfacet
  facet normal 0 0 1
    outer loop
      vertex 20 32.5 6
      vertex 16 24.5 6
      vertex 20 -2.5 6
    endloop
  endfacet
  facet normal 0 0 1
    outer loop
      vertex 20 32.5 6
      vertex 15.5418 26.3589 6
      vertex 16 24.5 6
    endloop
  endfacet
  facet normal 0 0 1
    outer loop
      vertex 16 5.5 6
      vertex 15.5418 3.64111 6
      vertex 20 -2.5 6
    endloop
  endfacet
  facet normal 0 0 1
    outer loop
      vertex 15.5418 3.64111 6
      vertex 14.2723 2.20806 6
      vertex 20 -2.5 6
    endloop
  endfacet
  facet normal 0 0 1
    outer loop
      vertex 14.2723 2.20806 6
      vertex 12.4821 1.52917 6
      vertex 20 -2.5 6
    endloop
  endfacet
  facet normal 0 0 1
    outer loop
      vertex 12.4821 1.52917 6
      vertex 11.5 1.5 6
      vertex 20 -2.5 6
    endloop
  endfacet
  facet normal 0 0 1
    outer loop
      vertex 14.2723 27.7919 6
      vertex 15.5418 26.3589 6
      vertex 20 32.5 6
    endloop
  endfacet
  facet normal 1 0 0
    outer loop
      vertex 20 -2.5 6
      vertex 20 -2.5 0
      vertex 20 32.5 0
    endloop
  endfacet
  facet normal 1 0 0
    outer loop
      vertex 20 32.5 6
      vertex 20 -2.5 6
      vertex 20 32.5 0
    endloop
  endfacet
  facet normal 0 0 1
    outer loop
      vertex 26.6545 -0.475528 0
      vertex 20 -2.5 0
      vertex 35 -2.5 0
    endloop
  endfacet
  facet normal 0 0 1
    outer loop
      vertex 20.25 26.75 0
      vertex 32.75 26.75 0
      vertex 26.0955 29.7061 0
    endloop
  endfacet
  facet normal 0 0 1
    outer loop
      vertex 20 32.5 0
      vertex 20 -2.5 0
      vertex 20.25 3.25 0
    endloop
  endfacet
  facet normal 0 0 1
    outer loop
      vertex 20.25 26.75 0
      vertex 26.0955 29.7061 0
      vertex 20 32.5 0
    endloop
  endfacet
  facet normal 0 0 1
    outer loop
      vertex 20 32.5 0
      vertex 20.25 3.25 0
      vertex 20.25 26.75 0
    endloop
  endfacet
  facet normal 0 0 1
    outer loop
      vertex 35 32.5 0
      vertex 32.75 26.75 0
      vertex 35 -2.5 0
    endloop
  endfacet
  facet normal 0 0 1
    outer loop
      vertex 26.0955 29.7061 0
      vertex 26.0955 30.2939 0
      vertex 20 32.5 0
    endloop
  endfacet
  facet normal 0 0 1
    outer loop
      vertex 32.75 26.75 0
      vertex 32.75 3.25 0
      vertex 35 -2.5 0
    endloop
  endfacet
  facet normal 0 0 1
    outer loop
      vertex 26.6545 0.475528 0
      vertex 27 0 0
      vertex 35 -2.5 0
    endloop
  endfacet
  facet normal 0 0 1
    outer loop
      vertex 26.6545 29.5245 0
      vertex 26.0955 29.7061 0
      vertex 32.75 26.75 0
    endloop
  endfacet
  facet normal 0 0 1
    outer loop
      vertex 20.25 3.25 0
      vertex 20 -2.5 0
      vertex 26.0955 -0.293893 0
    endloop
  endfacet
  facet normal 0 0 1
    outer loop
      vertex 27 0 0
      vertex 26.6545 -0.475528 0
      vertex 35 -2.5 0
    endloop
  endfacet
  facet normal 0 0 1
    outer loop
      vertex 20.25 3.25 0
      vertex 26.0955 -0.293893 0
      vertex 26.0955 0.293893 0
    endloop
  endfacet
  facet normal 0 0 1
    outer loop
      vertex 20.25 3.25 0
      vertex 26.6545 0.475528 0
      vertex 35 -2.5 0
    endloop
  endfacet
  facet normal 0 0 1
    outer loop
      vertex 20.25 3.25 0
      vertex 26.0955 0.293893 0
      vertex 26.6545 0.475528 0
    endloop
  endfacet
  facet normal 0 0 1
    outer loop
      vertex 26.6545 30.4755 0
      vertex 27 30 0
      vertex 35 32.5 0
    endloop
  endfacet
  facet normal 0 0 1
    outer loop
      vertex 26.0955 -0.293893 0
      vertex 20 -2.5 0
      vertex 26.6545 -0.475528 0
    endloop
  endfacet
  facet normal 0 0 1
    outer loop
      vertex 26.6545 30.4755 0
      vertex 20 32.5 0
      vertex 26.0955 30.2939 0
    endloop
  endfacet
  facet normal 0 0 1
    outer loop
      vertex 27 30 0
      vertex 26.6545 29.5245 0
      vertex 32.75 26.75 0
    endloop
  endfacet
  facet normal 0 0 1
    outer loop
      vertex 35 32.5 0
      vertex 20 32.5 0
      vertex 26.6545 30.4755 0
    endloop
  endfacet
  facet normal 0 0 1
    outer loop
      vertex 35 32.5 0
      vertex 27 30 0
      vertex 32.75 26.75 0
    endloop
  endfacet
  facet normal 0 0 1
    outer loop
      vertex 32.75 3.25 0
      vertex 20.25 3.25 0
      vertex 35 -2.5 0
    endloop
  endfacet
  facet normal 1 0 0
    outer loop
      vertex 35 -2.5 0
      vertex 35 -2.5 -6
      vertex 35 32.5 -6
    endloop
  endfacet
  facet normal 1 0 0
    outer loop
      vertex 35 32.5 0
      vertex 35 -2.5 0
      vertex 35 32.5 -6
    endloop
  endfacet
  facet normal 0 1 0
    outer loop
      vertex 16 32.5 2
      vertex -6 32.5 6
      vertex 20 32.5 6
    endloop
  endfacet
  facet normal 0 1 0
    outer loop
      vertex 2.05566 32.5 3.30728
      vertex 0.957263 32.5 3.88377
      vertex 16 32.5 2
    endloop
  endfacet
  facet normal 0 1 0
    outer loop
      vertex 1.85889 32.5 -3.54182
      vertex 35 32.5 -6
      vertex 9.10383e-16 32.5 -4
    endloop
  endfacet
  facet normal 0 1 0
    outer loop
      vertex -6 32.5 -6
      vertex -6 32.5 6
      vertex -3.74006 32.5 1.41842
    endloop
  endfacet
  facet normal 0 1 0
    outer loop
      vertex -6 32.5 -6
      vertex -3.74006 32.5 1.41842
      vertex -3.97083 32.5 -0.482147
    endloop
  endfacet
  facet normal 0 1 0
    outer loop
      vertex -6 32.5 -6
      vertex -3.97083 32.5 -0.482147
      vertex -3.29193 32.5 -2.27226
    endloop
  endfacet
  facet normal 0 1 0
    outer loop
      vertex -6 32.5 -6
      vertex -3.29193 32.5 -2.27226
      vertex -1.85889 32.5 -3.54182
    endloop
  endfacet
  facet normal 0 1 0
    outer loop
      vertex -6 32.5 -6
      vertex -1.85889 32.5 -3.54182
      vertex 9.10383e-16 32.5 -4
    endloop
  endfacet
  facet normal 0 1 0
    outer loop
      vertex -6 32.5 -6
      vertex 9.10383e-16 32.5 -4
      vertex 35 32.5 -6
    endloop
  endfacet
  facet normal 0 1 0
    outer loop
      vertex 16 32.5 -2
      vertex 35 32.5 -6
      vertex 2.13168 32.5 -3.30015
    endloop
  endfacet
  facet normal 0 1 0
    outer loop
      vertex 1.85889 32.5 -3.54182
      vertex 2.13168 32.5 -3.30015
      vertex 35 32.5 -6
    endloop
  endfacet
  facet normal 0 1 0
    outer loop
      vertex 17.95 32.5 0.445
      vertex 35 32.5 -6
      vertex 17.564 32.5 -1.247
    endloop
  endfacet
  facet normal 0 1 0
    outer loop
      vertex -0.957263 32.5 3.88377
      vertex -6 32.5 6
      vertex 0.957263 32.5 3.88377
    endloop
  endfacet
  facet normal 0 1 0
    outer loop
      vertex 16 32.5 -2
      vertex 17.564 32.5 -1.247
      vertex 35 32.5 -6
    endloop
  endfacet
  facet normal 0 1 0
    outer loop
      vertex 16.868 32.5 1.802
      vertex 20 32.5 0
      vertex 17.95 32.5 0.445
    endloop
  endfacet
  facet normal 0 1 0
    outer loop
      vertex 35 32.5 -6
      vertex 17.95 32.5 0.445
      vertex 20 32.5 0
    endloop
  endfacet
  facet normal 0 1 0
    outer loop
      vertex 0.957263 32.5 3.88377
      vertex -6 32.5 6
      vertex 16 32.5 2
    endloop
  endfacet
  facet normal 0 1 0
    outer loop
      vertex 20 32.5 0
      vertex 16.868 32.5 1.802
      vertex 20 32.5 6
    endloop
  endfacet
  facet normal 0 1 0
    outer loop
      vertex 16 32.5 2
      vertex 16.868 32.5 1.802
      vertex 16 32.5 1.802
    endloop
  endfacet
  facet normal 0 1 0
    outer loop
      vertex 16.868 32.5 1.802
      vertex 16 32.5 2
      vertex 20 32.5 6
    endloop
  endfacet
  facet normal 0 1 0
    outer loop
      vertex -2.65249 32.5 2.99404
      vertex -6 32.5 6
      vertex -0.957263 32.5 3.88377
    endloop
  endfacet
  facet normal 0 1 0
    outer loop
      vertex -3.74006 32.5 1.41842
      vertex -6 32.5 6
      vertex -2.65249 32.5 2.99404
    endloop
  endfacet
  facet normal 0 1 0
    outer loop
      vertex 35 32.5 0
      vertex 35 32.5 -6
      vertex 20 32.5 0
    endloop
  endfacet
  facet normal -1 0 0
    outer loop
      vertex -6 28.5 -6
      vertex -6 28.5 6
      vertex -6 32.5 -6
    endloop
  endfacet
  facet normal -1 0 0
    outer loop
      vertex -6 32.5 -6
      vertex -6 28.5 6
      vertex -6 32.5 6
    endloop
  endfacet
  facet normal 0 -1 0
    outer loop
      vertex -0.957263 28.5 3.88377
      vertex 11.5 28.5 6
      vertex -6 28.5 6
    endloop
  endfacet
  facet normal 0 -1 0
    outer loop
      vertex 3.74007 28.5 1.41842
      vertex 3.97084 28.5 -0.482147
      vertex 11.5 28.5 -6
    endloop
  endfacet
  facet normal 0 -1 0
    outer loop
      vertex -6 28.5 -6
      vertex -3.74006 28.5 1.41842
      vertex -6 28.5 6
    endloop
  endfacet
  facet normal 0 -1 0
    outer loop
      vertex -3.74006 28.5 1.41842
      vertex -2.65249 28.5 2.99404
      vertex -6 28.5 6
    endloop
  endfacet
  facet normal 0 -1 0
    outer loop
      vertex 1.79856e-15 28.5 -4
      vertex -1.85889 28.5 -3.54182
      vertex -6 28.5 -6
    endloop
  endfacet
  facet normal 0 -1 0
    outer loop
      vertex 0.957263 28.5 3.88377
      vertex 11.5 28.5 6
      vertex -0.957263 28.5 3.88377
    endloop
  endfacet
  facet normal 0 -1 0
    outer loop
      vertex 2.65249 28.5 2.99404
      vertex 11.5 28.5 6
      vertex 0.957263 28.5 3.88377
    endloop
  endfacet
  facet normal 0 -1 0
    outer loop
      vertex 11.5 28.5 -6
      vertex 11.5 28.5 6
      vertex 2.65249 28.5 2.99404
    endloop
  endfacet
  facet normal 0 -1 0
    outer loop
      vertex 3.97084 28.5 -0.482147
      vertex 3.29194 28.5 -2.27226
      vertex 11.5 28.5 -6
    endloop
  endfacet
  facet normal 0 -1 0
    outer loop
      vertex 11.5 28.5 -6
      vertex 2.65249 28.5 2.99404
      vertex 3.74007 28.5 1.41842
    endloop
  endfacet
  facet normal 0 -1 0
    outer loop
      vertex 1.85889 28.5 -3.54182
      vertex 11.5 28.5 -6
      vertex 3.29194 28.5 -2.27226
    endloop
  endfacet
  facet normal 0 -1 0
    outer loop
      vertex -6 28.5 -6
      vertex 11.5 28.5 -6
      vertex 1.85889 28.5 -3.54182
    endloop
  endfacet
  facet normal 0 -1 0
    outer loop
      vertex -6 28.5 -6
      vertex 1.85889 28.5 -3.54182
      vertex 1.79856e-15 28.5 -4
    endloop
  endfacet
  facet normal 0 -1 0
    outer loop
      vertex -6 28.5 -6
      vertex -1.85889 28.5 -3.54182
      vertex -3.29193 28.5 -2.27226
    endloop
  endfacet
  facet normal 0 -1 0
    outer loop
      vertex -6 28.5 -6
      vertex -3.97083 28.5 -0.482147
      vertex -3.74006 28.5 1.41842
    endloop
  endfacet
  facet normal 0 -1 0
    outer loop
      vertex -6 28.5 -6
      vertex -3.29193 28.5 -2.27226
      vertex -3.97083 28.5 -0.482147
    endloop
  endfacet
  facet normal 0 -1 0
    outer loop
      vertex -2.65249 28.5 2.99404
      vertex -0.957263 28.5 3.88377
      vertex -6 28.5 6
    endloop
  endfacet
  facet normal -1 0 0
    outer loop
      vertex 11.5 28.5 6
      vertex 11.5 28.5 -6
      vertex 11.5 28.3516 6
    endloop
  endfacet
  facet normal -1 0 0
    outer loop
      vertex 11.5 28.3516 6
      vertex 11.5 28.5 -6
      vertex 11.5 28.3516 -6
    endloop
  endfacet
  facet normal 0.120536 -0.992709 0
    outer loop
      vertex 12.4821 28.4708 -6
      vertex 12.4821 28.4708 6
      vertex 11.5 28.3516 6
    endloop
  endfacet
  facet normal 0.120536 -0.992709 0
    outer loop
      vertex 11.5 28.3516 -6
      vertex 12.4821 28.4708 -6
      vertex 11.5 28.3516 6
    endloop
  endfacet
  facet normal -0.354605 -0.935016 0
    outer loop
      vertex 14.2723 27.7919 -6
      vertex 14.2723 27.7919 6
      vertex 12.4821 28.4708 6
    endloop
  endfacet
  facet normal -0.354605 -0.935016 0
    outer loop
      vertex 12.4821 28.4708 -6
      vertex 14.2723 27.7919 -6
      vertex 12.4821 28.4708 6
    endloop
  endfacet
  facet normal -0.748511 -0.663123 0
    outer loop
      vertex 15.5418 26.3589 6
      vertex 14.2723 27.7919 6
      vertex 15.5418 26.3589 -6
    endloop
  endfacet
  facet normal -0.748511 -0.663123 0
    outer loop
      vertex 15.5418 26.3589 -6
      vertex 14.2723 27.7919 6
      vertex 14.2723 27.7919 -6
    endloop
  endfacet
  facet normal -0.970942 -0.239316 0
    outer loop
      vertex 16 24.5 6
      vertex 15.5418 26.3589 6
      vertex 16 24.5 -6
    endloop
  endfacet
  facet normal -0.970942 -0.239316 0
    outer loop
      vertex 16 24.5 -6
      vertex 15.5418 26.3589 6
      vertex 15.5418 26.3589 -6
    endloop
  endfacet
  facet normal -1 0 0
    outer loop
      vertex 16 24.5 6
      vertex 16 24.5 -6
      vertex 16 5.5 6
    endloop
  endfacet
  facet normal -1 0 0
    outer loop
      vertex 16 5.5 6
      vertex 16 24.5 -6
      vertex 16 5.5 -6
    endloop
  endfacet
  facet normal -0.970942 0.239316 0
    outer loop
      vertex 16 5.5 6
      vertex 16 5.5 -6
      vertex 15.5418 3.64111 6
    endloop
  endfacet
  facet normal -0.970942 0.239316 0
    outer loop
      vertex 15.5418 3.64111 6
      vertex 16 5.5 -6
      vertex 15.5418 3.64111 -6
    endloop
  endfacet
  facet normal -0.748511 0.663123 0
    outer loop
      vertex 15.5418 3.64111 6
      vertex 15.5418 3.64111 -6
      vertex 14.2723 2.20806 6
    endloop
  endfacet
  facet normal -0.748511 0.663123 0
    outer loop
      vertex 14.2723 2.20806 6
      vertex 15.5418 3.64111 -6
      vertex 14.2723 2.20806 -6
    endloop
  endfacet
  facet normal -0.354605 0.935016 0
    outer loop
      vertex 14.2723 2.20806 6
      vertex 14.2723 2.20806 -6
      vertex 12.4821 1.52917 6
    endloop
  endfacet
  facet normal -0.354605 0.935016 0
    outer loop
      vertex 12.4821 1.52917 6
      vertex 14.2723 2.20806 -6
      vertex 12.4821 1.52917 -6
    endloop
  endfacet
  facet normal 0.120536 0.992709 0
    outer loop
      vertex 12.4821 1.52917 6
      vertex 12.4821 1.52917 -6
      vertex 11.5 1.64842 6
    endloop
  endfacet
  facet normal 0.120536 0.992709 0
    outer loop
      vertex 11.5 1.64842 6
      vertex 12.4821 1.52917 -6
      vertex 11.5 1.64842 -6
    endloop
  endfacet
  facet normal -1 0 0
    outer loop
      vertex 11.5 1.64842 6
      vertex 11.5 1.64842 -6
      vertex 11.5 1.5 6
    endloop
  endfacet
  facet normal -1 0 0
    outer loop
      vertex 11.5 1.5 6
      vertex 11.5 1.64842 -6
      vertex 11.5 1.5 -6
    endloop
  endfacet
  facet normal 1 0 0
    outer loop
      vertex 20.25 26.75 -6
      vertex 20.25 26.75 0
      vertex 20.25 3.25 0
    endloop
  endfacet
  facet normal 1 0 0
    outer loop
      vertex 20.25 3.25 -6
      vertex 20.25 26.75 -6
      vertex 20.25 3.25 0
    endloop
  endfacet
  facet normal 0 -1 0
    outer loop
      vertex 32.75 26.75 -6
      vertex 32.75 26.75 0
      vertex 20.25 26.75 0
    endloop
  endfacet
  facet normal 0 -1 0
    outer loop
      vertex 20.25 26.75 -6
      vertex 32.75 26.75 -6
      vertex 20.25 26.75 0
    endloop
  endfacet
  facet normal -1 0 0
    outer loop
      vertex 32.75 26.75 0
      vertex 32.75 26.75 -6
      vertex 32.75 3.25 0
    endloop
  endfacet
  facet normal -1 0 0
    outer loop
      vertex 32.75 3.25 0
      vertex 32.75 26.75 -6
      vertex 32.75 3.25 -6
    endloop
  endfacet
  facet normal 0 1 0
    outer loop
      vertex 32.75 3.25 0
      vertex 32.75 3.25 -6
      vertex 20.25 3.25 0
    endloop
  endfacet
  facet normal 0 1 0
    outer loop
      vertex 20.25 3.25 0
      vertex 32.75 3.25 -6
      vertex 20.25 3.25 -6
    endloop
  endfacet
  facet normal 0.309017 -0.951057 0
    outer loop
      vertex 26.6545 0.475528 -6
      vertex 26.6545 0.475528 0
      vertex 26.0955 0.293893 0
    endloop
  endfacet
  facet normal 0.309017 -0.951057 0
    outer loop
      vertex 26.0955 0.293893 -6
      vertex 26.6545 0.475528 -6
      vertex 26.0955 0.293893 0
    endloop
  endfacet
  facet normal 1 0 0
    outer loop
      vertex 26.0955 0.293893 -6
      vertex 26.0955 0.293893 0
      vertex 26.0955 -0.293893 0
    endloop
  endfacet
  facet normal 1 0 0
    outer loop
      vertex 26.0955 -0.293893 -6
      vertex 26.0955 0.293893 -6
      vertex 26.0955 -0.293893 0
    endloop
  endfacet
  facet normal -0.809016 -0.587786 0
    outer loop
      vertex 27 0 0
      vertex 26.6545 0.475528 0
      vertex 27 0 -6
    endloop
  endfacet
  facet normal -0.809016 -0.587786 0
    outer loop
      vertex 27 0 -6
      vertex 26.6545 0.475528 0
      vertex 26.6545 0.475528 -6
    endloop
  endfacet
  facet normal -0.809016 0.587786 0
    outer loop
      vertex 27 0 0
      vertex 27 0 -6
      vertex 26.6545 -0.475528 0
    endloop
  endfacet
  facet normal -0.809016 0.587786 0
    outer loop
      vertex 26.6545 -0.475528 0
      vertex 27 0 -6
      vertex 26.6545 -0.475528 -6
    endloop
  endfacet
  facet normal 0.309017 0.951057 0
    outer loop
      vertex 26.6545 -0.475528 0
      vertex 26.6545 -0.475528 -6
      vertex 26.0955 -0.293893 0
    endloop
  endfacet
  facet normal 0.309017 0.951057 0
    outer loop
      vertex 26.0955 -0.293893 0
      vertex 26.6545 -0.475528 -6
      vertex 26.0955 -0.293893 -6
    endloop
  endfacet
  facet normal 0.309017 -0.951057 0
    outer loop
      vertex 26.6545 30.4755 -6
      vertex 26.6545 30.4755 0
      vertex 26.0955 30.2939 0
    endloop
  endfacet
  facet normal 0.309017 -0.951057 0
    outer loop
      vertex 26.0955 30.2939 -6
      vertex 26.6545 30.4755 -6
      vertex 26.0955 30.2939 0
    endloop
  endfacet
  facet normal 1 0 0
    outer loop
      vertex 26.0955 30.2939 -6
      vertex 26.0955 30.2939 0
      vertex 26.0955 29.7061 0
    endloop
  endfacet
  facet normal 1 0 0
    outer loop
      vertex 26.0955 29.7061 -6
      vertex 26.0955 30.2939 -6
      vertex 26.0955 29.7061 0
    endloop
  endfacet
  facet normal -0.809016 -0.587786 0
    outer loop
      vertex 27 30 0
      vertex 26.6545 30.4755 0
      vertex 27 30 -6
    endloop
  endfacet
  facet normal -0.809016 -0.587786 0
    outer loop
      vertex 27 30 -6
      vertex 26.6545 30.4755 0
      vertex 26.6545 30.4755 -6
    endloop
  endfacet
  facet normal -0.809016 0.587786 0
    outer loop
      vertex 27 30 0
      vertex 27 30 -6
      vertex 26.6545 29.5245 0
    endloop
  endfacet
  facet normal -0.809016 0.587786 0
    outer loop
      vertex 26.6545 29.5245 0
      vertex 27 30 -6
      vertex 26.6545 29.5245 -6
    endloop
  endfacet
  facet normal 0.309017 0.951057 0
    outer loop
      vertex 26.6545 29.5245 0
      vertex 26.6545 29.5245 -6
      vertex 26.0955 29.7061 0
    endloop
  endfacet
  facet normal 0.309017 0.951057 0
    outer loop
      vertex 26.0955 29.7061 0
      vertex 26.6545 29.5245 -6
      vertex 26.0955 29.7061 -6
    endloop
  endfacet
  facet normal 0.822984 1.82739e-16 -0.568065
    outer loop
      vertex -2.65249 32.5 2.99404
      vertex -2.65249 28.5 2.99404
      vertex -3.74006 28.5 1.41842
    endloop
  endfacet
  facet normal 0.822984 1.82739e-16 -0.568065
    outer loop
      vertex -3.74006 32.5 1.41842
      vertex -2.65249 32.5 2.99404
      vertex -3.74006 28.5 1.41842
    endloop
  endfacet
  facet normal 0.992709 2.20426e-16 -0.120536
    outer loop
      vertex -3.74006 32.5 1.41842
      vertex -3.74006 28.5 1.41842
      vertex -3.97083 28.5 -0.482147
    endloop
  endfacet
  facet normal 0.992709 2.20426e-16 -0.120536
    outer loop
      vertex -3.97083 32.5 -0.482147
      vertex -3.74006 32.5 1.41842
      vertex -3.97083 28.5 -0.482147
    endloop
  endfacet
  facet normal 0.464723 1.03189e-16 -0.885456
    outer loop
      vertex -0.957263 28.5 3.88377
      vertex -2.65249 28.5 2.99404
      vertex -0.957263 32.5 3.88377
    endloop
  endfacet
  facet normal 0.464723 1.03189e-16 -0.885456
    outer loop
      vertex -0.957263 32.5 3.88377
      vertex -2.65249 28.5 2.99404
      vertex -2.65249 32.5 2.99404
    endloop
  endfacet
  facet normal 2.22045e-16 4.93038e-32 -1
    outer loop
      vertex 0.957263 28.5 3.88377
      vertex -0.957263 28.5 3.88377
      vertex 0.957263 32.5 3.88377
    endloop
  endfacet
  facet normal 2.22045e-16 4.93038e-32 -1
    outer loop
      vertex 0.957263 32.5 3.88377
      vertex -0.957263 28.5 3.88377
      vertex -0.957263 32.5 3.88377
    endloop
  endfacet
  facet normal -0.464723 -1.03189e-16 -0.885456
    outer loop
      vertex 2.05566 30.1 3.30728
      vertex 2.65249 30.1 2.99404
      vertex 2.65249 28.5 2.99404
    endloop
  endfacet
  facet normal -0.464723 -1.03189e-16 -0.885456
    outer loop
      vertex 2.05566 30.1 3.30728
      vertex 2.65249 28.5 2.99404
      vertex 0.957263 28.5 3.88377
    endloop
  endfacet
  facet normal -0.464723 -1.03189e-16 -0.885456
    outer loop
      vertex 2.05566 30.1 3.30728
      vertex 0.957263 28.5 3.88377
      vertex 2.05566 32.5 3.30728
    endloop
  endfacet
  facet normal -0.464723 -1.03189e-16 -0.885456
    outer loop
      vertex 0.957263 28.5 3.88377
      vertex 0.957263 32.5 3.88377
      vertex 2.05566 32.5 3.30728
    endloop
  endfacet
  facet normal -0.0933407 -2.07258e-17 -0.995634
    outer loop
      vertex 16 30.1 2
      vertex 2.05566 30.1 3.30728
      vertex 16 32.5 2
    endloop
  endfacet
  facet normal -0.0933407 -2.07258e-17 -0.995634
    outer loop
      vertex 16 32.5 2
      vertex 2.05566 30.1 3.30728
      vertex 2.05566 32.5 3.30728
    endloop
  endfacet
  facet normal -1 -2.22045e-16 -2.22045e-16
    outer loop
      vertex 16 30.1 1.802
      vertex 16 30.1 2
      vertex 16 32.5 1.802
    endloop
  endfacet
  facet normal -1 -2.22045e-16 -2.22045e-16
    outer loop
      vertex 16 32.5 1.802
      vertex 16 30.1 2
      vertex 16 32.5 2
    endloop
  endfacet
  facet normal 2.22045e-16 4.93038e-32 -1
    outer loop
      vertex 16.868 30.1 1.802
      vertex 16 30.1 1.802
      vertex 16.868 32.5 1.802
    endloop
  endfacet
  facet normal 2.22045e-16 4.93038e-32 -1
    outer loop
      vertex 16.868 32.5 1.802
      vertex 16 30.1 1.802
      vertex 16 32.5 1.802
    endloop
  endfacet
  facet normal -0.78188 -1.73612e-16 -0.623429
    outer loop
      vertex 17.95 30.1 0.445
      vertex 16.868 30.1 1.802
      vertex 17.95 32.5 0.445
    endloop
  endfacet
  facet normal -0.78188 -1.73612e-16 -0.623429
    outer loop
      vertex 17.95 32.5 0.445
      vertex 16.868 30.1 1.802
      vertex 16.868 32.5 1.802
    endloop
  endfacet
  facet normal -0.974951 -2.16483e-16 0.222418
    outer loop
      vertex 17.95 30.1 0.445
      vertex 17.95 32.5 0.445
      vertex 17.564 30.1 -1.247
    endloop
  endfacet
  facet normal -0.974951 -2.16483e-16 0.222418
    outer loop
      vertex 17.564 30.1 -1.247
      vertex 17.95 32.5 0.445
      vertex 17.564 32.5 -1.247
    endloop
  endfacet
  facet normal -0.433798 -9.63226e-17 0.90101
    outer loop
      vertex 16 30.1 -2
      vertex 17.564 30.1 -1.247
      vertex 17.564 32.5 -1.247
    endloop
  endfacet
  facet normal -0.433798 -9.63226e-17 0.90101
    outer loop
      vertex 16 32.5 -2
      vertex 16 30.1 -2
      vertex 17.564 32.5 -1.247
    endloop
  endfacet
  facet normal -0.0933407 -2.07258e-17 0.995634
    outer loop
      vertex 2.13168 30.1 -3.30015
      vertex 16 30.1 -2
      vertex 16 32.5 -2
    endloop
  endfacet
  facet normal -0.0933407 -2.07258e-17 0.995634
    outer loop
      vertex 2.13168 32.5 -3.30015
      vertex 2.13168 30.1 -3.30015
      vertex 16 32.5 -2
    endloop
  endfacet
  facet normal -0.663123 -1.47243e-16 0.748511
    outer loop
      vertex 1.85889 28.5 -3.54182
      vertex 3.29194 28.5 -2.27226
      vertex 3.29194 30.1 -2.27226
    endloop
  endfacet
  facet normal -0.663123 -1.47243e-16 0.748511
    outer loop
      vertex 2.13168 32.5 -3.30015
      vertex 1.85889 28.5 -3.54182
      vertex 2.13168 30.1 -3.30015
    endloop
  endfacet
  facet normal -0.663123 -1.47243e-16 0.748511
    outer loop
      vertex 2.13168 30.1 -3.30015
      vertex 1.85889 28.5 -3.54182
      vertex 3.29194 30.1 -2.27226
    endloop
  endfacet
  facet normal -0.663123 -1.47243e-16 0.748511
    outer loop
      vertex 1.85889 32.5 -3.54182
      vertex 1.85889 28.5 -3.54182
      vertex 2.13168 32.5 -3.30015
    endloop
  endfacet
  facet normal -0.239316 -5.31388e-17 0.970942
    outer loop
      vertex 1.79856e-15 28.5 -4
      vertex 1.85889 28.5 -3.54182
      vertex 1.85889 32.5 -3.54182
    endloop
  endfacet
  facet normal -0.239316 -5.31388e-17 0.970942
    outer loop
      vertex 9.10383e-16 32.5 -4
      vertex 1.79856e-15 28.5 -4
      vertex 1.85889 32.5 -3.54182
    endloop
  endfacet
  facet normal 0.239316 5.31388e-17 0.970942
    outer loop
      vertex -1.85889 28.5 -3.54182
      vertex 1.79856e-15 28.5 -4
      vertex 9.10383e-16 32.5 -4
    endloop
  endfacet
  facet normal 0.239316 5.31388e-17 0.970942
    outer loop
      vertex -1.85889 32.5 -3.54182
      vertex -1.85889 28.5 -3.54182
      vertex 9.10383e-16 32.5 -4
    endloop
  endfacet
  facet normal 0.663123 1.47243e-16 0.748511
    outer loop
      vertex -3.29193 28.5 -2.27226
      vertex -1.85889 28.5 -3.54182
      vertex -1.85889 32.5 -3.54182
    endloop
  endfacet
  facet normal 0.663123 1.47243e-16 0.748511
    outer loop
      vertex -3.29193 32.5 -2.27226
      vertex -3.29193 28.5 -2.27226
      vertex -1.85889 32.5 -3.54182
    endloop
  endfacet
  facet normal 0.935016 2.07615e-16 0.354605
    outer loop
      vertex -3.97083 28.5 -0.482147
      vertex -3.29193 28.5 -2.27226
      vertex -3.29193 32.5 -2.27226
    endloop
  endfacet
  facet normal 0.935016 2.07615e-16 0.354605
    outer loop
      vertex -3.97083 32.5 -0.482147
      vertex -3.97083 28.5 -0.482147
      vertex -3.29193 32.5 -2.27226
    endloop
  endfacet
  facet normal -0.935016 -2.07615e-16 0.354605
    outer loop
      vertex 3.97084 28.5 -0.482147
      vertex 3.97084 30.1 -0.482147
      vertex 3.29194 28.5 -2.27226
    endloop
  endfacet
  facet normal -0.935016 -2.07615e-16 0.354605
    outer loop
      vertex 3.29194 28.5 -2.27226
      vertex 3.97084 30.1 -0.482147
      vertex 3.29194 30.1 -2.27226
    endloop
  endfacet
  facet normal -0.992709 -2.20426e-16 -0.120536
    outer loop
      vertex 3.97084 28.5 -0.482147
      vertex 3.74007 28.5 1.41842
      vertex 3.97084 30.1 -0.482147
    endloop
  endfacet
  facet normal -0.992709 -2.20426e-16 -0.120536
    outer loop
      vertex 3.97084 30.1 -0.482147
      vertex 3.74007 28.5 1.41842
      vertex 3.74006 30.1 1.41842
    endloop
  endfacet
  facet normal -0.822984 -1.82739e-16 -0.568065
    outer loop
      vertex 3.74007 28.5 1.41842
      vertex 2.65249 28.5 2.99404
      vertex 3.74006 30.1 1.41842
    endloop
  endfacet
  facet normal -0.822984 -1.82739e-16 -0.568065
    outer loop
      vertex 3.74006 30.1 1.41842
      vertex 2.65249 28.5 2.99404
      vertex 2.65249 30.1 2.99404
    endloop
  endfacet
  facet normal -2.22045e-16 1 -4.93038e-32
    outer loop
      vertex 16 30.1 1.802
      vertex 16.868 30.1 1.802
      vertex 17.95 30.1 0.445
    endloop
  endfacet
  facet normal -2.22045e-16 1 -4.93038e-32
    outer loop
      vertex 16 30.1 1.802
      vertex 17.95 30.1 0.445
      vertex 17.564 30.1 -1.247
    endloop
  endfacet
  facet normal -2.22045e-16 1 -4.93038e-32
    outer loop
      vertex 16 30.1 1.802
      vertex 17.564 30.1 -1.247
      vertex 16 30.1 -2
    endloop
  endfacet
  facet normal -2.22045e-16 1 -4.93038e-32
    outer loop
      vertex 16 30.1 1.802
      vertex 16 30.1 -2
      vertex 2.13168 30.1 -3.30015
    endloop
  endfacet
  facet normal -2.22045e-16 1 -4.93038e-32
    outer loop
      vertex 16 30.1 1.802
      vertex 2.13168 30.1 -3.30015
      vertex 16 30.1 2
    endloop
  endfacet
  facet normal -2.22045e-16 1 -4.93038e-32
    outer loop
      vertex 2.13168 30.1 -3.30015
      vertex 3.29194 30.1 -2.27226
      vertex 16 30.1 2
    endloop
  endfacet
  facet normal -2.22045e-16 1 -4.93038e-32
    outer loop
      vertex 3.29194 30.1 -2.27226
      vertex 3.97084 30.1 -0.482147
      vertex 16 30.1 2
    endloop
  endfacet
  facet normal -2.22045e-16 1 -4.93038e-32
    outer loop
      vertex 3.97084 30.1 -0.482147
      vertex 3.74006 30.1 1.41842
      vertex 16 30.1 2
    endloop
  endfacet
  facet normal -2.22045e-16 1 -4.93038e-32
    outer loop
      vertex 3.74006 30.1 1.41842
      vertex 2.65249 30.1 2.99404
      vertex 16 30.1 2
    endloop
  endfacet
  facet normal -2.22045e-16 1 -4.93038e-32
    outer loop
      vertex 2.65249 30.1 2.99404
      vertex 2.05566 30.1 3.30728
      vertex 16 30.1 2
    endloop
  endfacet
  facet normal -1 0 0
    outer loop
      vertex -35 17.5 0
      vertex -35 17.5 -6
      vertex -35 -17.5 0
    endloop
  endfacet
  facet normal -1 0 0
    outer loop
      vertex -35 -17.5 0
      vertex -35 17.5 -6
      vertex -35 -17.5 -6
    endloop
  endfacet
  facet normal 0 -1 0
    outer loop
      vertex 6 -17.5 -6
      vertex 6 -17.5 6
      vertex -20 -17.5 6
    endloop
  endfacet
  facet normal 0 -1 0
    outer loop
      vertex -35 -17.5 0
      vertex 6 -17.5 -6
      vertex -20 -17.5 0
    endloop
  endfacet
  facet normal 0 -1 0
    outer loop
      vertex -20 -17.5 0
      vertex 6 -17.5 -6
      vertex -20 -17.5 6
    endloop
  endfacet
  facet normal 0 -1 0
    outer loop
      vertex -35 -17.5 -6
      vertex 6 -17.5 -6
      vertex -35 -17.5 0
    endloop
  endfacet
  facet normal 0 0 -1
    outer loop
      vertex 6 17.5 -6
      vertex 6 13.5 -6
      vertex -35 17.5 -6
    endloop
  endfacet
  facet normal 0 0 -1
    outer loop
      vertex -35 17.5 -6
      vertex 6 13.5 -6
      vertex -11.5 13.5 -6
    endloop
  endfacet
  facet normal 0 0 -1
    outer loop
      vertex -35 17.5 -6
      vertex -11.5 13.5 -6
      vertex -11.5 13.3516 -6
    endloop
  endfacet
  facet normal 0 0 -1
    outer loop
      vertex -35 17.5 -6
      vertex -11.5 13.3516 -6
      vertex -12.4821 13.4708 -6
    endloop
  endfacet
  facet normal 0 0 -1
    outer loop
      vertex -35 17.5 -6
      vertex -12.4821 13.4708 -6
      vertex -14.2723 12.7919 -6
    endloop
  endfacet
  facet normal 0 0 -1
    outer loop
      vertex -32.75 11.75 -6
      vertex -35 17.5 -6
      vertex -20.25 11.75 -6
    endloop
  endfacet
  facet normal 0 0 -1
    outer loop
      vertex -32.75 -11.75 -6
      vertex -35 -17.5 -6
      vertex -35 17.5 -6
    endloop
  endfacet
  facet normal 0 0 -1
    outer loop
      vertex -12.4821 -13.4708 -6
      vertex -11.5 -13.3516 -6
      vertex -11.5 -13.5 -6
    endloop
  endfacet
  facet normal 0 0 -1
    outer loop
      vertex -11.5 -13.5 -6
      vertex 6 -13.5 -6
      vertex 6 -17.5 -6
    endloop
  endfacet
  facet normal 0 0 -1
    outer loop
      vertex -11.5 -13.5 -6
      vertex 6 -17.5 -6
      vertex -12.4821 -13.4708 -6
    endloop
  endfacet
  facet normal 0 0 -1
    outer loop
      vertex -12.4821 -13.4708 -6
      vertex 6 -17.5 -6
      vertex -35 -17.5 -6
    endloop
  endfacet
  facet normal 0 0 -1
    outer loop
      vertex -12.4821 -13.4708 -6
      vertex -35 -17.5 -6
      vertex -14.2723 -12.7919 -6
    endloop
  endfacet
  facet normal 0 0 -1
    outer loop
      vertex -20.25 -11.75 -6
      vertex -35 -17.5 -6
      vertex -32.75 -11.75 -6
    endloop
  endfacet
  facet normal 0 0 -1
    outer loop
      vertex -32.75 11.75 -6
      vertex -32.75 -11.75 -6
      vertex -35 17.5 -6
    endloop
  endfacet
  facet normal 0 0 -1
    outer loop
      vertex -26.6545 -14.5245 -6
      vertex -35 -17.5 -6
      vertex -20.25 -11.75 -6
    endloop
  endfacet
  facet normal 0 0 -1
    outer loop
      vertex -15.5418 11.3589 -6
      vertex -16 9.5 -6
      vertex -20.25 11.75 -6
    endloop
  endfacet
  facet normal 0 0 -1
    outer loop
      vertex -26.6545 14.5245 -6
      vertex -20.25 11.75 -6
      vertex -35 17.5 -6
    endloop
  endfacet
  facet normal 0 0 -1
    outer loop
      vertex -14.2723 -12.7919 -6
      vertex -35 -17.5 -6
      vertex -26.6545 -15.4755 -6
    endloop
  endfacet
  facet normal 0 0 -1
    outer loop
      vertex -26.0955 14.7061 -6
      vertex -15.5418 11.3589 -6
      vertex -26.6545 14.5245 -6
    endloop
  endfacet
  facet normal 0 0 -1
    outer loop
      vertex -14.2723 -12.7919 -6
      vertex -26.6545 -15.4755 -6
      vertex -26.0955 -15.2939 -6
    endloop
  endfacet
  facet normal 0 0 -1
    outer loop
      vertex -14.2723 -12.7919 -6
      vertex -26.0955 -15.2939 -6
      vertex -15.5418 -11.3589 -6
    endloop
  endfacet
  facet normal 0 0 -1
    outer loop
      vertex -26.6545 14.5245 -6
      vertex -35 17.5 -6
      vertex -27 15 -6
    endloop
  endfacet
  facet normal 0 0 -1
    outer loop
      vertex -26.6545 -14.5245 -6
      vertex -15.5418 -11.3589 -6
      vertex -26.0955 -14.7061 -6
    endloop
  endfacet
  facet normal 0 0 -1
    outer loop
      vertex -27 -15 -6
      vertex -35 -17.5 -6
      vertex -26.6545 -14.5245 -6
    endloop
  endfacet
  facet normal 0 0 -1
    outer loop
      vertex -15.5418 -11.3589 -6
      vertex -26.6545 -14.5245 -6
      vertex -20.25 -11.75 -6
    endloop
  endfacet
  facet normal 0 0 -1
    outer loop
      vertex -26.6545 -15.4755 -6
      vertex -35 -17.5 -6
      vertex -27 -15 -6
    endloop
  endfacet
  facet normal 0 0 -1
    outer loop
      vertex -15.5418 11.3589 -6
      vertex -20.25 11.75 -6
      vertex -26.6545 14.5245 -6
    endloop
  endfacet
  facet normal 0 0 -1
    outer loop
      vertex -27 15 -6
      vertex -35 17.5 -6
      vertex -26.6545 15.4755 -6
    endloop
  endfacet
  facet normal 0 0 -1
    outer loop
      vertex -14.2723 12.7919 -6
      vertex -15.5418 11.3589 -6
      vertex -26.0955 14.7061 -6
    endloop
  endfacet
  facet normal 0 0 -1
    outer loop
      vertex -14.2723 12.7919 -6
      vertex -26.0955 14.7061 -6
      vertex -26.0955 15.2939 -6
    endloop
  endfacet
  facet normal 0 0 -1
    outer loop
      vertex -14.2723 12.7919 -6
      vertex -26.0955 15.2939 -6
      vertex -26.6545 15.4755 -6
    endloop
  endfacet
  facet normal 0 0 -1
    outer loop
      vertex -14.2723 12.7919 -6
      vertex -26.6545 15.4755 -6
      vertex -35 17.5 -6
    endloop
  endfacet
  facet normal 0 0 -1
    outer loop
      vertex -20.25 11.75 -6
      vertex -16 9.5 -6
      vertex -16 -9.5 -6
    endloop
  endfacet
  facet normal 0 0 -1
    outer loop
      vertex -16 -9.5 -6
      vertex -15.5418 -11.3589 -6
      vertex -20.25 -11.75 -6
    endloop
  endfacet
  facet normal 0 0 -1
    outer loop
      vertex -20.25 11.75 -6
      vertex -16 -9.5 -6
      vertex -20.25 -11.75 -6
    endloop
  endfacet
  facet normal 0 0 -1
    outer loop
      vertex -26.0955 -14.7061 -6
      vertex -15.5418 -11.3589 -6
      vertex -26.0955 -15.2939 -6
    endloop
  endfacet
  facet normal 0 0 1
    outer loop
      vertex -26.6545 15.4755 0
      vertex -20 17.5 0
      vertex -35 17.5 0
    endloop
  endfacet
  facet normal 0 0 1
    outer loop
      vertex -20.25 -11.75 0
      vertex -32.75 -11.75 0
      vertex -26.0955 -14.7061 0
    endloop
  endfacet
  facet normal 0 0 1
    outer loop
      vertex -35 -17.5 0
      vertex -32.75 11.75 0
      vertex -35 17.5 0
    endloop
  endfacet
  facet normal 0 0 1
    outer loop
      vertex -26.6545 -14.5245 0
      vertex -26.0955 -14.7061 0
      vertex -32.75 -11.75 0
    endloop
  endfacet
  facet normal 0 0 1
    outer loop
      vertex -20 -17.5 0
      vertex -20 17.5 0
      vertex -20.25 11.75 0
    endloop
  endfacet
  facet normal 0 0 1
    outer loop
      vertex -20.25 -11.75 0
      vertex -26.0955 -14.7061 0
      vertex -20 -17.5 0
    endloop
  endfacet
  facet normal 0 0 1
    outer loop
      vertex -20 -17.5 0
      vertex -20.25 11.75 0
      vertex -20.25 -11.75 0
    endloop
  endfacet
  facet normal 0 0 1
    outer loop
      vertex -35 -17.5 0
      vertex -32.75 -11.75 0
      vertex -32.75 11.75 0
    endloop
  endfacet
  facet normal 0 0 1
    outer loop
      vertex -26.0955 -14.7061 0
      vertex -26.0955 -15.2939 0
      vertex -20 -17.5 0
    endloop
  endfacet
  facet normal 0 0 1
    outer loop
      vertex -35 -17.5 0
      vertex -27 -15 0
      vertex -32.75 -11.75 0
    endloop
  endfacet
  facet normal 0 0 1
    outer loop
      vertex -27 -15 0
      vertex -26.6545 -14.5245 0
      vertex -32.75 -11.75 0
    endloop
  endfacet
  facet normal 0 0 1
    outer loop
      vertex -26.0955 -15.2939 0
      vertex -26.6545 -15.4755 0
      vertex -20 -17.5 0
    endloop
  endfacet
  facet normal 0 0 1
    outer loop
      vertex -26.6545 15.4755 0
      vertex -26.0955 15.2939 0
      vertex -20 17.5 0
    endloop
  endfacet
  facet normal 0 0 1
    outer loop
      vertex -35 -17.5 0
      vertex -26.6545 -15.4755 0
      vertex -27 -15 0
    endloop
  endfacet
  facet normal 0 0 1
    outer loop
      vertex -35 -17.5 0
      vertex -20 -17.5 0
      vertex -26.6545 -15.4755 0
    endloop
  endfacet
  facet normal 0 0 1
    outer loop
      vertex -26.6545 14.5245 0
      vertex -27 15 0
      vertex -35 17.5 0
    endloop
  endfacet
  facet normal 0 0 1
    outer loop
      vertex -27 15 0
      vertex -26.6545 15.4755 0
      vertex -35 17.5 0
    endloop
  endfacet
  facet normal 0 0 1
    outer loop
      vertex -26.0955 14.7061 0
      vertex -26.6545 14.5245 0
      vertex -20.25 11.75 0
    endloop
  endfacet
  facet normal 0 0 1
    outer loop
      vertex -20.25 11.75 0
      vertex -20 17.5 0
      vertex -26.0955 15.2939 0
    endloop
  endfacet
  facet normal 0 0 1
    outer loop
      vertex -20.25 11.75 0
      vertex -26.0955 15.2939 0
      vertex -26.0955 14.7061 0
    endloop
  endfacet
  facet normal 0 0 1
    outer loop
      vertex -20.25 11.75 0
      vertex -26.6545 14.5245 0
      vertex -35 17.5 0
    endloop
  endfacet
  facet normal 0 0 1
    outer loop
      vertex -32.75 11.75 0
      vertex -20.25 11.75 0
      vertex -35 17.5 0
    endloop
  endfacet
  facet normal 0 1 0
    outer loop
      vertex -16 17.5 2
      vertex -20 17.5 6
      vertex 6 17.5 6
    endloop
  endfacet
  facet normal 0 1 0
    outer loop
      vertex 3.97083 17.5 -0.482147
      vertex 6 17.5 6
      vertex 6 17.5 -6
    endloop
  endfacet
  facet normal 0 1 0
    outer loop
      vertex -16 17.5 -2
      vertex 6 17.5 -6
      vertex -35 17.5 0
    endloop
  endfacet
  facet normal 0 1 0
    outer loop
      vertex 6 17.5 -6
      vertex -35 17.5 -6
      vertex -35 17.5 0
    endloop
  endfacet
  facet normal 0 1 0
    outer loop
      vertex -1.85889 17.5 -3.54182
      vertex 6 17.5 -6
      vertex -16 17.5 -2
    endloop
  endfacet
  facet normal 0 1 0
    outer loop
      vertex -20 17.5 0
      vertex -17.564 17.5 -1.247
      vertex -35 17.5 0
    endloop
  endfacet
  facet normal 0 1 0
    outer loop
      vertex -17.564 17.5 -1.247
      vertex -16 17.5 -2
      vertex -35 17.5 0
    endloop
  endfacet
  facet normal 0 1 0
    outer loop
      vertex -2.13168 17.5 -3.30015
      vertex -1.85889 17.5 -3.54182
      vertex -16 17.5 -2
    endloop
  endfacet
  facet normal 0 1 0
    outer loop
      vertex 3.74006 17.5 1.41842
      vertex 6 17.5 6
      vertex 3.97083 17.5 -0.482147
    endloop
  endfacet
  facet normal 0 1 0
    outer loop
      vertex 2.65249 17.5 2.99404
      vertex 6 17.5 6
      vertex 3.74006 17.5 1.41842
    endloop
  endfacet
  facet normal 0 1 0
    outer loop
      vertex -9.10383e-16 17.5 -4
      vertex 1.85889 17.5 -3.54182
      vertex 6 17.5 -6
    endloop
  endfacet
  facet normal 0 1 0
    outer loop
      vertex 1.85889 17.5 -3.54182
      vertex 3.29193 17.5 -2.27226
      vertex 6 17.5 -6
    endloop
  endfacet
  facet normal 0 1 0
    outer loop
      vertex 3.29193 17.5 -2.27226
      vertex 3.97083 17.5 -0.482147
      vertex 6 17.5 -6
    endloop
  endfacet
  facet normal 0 1 0
    outer loop
      vertex 0.957263 17.5 3.88377
      vertex 6 17.5 6
      vertex 2.65249 17.5 2.99404
    endloop
  endfacet
  facet normal 0 1 0
    outer loop
      vertex -0.957263 17.5 3.88377
      vertex 6 17.5 6
      vertex 0.957263 17.5 3.88377
    endloop
  endfacet
  facet normal 0 1 0
    outer loop
      vertex -16.868 17.5 1.802
      vertex -20 17.5 6
      vertex -16 17.5 2
    endloop
  endfacet
  facet normal 0 1 0
    outer loop
      vertex -16.868 17.5 1.802
      vertex -16 17.5 2
      vertex -16 17.5 1.802
    endloop
  endfacet
  facet normal 0 1 0
    outer loop
      vertex -20 17.5 0
      vertex -20 17.5 6
      vertex -16.868 17.5 1.802
    endloop
  endfacet
  facet normal 0 1 0
    outer loop
      vertex -17.95 17.5 0.445
      vertex -20 17.5 0
      vertex -16.868 17.5 1.802
    endloop
  endfacet
  facet normal 0 1 0
    outer loop
      vertex -17.564 17.5 -1.247
      vertex -20 17.5 0
      vertex -17.95 17.5 0.445
    endloop
  endfacet
  facet normal 0 1 0
    outer loop
      vertex -16 17.5 2
      vertex -0.957263 17.5 3.88377
      vertex -2.05566 17.5 3.30728
    endloop
  endfacet
  facet normal 0 1 0
    outer loop
      vertex -16 17.5 2
      vertex 6 17.5 6
      vertex -0.957263 17.5 3.88377
    endloop
  endfacet
  facet normal 0 1 0
    outer loop
      vertex -9.10383e-16 17.5 -4
      vertex 6 17.5 -6
      vertex -1.85889 17.5 -3.54182
    endloop
  endfacet
  facet normal 1 0 0
    outer loop
      vertex 6 -13.5 -6
      vertex 6 -13.5 6
      vertex 6 -17.5 6
    endloop
  endfacet
  facet normal 1 0 0
    outer loop
      vertex 6 -17.5 -6
      vertex 6 -13.5 -6
      vertex 6 -17.5 6
    endloop
  endfacet
  facet normal -1 0 0
    outer loop
      vertex -20 17.5 6
      vertex -20 17.5 0
      vertex -20 -17.5 6
    endloop
  endfacet
  facet normal -1 0 0
    outer loop
      vertex -20 -17.5 6
      vertex -20 17.5 0
      vertex -20 -17.5 0
    endloop
  endfacet
  facet normal 0 0 1
    outer loop
      vertex -12.4821 -13.4708 6
      vertex -20 -17.5 6
      vertex 6 -17.5 6
    endloop
  endfacet
  facet normal 0 0 1
    outer loop
      vertex 6 -17.5 6
      vertex 6 -13.5 6
      vertex -11.5 -13.5 6
    endloop
  endfacet
  facet normal 0 0 1
    outer loop
      vertex -15.5418 -11.3589 6
      vertex -20 -17.5 6
      vertex -14.2723 -12.7919 6
    endloop
  endfacet
  facet normal 0 0 1
    outer loop
      vertex -12.4821 -13.4708 6
      vertex 6 -17.5 6
      vertex -11.5 -13.5 6
    endloop
  endfacet
  facet normal 0 0 1
    outer loop
      vertex -11.5 -13.3516 6
      vertex -12.4821 -13.4708 6
      vertex -11.5 -13.5 6
    endloop
  endfacet
  facet normal 0 0 1
    outer loop
      vertex -14.2723 -12.7919 6
      vertex -20 -17.5 6
      vertex -12.4821 -13.4708 6
    endloop
  endfacet
  facet normal 0 0 1
    outer loop
      vertex -16 -9.5 6
      vertex -20 -17.5 6
      vertex -15.5418 -11.3589 6
    endloop
  endfacet
  facet normal 0 0 1
    outer loop
      vertex -16 9.5 6
      vertex -20 17.5 6
      vertex -16 -9.5 6
    endloop
  endfacet
  facet normal 0 0 1
    outer loop
      vertex -15.5418 11.3589 6
      vertex -20 17.5 6
      vertex -16 9.5 6
    endloop
  endfacet
  facet normal 0 0 1
    outer loop
      vertex -14.2723 12.7919 6
      vertex -20 17.5 6
      vertex -15.5418 11.3589 6
    endloop
  endfacet
  facet normal 0 0 1
    outer loop
      vertex -12.4821 13.4708 6
      vertex -20 17.5 6
      vertex -14.2723 12.7919 6
    endloop
  endfacet
  facet normal 0 0 1
    outer loop
      vertex -11.5 13.3516 6
      vertex -11.5 13.5 6
      vertex -12.4821 13.4708 6
    endloop
  endfacet
  facet normal 0 0 1
    outer loop
      vertex -11.5 13.5 6
      vertex 6 17.5 6
      vertex -12.4821 13.4708 6
    endloop
  endfacet
  facet normal 0 0 1
    outer loop
      vertex 6 13.5 6
      vertex 6 17.5 6
      vertex -11.5 13.5 6
    endloop
  endfacet
  facet normal 0 0 1
    outer loop
      vertex 6 17.5 6
      vertex -20 17.5 6
      vertex -12.4821 13.4708 6
    endloop
  endfacet
  facet normal 0 0 1
    outer loop
      vertex -20 17.5 6
      vertex -20 -17.5 6
      vertex -16 -9.5 6
    endloop
  endfacet
  facet normal 0 1 0
    outer loop
      vertex -11.5 -13.5 -6
      vertex -11.5 -13.5 6
      vertex 6 -13.5 -6
    endloop
  endfacet
  facet normal 0 1 0
    outer loop
      vertex 6 -13.5 -6
      vertex -11.5 -13.5 6
      vertex 6 -13.5 6
    endloop
  endfacet
  facet normal 1 0 0
    outer loop
      vertex -11.5 -13.5 6
      vertex -11.5 -13.5 -6
      vertex -11.5 -13.3516 -6
    endloop
  endfacet
  facet normal 1 0 0
    outer loop
      vertex -11.5 -13.3516 6
      vertex -11.5 -13.5 6
      vertex -11.5 -13.3516 -6
    endloop
  endfacet
  facet normal -0.120536 0.992709 0
    outer loop
      vertex -12.4821 -13.4708 -6
      vertex -12.4821 -13.4708 6
      vertex -11.5 -13.3516 -6
    endloop
  endfacet
  facet normal -0.120536 0.992709 0
    outer loop
      vertex -11.5 -13.3516 -6
      vertex -12.4821 -13.4708 6
      vertex -11.5 -13.3516 6
    endloop
  endfacet
  facet normal 0.354605 0.935016 0
    outer loop
      vertex -14.2723 -12.7919 -6
      vertex -14.2723 -12.7919 6
      vertex -12.4821 -13.4708 -6
    endloop
  endfacet
  facet normal 0.354605 0.935016 0
    outer loop
      vertex -12.4821 -13.4708 -6
      vertex -14.2723 -12.7919 6
      vertex -12.4821 -13.4708 6
    endloop
  endfacet
  facet normal 0.748511 0.663123 0
    outer loop
      vertex -14.2723 -12.7919 -6
      vertex -15.5418 -11.3589 -6
      vertex -15.5418 -11.3589 6
    endloop
  endfacet
  facet normal 0.748511 0.663123 0
    outer loop
      vertex -14.2723 -12.7919 6
      vertex -14.2723 -12.7919 -6
      vertex -15.5418 -11.3589 6
    endloop
  endfacet
  facet normal 0.970942 0.239316 0
    outer loop
      vertex -15.5418 -11.3589 -6
      vertex -16 -9.5 -6
      vertex -16 -9.5 6
    endloop
  endfacet
  facet normal 0.970942 0.239316 0
    outer loop
      vertex -15.5418 -11.3589 6
      vertex -15.5418 -11.3589 -6
      vertex -16 -9.5 6
    endloop
  endfacet
  facet normal 1 0 0
    outer loop
      vertex -16 -9.5 6
      vertex -16 -9.5 -6
      vertex -16 9.5 -6
    endloop
  endfacet
  facet normal 1 0 0
    outer loop
      vertex -16 9.5 6
      vertex -16 -9.5 6
      vertex -16 9.5 -6
    endloop
  endfacet
  facet normal 0.970942 -0.239316 0
    outer loop
      vertex -16 9.5 6
      vertex -16 9.5 -6
      vertex -15.5418 11.3589 -6
    endloop
  endfacet
  facet normal 0.970942 -0.239316 0
    outer loop
      vertex -15.5418 11.3589 6
      vertex -16 9.5 6
      vertex -15.5418 11.3589 -6
    endloop
  endfacet
  facet normal 0.748511 -0.663123 0
    outer loop
      vertex -15.5418 11.3589 6
      vertex -15.5418 11.3589 -6
      vertex -14.2723 12.7919 -6
    endloop
  endfacet
  facet normal 0.748511 -0.663123 0
    outer loop
      vertex -14.2723 12.7919 6
      vertex -15.5418 11.3589 6
      vertex -14.2723 12.7919 -6
    endloop
  endfacet
  facet normal 0.354605 -0.935016 0
    outer loop
      vertex -14.2723 12.7919 6
      vertex -14.2723 12.7919 -6
      vertex -12.4821 13.4708 -6
    endloop
  endfacet
  facet normal 0.354605 -0.935016 0
    outer loop
      vertex -12.4821 13.4708 6
      vertex -14.2723 12.7919 6
      vertex -12.4821 13.4708 -6
    endloop
  endfacet
  facet normal -0.120536 -0.992709 0
    outer loop
      vertex -12.4821 13.4708 6
      vertex -12.4821 13.4708 -6
      vertex -11.5 13.3516 -6
    endloop
  endfacet
  facet normal -0.120536 -0.992709 0
    outer loop
      vertex -11.5 13.3516 6
      vertex -12.4821 13.4708 6
      vertex -11.5 13.3516 -6
    endloop
  endfacet
  facet normal 1 0 0
    outer loop
      vertex -11.5 13.3516 6
      vertex -11.5 13.3516 -6
      vertex -11.5 13.5 -6
    endloop
  endfacet
  facet normal 1 0 0
    outer loop
      vertex -11.5 13.5 6
      vertex -11.5 13.3516 6
      vertex -11.5 13.5 -6
    endloop
  endfacet
  facet normal 0 -1 0
    outer loop
      vertex -1.79856e-15 13.5 -4
      vertex -11.5 13.5 -6
      vertex 6 13.5 -6
    endloop
  endfacet
  facet normal 0 -1 0
    outer loop
      vertex -11.5 13.5 6
      vertex -11.5 13.5 -6
      vertex -3.97084 13.5 -0.482147
    endloop
  endfacet
  facet normal 0 -1 0
    outer loop
      vertex 1.85889 13.5 -3.54182
      vertex -1.79856e-15 13.5 -4
      vertex 6 13.5 -6
    endloop
  endfacet
  facet normal 0 -1 0
    outer loop
      vertex -2.65249 13.5 2.99404
      vertex -11.5 13.5 6
      vertex -3.74007 13.5 1.41842
    endloop
  endfacet
  facet normal 0 -1 0
    outer loop
      vertex -0.957263 13.5 3.88377
      vertex -11.5 13.5 6
      vertex -2.65249 13.5 2.99404
    endloop
  endfacet
  facet normal 0 -1 0
    outer loop
      vertex 0.957263 13.5 3.88377
      vertex 2.65249 13.5 2.99404
      vertex 6 13.5 6
    endloop
  endfacet
  facet normal 0 -1 0
    outer loop
      vertex 6 13.5 6
      vertex -11.5 13.5 6
      vertex -0.957263 13.5 3.88377
    endloop
  endfacet
  facet normal 0 -1 0
    outer loop
      vertex 3.97083 13.5 -0.482147
      vertex 3.29193 13.5 -2.27226
      vertex 6 13.5 -6
    endloop
  endfacet
  facet normal 0 -1 0
    outer loop
      vertex 3.29193 13.5 -2.27226
      vertex 1.85889 13.5 -3.54182
      vertex 6 13.5 -6
    endloop
  endfacet
  facet normal 0 -1 0
    outer loop
      vertex 6 13.5 6
      vertex 3.74006 13.5 1.41842
      vertex 6 13.5 -6
    endloop
  endfacet
  facet normal 0 -1 0
    outer loop
      vertex 6 13.5 6
      vertex 2.65249 13.5 2.99404
      vertex 3.74006 13.5 1.41842
    endloop
  endfacet
  facet normal 0 -1 0
    outer loop
      vertex 3.74006 13.5 1.41842
      vertex 3.97083 13.5 -0.482147
      vertex 6 13.5 -6
    endloop
  endfacet
  facet normal 0 -1 0
    outer loop
      vertex -0.957263 13.5 3.88377
      vertex 0.957263 13.5 3.88377
      vertex 6 13.5 6
    endloop
  endfacet
  facet normal 0 -1 0
    outer loop
      vertex -1.85889 13.5 -3.54182
      vertex -11.5 13.5 -6
      vertex -1.79856e-15 13.5 -4
    endloop
  endfacet
  facet normal 0 -1 0
    outer loop
      vertex -3.29194 13.5 -2.27226
      vertex -11.5 13.5 -6
      vertex -1.85889 13.5 -3.54182
    endloop
  endfacet
  facet normal 0 -1 0
    outer loop
      vertex -3.97084 13.5 -0.482147
      vertex -11.5 13.5 -6
      vertex -3.29194 13.5 -2.27226
    endloop
  endfacet
  facet normal 0 -1 0
    outer loop
      vertex -3.97084 13.5 -0.482147
      vertex -3.74007 13.5 1.41842
      vertex -11.5 13.5 6
    endloop
  endfacet
  facet normal 1 0 0
    outer loop
      vertex 6 17.5 -6
      vertex 6 17.5 6
      vertex 6 13.5 6
    endloop
  endfacet
  facet normal 1 0 0
    outer loop
      vertex 6 13.5 -6
      vertex 6 17.5 -6
      vertex 6 13.5 6
    endloop
  endfacet
  facet normal 1 0 0
    outer loop
      vertex -32.75 -11.75 0
      vertex -32.75 -11.75 -6
      vertex -32.75 11.75 -6
    endloop
  endfacet
  facet normal 1 0 0
    outer loop
      vertex -32.75 11.75 0
      vertex -32.75 -11.75 0
      vertex -32.75 11.75 -6
    endloop
  endfacet
  facet normal 0 1 0
    outer loop
      vertex -32.75 -11.75 -6
      vertex -32.75 -11.75 0
      vertex -20.25 -11.75 -6
    endloop
  endfacet
  facet normal 0 1 0
    outer loop
      vertex -20.25 -11.75 -6
      vertex -32.75 -11.75 0
      vertex -20.25 -11.75 0
    endloop
  endfacet
  facet normal 0 -1 0
    outer loop
      vertex -32.75 11.75 0
      vertex -32.75 11.75 -6
      vertex -20.25 11.75 -6
    endloop
  endfacet
  facet normal 0 -1 0
    outer loop
      vertex -20.25 11.75 0
      vertex -32.75 11.75 0
      vertex -20.25 11.75 -6
    endloop
  endfacet
  facet normal -1 0 0
    outer loop
      vertex -20.25 -11.75 -6
      vertex -20.25 -11.75 0
      vertex -20.25 11.75 -6
    endloop
  endfacet
  facet normal -1 0 0
    outer loop
      vertex -20.25 11.75 -6
      vertex -20.25 -11.75 0
      vertex -20.25 11.75 0
    endloop
  endfacet
  facet normal -0.309017 0.951057 0
    outer loop
      vertex -26.6545 -15.4755 -6
      vertex -26.6545 -15.4755 0
      vertex -26.0955 -15.2939 -6
    endloop
  endfacet
  facet normal -0.309017 0.951057 0
    outer loop
      vertex -26.0955 -15.2939 -6
      vertex -26.6545 -15.4755 0
      vertex -26.0955 -15.2939 0
    endloop
  endfacet
  facet normal 0.809016 0.587786 0
    outer loop
      vertex -26.6545 -15.4755 -6
      vertex -27 -15 -6
      vertex -27 -15 0
    endloop
  endfacet
  facet normal 0.809016 0.587786 0
    outer loop
      vertex -26.6545 -15.4755 0
      vertex -26.6545 -15.4755 -6
      vertex -27 -15 0
    endloop
  endfacet
  facet normal 0.809016 -0.587786 0
    outer loop
      vertex -27 -15 0
      vertex -27 -15 -6
      vertex -26.6545 -14.5245 -6
    endloop
  endfacet
  facet normal 0.809016 -0.587786 0
    outer loop
      vertex -26.6545 -14.5245 0
      vertex -27 -15 0
      vertex -26.6545 -14.5245 -6
    endloop
  endfacet
  facet normal -0.309017 -0.951057 0
    outer loop
      vertex -26.6545 -14.5245 0
      vertex -26.6545 -14.5245 -6
      vertex -26.0955 -14.7061 -6
    endloop
  endfacet
  facet normal -0.309017 -0.951057 0
    outer loop
      vertex -26.0955 -14.7061 0
      vertex -26.6545 -14.5245 0
      vertex -26.0955 -14.7061 -6
    endloop
  endfacet
  facet normal -1 0 0
    outer loop
      vertex -26.0955 -15.2939 -6
      vertex -26.0955 -15.2939 0
      vertex -26.0955 -14.7061 -6
    endloop
  endfacet
  facet normal -1 0 0
    outer loop
      vertex -26.0955 -14.7061 -6
      vertex -26.0955 -15.2939 0
      vertex -26.0955 -14.7061 0
    endloop
  endfacet
  facet normal -0.309017 0.951057 0
    outer loop
      vertex -26.6545 14.5245 -6
      vertex -26.6545 14.5245 0
      vertex -26.0955 14.7061 -6
    endloop
  endfacet
  facet normal -0.309017 0.951057 0
    outer loop
      vertex -26.0955 14.7061 -6
      vertex -26.6545 14.5245 0
      vertex -26.0955 14.7061 0
    endloop
  endfacet
  facet normal 0.809016 0.587786 0
    outer loop
      vertex -26.6545 14.5245 -6
      vertex -27 15 -6
      vertex -27 15 0
    endloop
  endfacet
  facet normal 0.809016 0.587786 0
    outer loop
      vertex -26.6545 14.5245 0
      vertex -26.6545 14.5245 -6
      vertex -27 15 0
    endloop
  endfacet
  facet normal 0.809016 -0.587786 0
    outer loop
      vertex -27 15 0
      vertex -27 15 -6
      vertex -26.6545 15.4755 -6
    endloop
  endfacet
  facet normal 0.809016 -0.587786 0
    outer loop
      vertex -26.6545 15.4755 0
      vertex -27 15 0
      vertex -26.6545 15.4755 -6
    endloop
  endfacet
  facet normal -0.309017 -0.951057 0
    outer loop
      vertex -26.6545 15.4755 0
      vertex -26.6545 15.4755 -6
      vertex -26.0955 15.2939 -6
    endloop
  endfacet
  facet normal -0.309017 -0.951057 0
    outer loop
      vertex -26.0955 15.2939 0
      vertex -26.6545 15.4755 0
      vertex -26.0955 15.2939 -6
    endloop
  endfacet
  facet normal -1 0 0
    outer loop
      vertex -26.0955 14.7061 -6
      vertex -26.0955 14.7061 0
      vertex -26.0955 15.2939 -6
    endloop
  endfacet
  facet normal -1 0 0
    outer loop
      vertex -26.0955 15.2939 -6
      vertex -26.0955 14.7061 0
      vertex -26.0955 15.2939 0
    endloop
  endfacet
  facet normal 0.433798 -9.63226e-17 0.90101
    outer loop
      vertex -17.564 17.5 -1.247
      vertex -17.564 15.1 -1.247
      vertex -16 15.1 -2
    endloop
  endfacet
  facet normal 0.433798 -9.63226e-17 0.90101
    outer loop
      vertex -16 17.5 -2
      vertex -17.564 17.5 -1.247
      vertex -16 15.1 -2
    endloop
  endfacet
  facet normal 0.974951 -2.16483e-16 0.222418
    outer loop
      vertex -17.95 17.5 0.445
      vertex -17.95 15.1 0.445
      vertex -17.564 15.1 -1.247
    endloop
  endfacet
  facet normal 0.974951 -2.16483e-16 0.222418
    outer loop
      vertex -17.564 17.5 -1.247
      vertex -17.95 17.5 0.445
      vertex -17.564 15.1 -1.247
    endloop
  endfacet
  facet normal 0.78188 -1.73612e-16 -0.623429
    outer loop
      vertex -16.868 15.1 1.802
      vertex -17.95 15.1 0.445
      vertex -17.95 17.5 0.445
    endloop
  endfacet
  facet normal 0.78188 -1.73612e-16 -0.623429
    outer loop
      vertex -16.868 17.5 1.802
      vertex -16.868 15.1 1.802
      vertex -17.95 17.5 0.445
    endloop
  endfacet
  facet normal -2.22045e-16 4.93038e-32 -1
    outer loop
      vertex -16.868 15.1 1.802
      vertex -16.868 17.5 1.802
      vertex -16 15.1 1.802
    endloop
  endfacet
  facet normal -2.22045e-16 4.93038e-32 -1
    outer loop
      vertex -16 15.1 1.802
      vertex -16.868 17.5 1.802
      vertex -16 17.5 1.802
    endloop
  endfacet
  facet normal 1 -2.22045e-16 -2.22045e-16
    outer loop
      vertex -16 15.1 2
      vertex -16 15.1 1.802
      vertex -16 17.5 1.802
    endloop
  endfacet
  facet normal 1 -2.22045e-16 -2.22045e-16
    outer loop
      vertex -16 17.5 2
      vertex -16 15.1 2
      vertex -16 17.5 1.802
    endloop
  endfacet
  facet normal 0.0933407 -2.07258e-17 -0.995634
    outer loop
      vertex -16 15.1 2
      vertex -16 17.5 2
      vertex -2.05566 15.1 3.30728
    endloop
  endfacet
  facet normal 0.0933407 -2.07258e-17 -0.995634
    outer loop
      vertex -2.05566 15.1 3.30728
      vertex -16 17.5 2
      vertex -2.05566 17.5 3.30728
    endloop
  endfacet
  facet normal 0.464723 -1.03189e-16 -0.885456
    outer loop
      vertex -2.65249 13.5 2.99404
      vertex -2.65249 15.1 2.99404
      vertex -0.957263 13.5 3.88377
    endloop
  endfacet
  facet normal 0.464723 -1.03189e-16 -0.885456
    outer loop
      vertex -0.957263 13.5 3.88377
      vertex -2.65249 15.1 2.99404
      vertex -2.05566 15.1 3.30728
    endloop
  endfacet
  facet normal 0.464723 -1.03189e-16 -0.885456
    outer loop
      vertex -0.957263 13.5 3.88377
      vertex -2.05566 15.1 3.30728
      vertex -2.05566 17.5 3.30728
    endloop
  endfacet
  facet normal 0.464723 -1.03189e-16 -0.885456
    outer loop
      vertex -0.957263 13.5 3.88377
      vertex -2.05566 17.5 3.30728
      vertex -0.957263 17.5 3.88377
    endloop
  endfacet
  facet normal -2.22045e-16 4.93038e-32 -1
    outer loop
      vertex -0.957263 13.5 3.88377
      vertex -0.957263 17.5 3.88377
      vertex 0.957263 13.5 3.88377
    endloop
  endfacet
  facet normal -2.22045e-16 4.93038e-32 -1
    outer loop
      vertex 0.957263 13.5 3.88377
      vertex -0.957263 17.5 3.88377
      vertex 0.957263 17.5 3.88377
    endloop
  endfacet
  facet normal -0.464723 1.03189e-16 -0.885456
    outer loop
      vertex 0.957263 13.5 3.88377
      vertex 0.957263 17.5 3.88377
      vertex 2.65249 13.5 2.99404
    endloop
  endfacet
  facet normal -0.464723 1.03189e-16 -0.885456
    outer loop
      vertex 2.65249 13.5 2.99404
      vertex 0.957263 17.5 3.88377
      vertex 2.65249 17.5 2.99404
    endloop
  endfacet
  facet normal -0.822984 1.82739e-16 -0.568065
    outer loop
      vertex 2.65249 13.5 2.99404
      vertex 2.65249 17.5 2.99404
      vertex 3.74006 13.5 1.41842
    endloop
  endfacet
  facet normal -0.822984 1.82739e-16 -0.568065
    outer loop
      vertex 3.74006 13.5 1.41842
      vertex 2.65249 17.5 2.99404
      vertex 3.74006 17.5 1.41842
    endloop
  endfacet
  facet normal -0.992709 2.20426e-16 -0.120536
    outer loop
      vertex 3.74006 13.5 1.41842
      vertex 3.74006 17.5 1.41842
      vertex 3.97083 13.5 -0.482147
    endloop
  endfacet
  facet normal -0.992709 2.20426e-16 -0.120536
    outer loop
      vertex 3.97083 13.5 -0.482147
      vertex 3.74006 17.5 1.41842
      vertex 3.97083 17.5 -0.482147
    endloop
  endfacet
  facet normal -0.935016 2.07615e-16 0.354605
    outer loop
      vertex 3.29193 13.5 -2.27226
      vertex 3.97083 13.5 -0.482147
      vertex 3.29193 17.5 -2.27226
    endloop
  endfacet
  facet normal -0.935016 2.07615e-16 0.354605
    outer loop
      vertex 3.29193 17.5 -2.27226
      vertex 3.97083 13.5 -0.482147
      vertex 3.97083 17.5 -0.482147
    endloop
  endfacet
  facet normal -0.663123 1.47243e-16 0.748511
    outer loop
      vertex 1.85889 17.5 -3.54182
      vertex 1.85889 13.5 -3.54182
      vertex 3.29193 13.5 -2.27226
    endloop
  endfacet
  facet normal -0.663123 1.47243e-16 0.748511
    outer loop
      vertex 3.29193 17.5 -2.27226
      vertex 1.85889 17.5 -3.54182
      vertex 3.29193 13.5 -2.27226
    endloop
  endfacet
  facet normal -0.239316 5.31388e-17 0.970942
    outer loop
      vertex -9.10383e-16 17.5 -4
      vertex -1.79856e-15 13.5 -4
      vertex 1.85889 13.5 -3.54182
    endloop
  endfacet
  facet normal -0.239316 5.31388e-17 0.970942
    outer loop
      vertex 1.85889 17.5 -3.54182
      vertex -9.10383e-16 17.5 -4
      vertex 1.85889 13.5 -3.54182
    endloop
  endfacet
  facet normal 0.239316 -5.31388e-17 0.970942
    outer loop
      vertex -1.85889 17.5 -3.54182
      vertex -1.85889 13.5 -3.54182
      vertex -1.79856e-15 13.5 -4
    endloop
  endfacet
  facet normal 0.239316 -5.31388e-17 0.970942
    outer loop
      vertex -9.10383e-16 17.5 -4
      vertex -1.85889 17.5 -3.54182
      vertex -1.79856e-15 13.5 -4
    endloop
  endfacet
  facet normal 0.663123 -1.47243e-16 0.748511
    outer loop
      vertex -3.29194 15.1 -2.27226
      vertex -3.29194 13.5 -2.27226
      vertex -1.85889 13.5 -3.54182
    endloop
  endfacet
  facet normal 0.663123 -1.47243e-16 0.748511
    outer loop
      vertex -2.13168 15.1 -3.30015
      vertex -3.29194 15.1 -2.27226
      vertex -1.85889 13.5 -3.54182
    endloop
  endfacet
  facet normal 0.663123 -1.47243e-16 0.748511
    outer loop
      vertex -1.85889 17.5 -3.54182
      vertex -2.13168 15.1 -3.30015
      vertex -1.85889 13.5 -3.54182
    endloop
  endfacet
  facet normal 0.663123 -1.47243e-16 0.748511
    outer loop
      vertex -2.13168 17.5 -3.30015
      vertex -2.13168 15.1 -3.30015
      vertex -1.85889 17.5 -3.54182
    endloop
  endfacet
  facet normal 0.0933407 -2.07258e-17 0.995634
    outer loop
      vertex -16 17.5 -2
      vertex -16 15.1 -2
      vertex -2.13168 15.1 -3.30015
    endloop
  endfacet
  facet normal 0.0933407 -2.07258e-17 0.995634
    outer loop
      vertex -2.13168 17.5 -3.30015
      vertex -16 17.5 -2
      vertex -2.13168 15.1 -3.30015
    endloop
  endfacet
  facet normal 0.992709 -2.20426e-16 -0.120536
    outer loop
      vertex -3.74007 13.5 1.41842
      vertex -3.97084 13.5 -0.482147
      vertex -3.97084 15.1 -0.482147
    endloop
  endfacet
  facet normal 0.992709 -2.20426e-16 -0.120536
    outer loop
      vertex -3.74006 15.1 1.41842
      vertex -3.74007 13.5 1.41842
      vertex -3.97084 15.1 -0.482147
    endloop
  endfacet
  facet normal 0.935016 -2.07615e-16 0.354605
    outer loop
      vertex -3.97084 15.1 -0.482147
      vertex -3.97084 13.5 -0.482147
      vertex -3.29194 13.5 -2.27226
    endloop
  endfacet
  facet normal 0.935016 -2.07615e-16 0.354605
    outer loop
      vertex -3.29194 15.1 -2.27226
      vertex -3.97084 15.1 -0.482147
      vertex -3.29194 13.5 -2.27226
    endloop
  endfacet
  facet normal 0.822984 -1.82739e-16 -0.568065
    outer loop
      vertex -2.65249 13.5 2.99404
      vertex -3.74007 13.5 1.41842
      vertex -3.74006 15.1 1.41842
    endloop
  endfacet
  facet normal 0.822984 -1.82739e-16 -0.568065
    outer loop
      vertex -2.65249 15.1 2.99404
      vertex -2.65249 13.5 2.99404
      vertex -3.74006 15.1 1.41842
    endloop
  endfacet
  facet normal 2.22045e-16 1 -4.93038e-32
    outer loop
      vertex -17.95 15.1 0.445
      vertex -16.868 15.1 1.802
      vertex -17.564 15.1 -1.247
    endloop
  endfacet
  facet normal 2.22045e-16 1 -4.93038e-32
    outer loop
      vertex -17.564 15.1 -1.247
      vertex -16.868 15.1 1.802
      vertex -16 15.1 1.802
    endloop
  endfacet
  facet normal 2.22045e-16 1 -4.93038e-32
    outer loop
      vertex -16 15.1 1.802
      vertex -16 15.1 2
      vertex -2.05566 15.1 3.30728
    endloop
  endfacet
  facet normal 2.22045e-16 1 -4.93038e-32
    outer loop
      vertex -16 15.1 1.802
      vertex -2.05566 15.1 3.30728
      vertex -17.564 15.1 -1.247
    endloop
  endfacet
  facet normal 2.22045e-16 1 -4.93038e-32
    outer loop
      vertex -17.564 15.1 -1.247
      vertex -2.05566 15.1 3.30728
      vertex -2.65249 15.1 2.99404
    endloop
  endfacet
  facet normal 2.22045e-16 1 -4.93038e-32
    outer loop
      vertex -17.564 15.1 -1.247
      vertex -2.65249 15.1 2.99404
      vertex -3.74006 15.1 1.41842
    endloop
  endfacet
  facet normal 2.22045e-16 1 -4.93038e-32
    outer loop
      vertex -3.74006 15.1 1.41842
      vertex -3.97084 15.1 -0.482147
      vertex -17.564 15.1 -1.247
    endloop
  endfacet
  facet normal 2.22045e-16 1 -4.93038e-32
    outer loop
      vertex -3.97084 15.1 -0.482147
      vertex -3.29194 15.1 -2.27226
      vertex -17.564 15.1 -1.247
    endloop
  endfacet
  facet normal 2.22045e-16 1 -4.93038e-32
    outer loop
      vertex -3.29194 15.1 -2.27226
      vertex -2.13168 15.1 -3.30015
      vertex -17.564 15.1 -1.247
    endloop
  endfacet
  facet normal 2.22045e-16 1 -4.93038e-32
    outer loop
      vertex -17.564 15.1 -1.247
      vertex -2.13168 15.1 -3.30015
      vertex -16 15.1 -2
    endloop
  endfacet
endsolid OpenSCAD_Model
