solid OpenSCAD_Model
  facet normal 0.239316 -4.34921e-17 0.970942
    outer loop
      vertex -1.85889 18.5 -3.54182
      vertex -1.79856e-15 14.5 -4
      vertex -9.10383e-16 18.5 -4
    endloop
  endfacet
  facet normal 0.239316 0 0.970942
    outer loop
      vertex -1.79856e-15 14.5 -4
      vertex -1.85889 18.5 -3.54182
      vertex -1.85889 14.5 -3.54182
    endloop
  endfacet
  facet normal 0 0 -1
    outer loop
      vertex -0.957262 14.5 3.88377
      vertex 0.957262 18.5 3.88377
      vertex 0.957262 14.5 3.88377
    endloop
  endfacet
  facet normal -0 0 -1
    outer loop
      vertex 0.957262 18.5 3.88377
      vertex -0.957262 14.5 3.88377
      vertex -0.957262 18.5 3.88377
    endloop
  endfacet
  facet normal 0.992709 0 -0.120537
    outer loop
      vertex -3.74006 14.5 1.41842
      vertex -3.97083 16.1 -0.482146
      vertex -3.74006 16.1 1.41842
    endloop
  endfacet
  facet normal 0.992709 0 -0.120537
    outer loop
      vertex -3.97083 16.1 -0.482146
      vertex -3.74006 14.5 1.41842
      vertex -3.97083 14.5 -0.482146
    endloop
  endfacet
  facet normal 0.663123 -0 0.748511
    outer loop
      vertex -2.13168 16.1 -3.30015
      vertex -1.85889 18.5 -3.54182
      vertex -2.13168 18.5 -3.30015
    endloop
  endfacet
  facet normal 0.663123 0 0.748511
    outer loop
      vertex -1.85889 18.5 -3.54182
      vertex -2.13168 16.1 -3.30015
      vertex -1.85889 14.5 -3.54182
    endloop
  endfacet
  facet normal 0.663123 -0 0.748511
    outer loop
      vertex -3.29193 14.5 -2.27226
      vertex -2.13168 16.1 -3.30015
      vertex -3.29193 16.1 -2.27226
    endloop
  endfacet
  facet normal 0.663123 -1.17069e-08 0.748511
    outer loop
      vertex -2.13168 16.1 -3.30015
      vertex -3.29193 14.5 -2.27226
      vertex -1.85889 14.5 -3.54182
    endloop
  endfacet
  facet normal 0.822984 0 -0.568065
    outer loop
      vertex -2.65249 14.5 2.99404
      vertex -3.74006 16.1 1.41842
      vertex -2.65249 16.1 2.99404
    endloop
  endfacet
  facet normal 0.822984 0 -0.568065
    outer loop
      vertex -3.74006 16.1 1.41842
      vertex -2.65249 14.5 2.99404
      vertex -3.74006 14.5 1.41842
    endloop
  endfacet
  facet normal -0.239316 0 0.970942
    outer loop
      vertex -9.10383e-16 18.5 -4
      vertex 1.85889 14.5 -3.54182
      vertex 1.85889 18.5 -3.54182
    endloop
  endfacet
  facet normal -0.239316 4.34921e-17 0.970942
    outer loop
      vertex 1.85889 14.5 -3.54182
      vertex -9.10383e-16 18.5 -4
      vertex -1.79856e-15 14.5 -4
    endloop
  endfacet
  facet normal 0.935016 -0 0.354605
    outer loop
      vertex -3.97083 14.5 -0.482146
      vertex -3.29193 16.1 -2.27226
      vertex -3.97083 16.1 -0.482146
    endloop
  endfacet
  facet normal 0.935016 0 0.354605
    outer loop
      vertex -3.29193 16.1 -2.27226
      vertex -3.97083 14.5 -0.482146
      vertex -3.29193 14.5 -2.27226
    endloop
  endfacet
  facet normal -0.464723 0 -0.885456
    outer loop
      vertex 0.957262 14.5 3.88377
      vertex 2.65249 18.5 2.99404
      vertex 2.65249 14.5 2.99404
    endloop
  endfacet
  facet normal -0.464723 0 -0.885456
    outer loop
      vertex 2.65249 18.5 2.99404
      vertex 0.957262 14.5 3.88377
      vertex 0.957262 18.5 3.88377
    endloop
  endfacet
  facet normal -0.663123 0 0.748511
    outer loop
      vertex 1.85889 18.5 -3.54182
      vertex 3.29193 14.5 -2.27226
      vertex 3.29193 18.5 -2.27226
    endloop
  endfacet
  facet normal -0.663123 0 0.748511
    outer loop
      vertex 3.29193 14.5 -2.27226
      vertex 1.85889 18.5 -3.54182
      vertex 1.85889 14.5 -3.54182
    endloop
  endfacet
  facet normal 0.464723 0 -0.885456
    outer loop
      vertex -0.957262 14.5 3.88377
      vertex -2.05566 16.1 3.30728
      vertex -0.957262 18.5 3.88377
    endloop
  endfacet
  facet normal 0.464723 -3.6466e-08 -0.885456
    outer loop
      vertex -2.65249 14.5 2.99404
      vertex -2.05566 16.1 3.30728
      vertex -0.957262 14.5 3.88377
    endloop
  endfacet
  facet normal 0.464723 0 -0.885456
    outer loop
      vertex -2.05566 16.1 3.30728
      vertex -2.65249 14.5 2.99404
      vertex -2.65249 16.1 2.99404
    endloop
  endfacet
  facet normal 0.464723 0 -0.885456
    outer loop
      vertex -0.957262 18.5 3.88377
      vertex -2.05566 16.1 3.30728
      vertex -2.05566 18.5 3.30728
    endloop
  endfacet
  facet normal -0.822984 0 -0.568065
    outer loop
      vertex 3.74006 14.5 1.41842
      vertex 2.65249 18.5 2.99404
      vertex 3.74006 18.5 1.41842
    endloop
  endfacet
  facet normal -0.822984 -0 -0.568065
    outer loop
      vertex 2.65249 18.5 2.99404
      vertex 3.74006 14.5 1.41842
      vertex 2.65249 14.5 2.99404
    endloop
  endfacet
  facet normal -0.935016 0 0.354605
    outer loop
      vertex 3.29193 14.5 -2.27226
      vertex 3.97083 18.5 -0.482146
      vertex 3.29193 18.5 -2.27226
    endloop
  endfacet
  facet normal -0.935016 0 0.354605
    outer loop
      vertex 3.97083 18.5 -0.482146
      vertex 3.29193 14.5 -2.27226
      vertex 3.97083 14.5 -0.482146
    endloop
  endfacet
  facet normal -0.992709 0 -0.120537
    outer loop
      vertex 3.97083 14.5 -0.482146
      vertex 3.74006 18.5 1.41842
      vertex 3.97083 18.5 -0.482146
    endloop
  endfacet
  facet normal -0.992709 -0 -0.120537
    outer loop
      vertex 3.74006 18.5 1.41842
      vertex 3.97083 14.5 -0.482146
      vertex 3.74006 14.5 1.41842
    endloop
  endfacet
  facet normal 0 1 -0
    outer loop
      vertex -2.65249 16.1 2.99404
      vertex -16 16.1 2
      vertex -2.05566 16.1 3.30728
    endloop
  endfacet
  facet normal 0 1 -0
    outer loop
      vertex -3.74006 16.1 1.41842
      vertex -16 16.1 2
      vertex -2.65249 16.1 2.99404
    endloop
  endfacet
  facet normal 0 1 0
    outer loop
      vertex -16 16.1 2
      vertex -3.74006 16.1 1.41842
      vertex -16 16.1 1.80193
    endloop
  endfacet
  facet normal 0 1 -0
    outer loop
      vertex -3.97083 16.1 -0.482146
      vertex -16 16.1 1.80193
      vertex -3.74006 16.1 1.41842
    endloop
  endfacet
  facet normal -0 1 0
    outer loop
      vertex -17.5637 16.1 -1.24698
      vertex -16 16.1 1.80193
      vertex -16 16.1 -2
    endloop
  endfacet
  facet normal 0 1 0
    outer loop
      vertex -16 16.1 1.80193
      vertex -3.97083 16.1 -0.482146
      vertex -16 16.1 -2
    endloop
  endfacet
  facet normal 0 1 0
    outer loop
      vertex -16 16.1 1.80193
      vertex -17.9498 16.1 0.445038
      vertex -16.8678 16.1 1.80193
    endloop
  endfacet
  facet normal 0 1 0
    outer loop
      vertex -16 16.1 1.80193
      vertex -17.5637 16.1 -1.24698
      vertex -17.9498 16.1 0.445038
    endloop
  endfacet
  facet normal 0 1 0
    outer loop
      vertex -3.29193 16.1 -2.27226
      vertex -16 16.1 -2
      vertex -3.97083 16.1 -0.482146
    endloop
  endfacet
  facet normal 0 1 0
    outer loop
      vertex -16 16.1 -2
      vertex -3.29193 16.1 -2.27226
      vertex -2.13168 16.1 -3.30015
    endloop
  endfacet
  facet normal 0.0933407 0 0.995634
    outer loop
      vertex -16 18.5 -2
      vertex -2.13168 16.1 -3.30015
      vertex -2.13168 18.5 -3.30015
    endloop
  endfacet
  facet normal 0.0933407 0 0.995634
    outer loop
      vertex -2.13168 16.1 -3.30015
      vertex -16 18.5 -2
      vertex -16 16.1 -2
    endloop
  endfacet
  facet normal 0.433885 0 0.900968
    outer loop
      vertex -17.5637 18.5 -1.24698
      vertex -16 16.1 -2
      vertex -16 18.5 -2
    endloop
  endfacet
  facet normal 0.433885 0 0.900968
    outer loop
      vertex -16 16.1 -2
      vertex -17.5637 18.5 -1.24698
      vertex -17.5637 16.1 -1.24698
    endloop
  endfacet
  facet normal 0.974929 -0 0.222517
    outer loop
      vertex -17.9498 16.1 0.445038
      vertex -17.5637 18.5 -1.24698
      vertex -17.9498 18.5 0.445038
    endloop
  endfacet
  facet normal 0.974929 0 0.222517
    outer loop
      vertex -17.5637 18.5 -1.24698
      vertex -17.9498 16.1 0.445038
      vertex -17.5637 16.1 -1.24698
    endloop
  endfacet
  facet normal 0.781833 0 -0.623488
    outer loop
      vertex -16.8678 16.1 1.80193
      vertex -17.9498 18.5 0.445038
      vertex -16.8678 18.5 1.80193
    endloop
  endfacet
  facet normal 0.781833 0 -0.623488
    outer loop
      vertex -17.9498 18.5 0.445038
      vertex -16.8678 16.1 1.80193
      vertex -17.9498 16.1 0.445038
    endloop
  endfacet
  facet normal 0 0 -1
    outer loop
      vertex -16.8678 16.1 1.80193
      vertex -16 18.5 1.80193
      vertex -16 16.1 1.80193
    endloop
  endfacet
  facet normal -0 0 -1
    outer loop
      vertex -16 18.5 1.80193
      vertex -16.8678 16.1 1.80193
      vertex -16.8678 18.5 1.80193
    endloop
  endfacet
  facet normal 1 -0 0
    outer loop
      vertex -16 16.1 2
      vertex -16 18.5 1.80193
      vertex -16 18.5 2
    endloop
  endfacet
  facet normal 1 0 0
    outer loop
      vertex -16 18.5 1.80193
      vertex -16 16.1 2
      vertex -16 16.1 1.80193
    endloop
  endfacet
  facet normal 0.0933407 0 -0.995634
    outer loop
      vertex -16 16.1 2
      vertex -2.05566 18.5 3.30728
      vertex -2.05566 16.1 3.30728
    endloop
  endfacet
  facet normal 0.0933407 0 -0.995634
    outer loop
      vertex -2.05566 18.5 3.30728
      vertex -16 16.1 2
      vertex -16 18.5 2
    endloop
  endfacet
  facet normal 1 -0 0
    outer loop
      vertex 6 -18.5 6
      vertex 6 -14.5 -6
      vertex 6 -14.5 6
    endloop
  endfacet
  facet normal 1 0 0
    outer loop
      vertex 6 -14.5 -6
      vertex 6 -18.5 6
      vertex 6 -18.5 -6
    endloop
  endfacet
  facet normal 1 -0 0
    outer loop
      vertex 6 14.5 6
      vertex 6 18.5 -6
      vertex 6 18.5 6
    endloop
  endfacet
  facet normal 1 0 0
    outer loop
      vertex 6 18.5 -6
      vertex 6 14.5 6
      vertex 6 14.5 -6
    endloop
  endfacet
  facet normal 0 0 1
    outer loop
      vertex 6 18.5 6
      vertex -11.5 14.5 6
      vertex 6 14.5 6
    endloop
  endfacet
  facet normal 0 0 1
    outer loop
      vertex -11.5 14.5 6
      vertex -12.4821 14.4708 6
      vertex -11.5 14.3516 6
    endloop
  endfacet
  facet normal -0 0 1
    outer loop
      vertex -20 18.5 6
      vertex -11.5 14.5 6
      vertex 6 18.5 6
    endloop
  endfacet
  facet normal 0 0 1
    outer loop
      vertex -16 10.5 6
      vertex -20 18.5 6
      vertex -16 -10.5 6
    endloop
  endfacet
  facet normal 0 0 1
    outer loop
      vertex -15.5418 12.3589 6
      vertex -20 18.5 6
      vertex -16 10.5 6
    endloop
  endfacet
  facet normal 0 0 1
    outer loop
      vertex -14.2723 13.7919 6
      vertex -20 18.5 6
      vertex -15.5418 12.3589 6
    endloop
  endfacet
  facet normal 0 0 1
    outer loop
      vertex -12.4821 14.4708 6
      vertex -20 18.5 6
      vertex -14.2723 13.7919 6
    endloop
  endfacet
  facet normal 0 0 1
    outer loop
      vertex -11.5 14.5 6
      vertex -20 18.5 6
      vertex -12.4821 14.4708 6
    endloop
  endfacet
  facet normal 0 0 1
    outer loop
      vertex -11.5 -14.3516 6
      vertex -12.4821 -14.4708 6
      vertex -11.5 -14.5 6
    endloop
  endfacet
  facet normal -0 0 1
    outer loop
      vertex -11.5 -14.5 6
      vertex 6 -18.5 6
      vertex 6 -14.5 6
    endloop
  endfacet
  facet normal 0 0 1
    outer loop
      vertex -20 -18.5 6
      vertex -11.5 -14.5 6
      vertex -12.4821 -14.4708 6
    endloop
  endfacet
  facet normal 0 0 1
    outer loop
      vertex -11.5 -14.5 6
      vertex -20 -18.5 6
      vertex 6 -18.5 6
    endloop
  endfacet
  facet normal 0 0 1
    outer loop
      vertex -14.2723 -13.7919 6
      vertex -20 -18.5 6
      vertex -12.4821 -14.4708 6
    endloop
  endfacet
  facet normal 0 0 1
    outer loop
      vertex -15.5418 -12.3589 6
      vertex -20 -18.5 6
      vertex -14.2723 -13.7919 6
    endloop
  endfacet
  facet normal 0 0 1
    outer loop
      vertex -16 -10.5 6
      vertex -20 -18.5 6
      vertex -15.5418 -12.3589 6
    endloop
  endfacet
  facet normal 0 0 1
    outer loop
      vertex -20 -18.5 6
      vertex -16 -10.5 6
      vertex -20 18.5 6
    endloop
  endfacet
  facet normal -1 0 0
    outer loop
      vertex -20 -18.5 0
      vertex -20 18.5 6
      vertex -20 18.5 0
    endloop
  endfacet
  facet normal -1 -0 0
    outer loop
      vertex -20 18.5 6
      vertex -20 -18.5 0
      vertex -20 -18.5 6
    endloop
  endfacet
  facet normal 0 0 -1
    outer loop
      vertex -20.25 11.75 -6
      vertex -26.809 14.0489 -6
      vertex -25.691 14.4122 -6
    endloop
  endfacet
  facet normal -0 0 -1
    outer loop
      vertex -26.809 14.0489 -6
      vertex -32.75 11.75 -6
      vertex -27.5 15 -6
    endloop
  endfacet
  facet normal 0 0 -1
    outer loop
      vertex -32.75 11.75 -6
      vertex -26.809 14.0489 -6
      vertex -20.25 11.75 -6
    endloop
  endfacet
  facet normal 0 0 -1
    outer loop
      vertex 6 -18.5 -6
      vertex -11.5 -14.5 -6
      vertex 6 -14.5 -6
    endloop
  endfacet
  facet normal 0 0 -1
    outer loop
      vertex -11.5 -14.5 -6
      vertex -12.4821 -14.4708 -6
      vertex -11.5 -14.3516 -6
    endloop
  endfacet
  facet normal 0 0 -1
    outer loop
      vertex 6 -18.5 -6
      vertex -12.4821 -14.4708 -6
      vertex -11.5 -14.5 -6
    endloop
  endfacet
  facet normal -0 0 -1
    outer loop
      vertex -16 -10.5 -6
      vertex -20.25 -11.75 -6
      vertex -16 10.5 -6
    endloop
  endfacet
  facet normal 0 0 -1
    outer loop
      vertex -15.5418 -12.3589 -6
      vertex -20.25 -11.75 -6
      vertex -16 -10.5 -6
    endloop
  endfacet
  facet normal 0 0 -1
    outer loop
      vertex -14.2723 -13.7919 -6
      vertex -20.25 -11.75 -6
      vertex -15.5418 -12.3589 -6
    endloop
  endfacet
  facet normal 0 0 -1
    outer loop
      vertex -25.691 -15.5878 -6
      vertex -14.2723 -13.7919 -6
      vertex -12.4821 -14.4708 -6
    endloop
  endfacet
  facet normal -0 0 -1
    outer loop
      vertex -14.2723 -13.7919 -6
      vertex -25.691 -15.5878 -6
      vertex -20.25 -11.75 -6
    endloop
  endfacet
  facet normal 0 0 -1
    outer loop
      vertex -26.809 -15.9511 -6
      vertex -12.4821 -14.4708 -6
      vertex 6 -18.5 -6
    endloop
  endfacet
  facet normal 0 0 -1
    outer loop
      vertex -12.4821 -14.4708 -6
      vertex -26.809 -15.9511 -6
      vertex -25.691 -15.5878 -6
    endloop
  endfacet
  facet normal 0 0 -1
    outer loop
      vertex -35 -18.5 -6
      vertex -27.5 -15 -6
      vertex -26.809 -15.9511 -6
    endloop
  endfacet
  facet normal -0 0 -1
    outer loop
      vertex -32.75 -11.75 -6
      vertex -35 -18.5 -6
      vertex -32.75 11.75 -6
    endloop
  endfacet
  facet normal -0 0 -1
    outer loop
      vertex -27.5 -15 -6
      vertex -35 -18.5 -6
      vertex -32.75 -11.75 -6
    endloop
  endfacet
  facet normal 0 0 -1
    outer loop
      vertex -35 -18.5 -6
      vertex -26.809 -15.9511 -6
      vertex 6 -18.5 -6
    endloop
  endfacet
  facet normal 0 0 -1
    outer loop
      vertex -11.5 14.3516 -6
      vertex -12.4821 14.4708 -6
      vertex -11.5 14.5 -6
    endloop
  endfacet
  facet normal 0 0 -1
    outer loop
      vertex -11.5 14.5 -6
      vertex 6 18.5 -6
      vertex 6 14.5 -6
    endloop
  endfacet
  facet normal 0 0 -1
    outer loop
      vertex -12.4821 14.4708 -6
      vertex 6 18.5 -6
      vertex -11.5 14.5 -6
    endloop
  endfacet
  facet normal 0 0 -1
    outer loop
      vertex -20.25 11.75 -6
      vertex -16 10.5 -6
      vertex -20.25 -11.75 -6
    endloop
  endfacet
  facet normal 0 0 -1
    outer loop
      vertex -20.25 11.75 -6
      vertex -15.5418 12.3589 -6
      vertex -16 10.5 -6
    endloop
  endfacet
  facet normal 0 0 -1
    outer loop
      vertex -20.25 11.75 -6
      vertex -14.2723 13.7919 -6
      vertex -15.5418 12.3589 -6
    endloop
  endfacet
  facet normal 0 0 -1
    outer loop
      vertex -25.691 15.5878 -6
      vertex -14.2723 13.7919 -6
      vertex -20.25 11.75 -6
    endloop
  endfacet
  facet normal 0 0 -1
    outer loop
      vertex -25.691 15.5878 -6
      vertex -20.25 11.75 -6
      vertex -25.691 14.4122 -6
    endloop
  endfacet
  facet normal 0 0 -1
    outer loop
      vertex -14.2723 13.7919 -6
      vertex -25.691 15.5878 -6
      vertex -12.4821 14.4708 -6
    endloop
  endfacet
  facet normal 0 0 -1
    outer loop
      vertex -26.809 15.9511 -6
      vertex -12.4821 14.4708 -6
      vertex -25.691 15.5878 -6
    endloop
  endfacet
  facet normal 0 0 -1
    outer loop
      vertex -12.4821 14.4708 -6
      vertex -26.809 15.9511 -6
      vertex 6 18.5 -6
    endloop
  endfacet
  facet normal 0 0 -1
    outer loop
      vertex -35 18.5 -6
      vertex -27.5 15 -6
      vertex -32.75 11.75 -6
    endloop
  endfacet
  facet normal 0 0 -1
    outer loop
      vertex -26.809 15.9511 -6
      vertex -35 18.5 -6
      vertex 6 18.5 -6
    endloop
  endfacet
  facet normal 0 0 -1
    outer loop
      vertex -27.5 15 -6
      vertex -35 18.5 -6
      vertex -26.809 15.9511 -6
    endloop
  endfacet
  facet normal 0 0 -1
    outer loop
      vertex -35 18.5 -6
      vertex -32.75 11.75 -6
      vertex -35 -18.5 -6
    endloop
  endfacet
  facet normal 0 0 -1
    outer loop
      vertex -25.691 -14.4122 -6
      vertex -20.25 -11.75 -6
      vertex -25.691 -15.5878 -6
    endloop
  endfacet
  facet normal 0 0 -1
    outer loop
      vertex -26.809 -14.0489 -6
      vertex -20.25 -11.75 -6
      vertex -25.691 -14.4122 -6
    endloop
  endfacet
  facet normal 0 0 -1
    outer loop
      vertex -26.809 -14.0489 -6
      vertex -32.75 -11.75 -6
      vertex -20.25 -11.75 -6
    endloop
  endfacet
  facet normal 0 0 -1
    outer loop
      vertex -32.75 -11.75 -6
      vertex -26.809 -14.0489 -6
      vertex -27.5 -15 -6
    endloop
  endfacet
  facet normal 0 -1 0
    outer loop
      vertex -35 -18.5 -6
      vertex -20 -18.5 0
      vertex -35 -18.5 0
    endloop
  endfacet
  facet normal 0 -1 0
    outer loop
      vertex 6 -18.5 -6
      vertex -20 -18.5 0
      vertex -35 -18.5 -6
    endloop
  endfacet
  facet normal 0 -1 0
    outer loop
      vertex -20 -18.5 0
      vertex -0.475529 -18.5 -0.654508
      vertex -0.951057 -18.5 -0.309016
    endloop
  endfacet
  facet normal 0 -1 0
    outer loop
      vertex -20 -18.5 0
      vertex -4.76837e-07 -18.5 -1
      vertex -0.475529 -18.5 -0.654508
    endloop
  endfacet
  facet normal 0 -1 0
    outer loop
      vertex -20 -18.5 6
      vertex -0.587786 -18.5 0.809016
      vertex 6 -18.5 6
    endloop
  endfacet
  facet normal 0 -1 0
    outer loop
      vertex -0.951057 -18.5 -0.309016
      vertex -20 -18.5 6
      vertex -20 -18.5 0
    endloop
  endfacet
  facet normal 0 -1 0
    outer loop
      vertex -20 -18.5 6
      vertex -0.951057 -18.5 -0.309016
      vertex -0.587786 -18.5 0.809016
    endloop
  endfacet
  facet normal 0 -1 0
    outer loop
      vertex 0.587785 -18.5 0.809016
      vertex 6 -18.5 6
      vertex -0.587786 -18.5 0.809016
    endloop
  endfacet
  facet normal 0 -1 0
    outer loop
      vertex 0.951056 -18.5 -0.309016
      vertex 6 -18.5 6
      vertex 0.587785 -18.5 0.809016
    endloop
  endfacet
  facet normal 0 -1 0
    outer loop
      vertex 0.951056 -18.5 -0.309016
      vertex 6 -18.5 -6
      vertex 6 -18.5 6
    endloop
  endfacet
  facet normal 0 -1 0
    outer loop
      vertex 0.475528 -18.5 -0.654508
      vertex 6 -18.5 -6
      vertex 0.951056 -18.5 -0.309016
    endloop
  endfacet
  facet normal 0 -1 0
    outer loop
      vertex -4.76837e-07 -18.5 -1
      vertex 6 -18.5 -6
      vertex 0.475528 -18.5 -0.654508
    endloop
  endfacet
  facet normal 0 -1 0
    outer loop
      vertex -20 -18.5 0
      vertex 6 -18.5 -6
      vertex -4.76837e-07 -18.5 -1
    endloop
  endfacet
  facet normal 0 1 0
    outer loop
      vertex -0.957262 18.5 3.88377
      vertex 6 18.5 6
      vertex 0.957262 18.5 3.88377
    endloop
  endfacet
  facet normal 0 1 0
    outer loop
      vertex 6 18.5 6
      vertex 2.65249 18.5 2.99404
      vertex 0.957262 18.5 3.88377
    endloop
  endfacet
  facet normal 0 1 0
    outer loop
      vertex 6 18.5 6
      vertex 3.74006 18.5 1.41842
      vertex 2.65249 18.5 2.99404
    endloop
  endfacet
  facet normal 0 1 0
    outer loop
      vertex 6 18.5 6
      vertex 3.97083 18.5 -0.482146
      vertex 3.74006 18.5 1.41842
    endloop
  endfacet
  facet normal 0 1 0
    outer loop
      vertex 1.85889 18.5 -3.54182
      vertex 6 18.5 -6
      vertex -9.10383e-16 18.5 -4
    endloop
  endfacet
  facet normal 0 1 0
    outer loop
      vertex 3.29193 18.5 -2.27226
      vertex 6 18.5 -6
      vertex 1.85889 18.5 -3.54182
    endloop
  endfacet
  facet normal 0 1 0
    outer loop
      vertex 3.97083 18.5 -0.482146
      vertex 6 18.5 -6
      vertex 3.29193 18.5 -2.27226
    endloop
  endfacet
  facet normal 0 1 -0
    outer loop
      vertex 6 18.5 -6
      vertex 3.97083 18.5 -0.482146
      vertex 6 18.5 6
    endloop
  endfacet
  facet normal 0 1 0
    outer loop
      vertex 6 18.5 6
      vertex -0.957262 18.5 3.88377
      vertex -20 18.5 6
    endloop
  endfacet
  facet normal 0 1 -0
    outer loop
      vertex -2.05566 18.5 3.30728
      vertex -20 18.5 6
      vertex -0.957262 18.5 3.88377
    endloop
  endfacet
  facet normal 0 1 -0
    outer loop
      vertex -16 18.5 2
      vertex -20 18.5 6
      vertex -2.05566 18.5 3.30728
    endloop
  endfacet
  facet normal 0 1 0
    outer loop
      vertex -16.8678 18.5 1.80193
      vertex -16 18.5 2
      vertex -16 18.5 1.80193
    endloop
  endfacet
  facet normal 0 1 0
    outer loop
      vertex -16 18.5 2
      vertex -16.8678 18.5 1.80193
      vertex -20 18.5 6
    endloop
  endfacet
  facet normal 0 1 0
    outer loop
      vertex -20 18.5 0
      vertex -16.8678 18.5 1.80193
      vertex -17.9498 18.5 0.445038
    endloop
  endfacet
  facet normal 0 1 0
    outer loop
      vertex -16.8678 18.5 1.80193
      vertex -20 18.5 0
      vertex -20 18.5 6
    endloop
  endfacet
  facet normal 0 1 0
    outer loop
      vertex -17.5637 18.5 -1.24698
      vertex -20 18.5 0
      vertex -17.9498 18.5 0.445038
    endloop
  endfacet
  facet normal 0 1 0
    outer loop
      vertex -35 18.5 -6
      vertex -20 18.5 0
      vertex -17.5637 18.5 -1.24698
    endloop
  endfacet
  facet normal 0 1 0
    outer loop
      vertex -35 18.5 -6
      vertex -17.5637 18.5 -1.24698
      vertex -16 18.5 -2
    endloop
  endfacet
  facet normal 0 1 0
    outer loop
      vertex -1.85889 18.5 -3.54182
      vertex -16 18.5 -2
      vertex -2.13168 18.5 -3.30015
    endloop
  endfacet
  facet normal 0 1 0
    outer loop
      vertex -35 18.5 -6
      vertex -16 18.5 -2
      vertex -1.85889 18.5 -3.54182
    endloop
  endfacet
  facet normal 0 1 0
    outer loop
      vertex -35 18.5 -6
      vertex -1.85889 18.5 -3.54182
      vertex -9.10383e-16 18.5 -4
    endloop
  endfacet
  facet normal 0 1 0
    outer loop
      vertex -35 18.5 -6
      vertex -9.10383e-16 18.5 -4
      vertex 6 18.5 -6
    endloop
  endfacet
  facet normal 0 1 0
    outer loop
      vertex -20 18.5 0
      vertex -35 18.5 -6
      vertex -35 18.5 0
    endloop
  endfacet
  facet normal 1 -0 0
    outer loop
      vertex -11.5 -14.5 6
      vertex -11.5 -14.3516 -6
      vertex -11.5 -14.3516 6
    endloop
  endfacet
  facet normal 1 0 0
    outer loop
      vertex -11.5 -14.3516 -6
      vertex -11.5 -14.5 6
      vertex -11.5 -14.5 -6
    endloop
  endfacet
  facet normal 1 -0 0
    outer loop
      vertex -11.5 14.3516 6
      vertex -11.5 14.5 -6
      vertex -11.5 14.5 6
    endloop
  endfacet
  facet normal 1 0 0
    outer loop
      vertex -11.5 14.5 -6
      vertex -11.5 14.3516 6
      vertex -11.5 14.3516 -6
    endloop
  endfacet
  facet normal 0 -1 0
    outer loop
      vertex -11.5 14.5 6
      vertex -0.957262 14.5 3.88377
      vertex 6 14.5 6
    endloop
  endfacet
  facet normal 0 -1 0
    outer loop
      vertex -11.5 14.5 6
      vertex -2.65249 14.5 2.99404
      vertex -0.957262 14.5 3.88377
    endloop
  endfacet
  facet normal 0 -1 0
    outer loop
      vertex -11.5 14.5 6
      vertex -3.74006 14.5 1.41842
      vertex -2.65249 14.5 2.99404
    endloop
  endfacet
  facet normal 0 -1 0
    outer loop
      vertex -11.5 14.5 6
      vertex -3.97083 14.5 -0.482146
      vertex -3.74006 14.5 1.41842
    endloop
  endfacet
  facet normal 0 -1 0
    outer loop
      vertex -11.5 14.5 -6
      vertex -3.97083 14.5 -0.482146
      vertex -11.5 14.5 6
    endloop
  endfacet
  facet normal 0 -1 -0
    outer loop
      vertex -1.85889 14.5 -3.54182
      vertex -11.5 14.5 -6
      vertex -1.79856e-15 14.5 -4
    endloop
  endfacet
  facet normal 0 -1 -0
    outer loop
      vertex -3.29193 14.5 -2.27226
      vertex -11.5 14.5 -6
      vertex -1.85889 14.5 -3.54182
    endloop
  endfacet
  facet normal 0 -1 -0
    outer loop
      vertex -3.97083 14.5 -0.482146
      vertex -11.5 14.5 -6
      vertex -3.29193 14.5 -2.27226
    endloop
  endfacet
  facet normal 0 -1 0
    outer loop
      vertex 0.957262 14.5 3.88377
      vertex 6 14.5 6
      vertex -0.957262 14.5 3.88377
    endloop
  endfacet
  facet normal 0 -1 0
    outer loop
      vertex 2.65249 14.5 2.99404
      vertex 6 14.5 6
      vertex 0.957262 14.5 3.88377
    endloop
  endfacet
  facet normal 0 -1 0
    outer loop
      vertex 3.74006 14.5 1.41842
      vertex 6 14.5 6
      vertex 2.65249 14.5 2.99404
    endloop
  endfacet
  facet normal 0 -1 0
    outer loop
      vertex 3.97083 14.5 -0.482146
      vertex 6 14.5 6
      vertex 3.74006 14.5 1.41842
    endloop
  endfacet
  facet normal 0 -1 0
    outer loop
      vertex 3.97083 14.5 -0.482146
      vertex 6 14.5 -6
      vertex 6 14.5 6
    endloop
  endfacet
  facet normal 0 -1 0
    outer loop
      vertex 3.29193 14.5 -2.27226
      vertex 6 14.5 -6
      vertex 3.97083 14.5 -0.482146
    endloop
  endfacet
  facet normal 0 -1 0
    outer loop
      vertex 1.85889 14.5 -3.54182
      vertex 6 14.5 -6
      vertex 3.29193 14.5 -2.27226
    endloop
  endfacet
  facet normal 0 -1 0
    outer loop
      vertex -1.79856e-15 14.5 -4
      vertex 6 14.5 -6
      vertex 1.85889 14.5 -3.54182
    endloop
  endfacet
  facet normal 0 -1 0
    outer loop
      vertex 6 14.5 -6
      vertex -1.79856e-15 14.5 -4
      vertex -11.5 14.5 -6
    endloop
  endfacet
  facet normal 0 1 0
    outer loop
      vertex -0.587786 -14.5 0.809016
      vertex 6 -14.5 6
      vertex 0.587785 -14.5 0.809016
    endloop
  endfacet
  facet normal 0 1 0
    outer loop
      vertex 6 -14.5 6
      vertex 0.951056 -14.5 -0.309016
      vertex 0.587785 -14.5 0.809016
    endloop
  endfacet
  facet normal 0 1 0
    outer loop
      vertex 0.285317 -14.5 -0.792705
      vertex 6 -14.5 -6
      vertex -2.86102e-07 -14.5 -1
    endloop
  endfacet
  facet normal 0 1 0
    outer loop
      vertex 0.951056 -14.5 -0.309016
      vertex 6 -14.5 -6
      vertex 0.285317 -14.5 -0.792705
    endloop
  endfacet
  facet normal 0 1 -0
    outer loop
      vertex 6 -14.5 -6
      vertex 0.951056 -14.5 -0.309016
      vertex 6 -14.5 6
    endloop
  endfacet
  facet normal 0 1 0
    outer loop
      vertex 6 -14.5 6
      vertex -0.587786 -14.5 0.809016
      vertex -11.5 -14.5 6
    endloop
  endfacet
  facet normal 0 1 -0
    outer loop
      vertex -0.951057 -14.5 -0.309016
      vertex -11.5 -14.5 6
      vertex -0.587786 -14.5 0.809016
    endloop
  endfacet
  facet normal 0 1 0
    outer loop
      vertex -11.5 -14.5 -6
      vertex -0.951057 -14.5 -0.309016
      vertex -0.66574 -14.5 -0.516311
    endloop
  endfacet
  facet normal 0 1 0
    outer loop
      vertex -11.5 -14.5 -6
      vertex -0.66574 -14.5 -0.516311
      vertex -2.86102e-07 -14.5 -1
    endloop
  endfacet
  facet normal 0 1 0
    outer loop
      vertex -11.5 -14.5 -6
      vertex -2.86102e-07 -14.5 -1
      vertex 6 -14.5 -6
    endloop
  endfacet
  facet normal 0 1 0
    outer loop
      vertex -0.951057 -14.5 -0.309016
      vertex -11.5 -14.5 -6
      vertex -11.5 -14.5 6
    endloop
  endfacet
  facet normal 1 -0 0
    outer loop
      vertex -16 -10.5 6
      vertex -16 10.5 -6
      vertex -16 10.5 6
    endloop
  endfacet
  facet normal 1 0 0
    outer loop
      vertex -16 10.5 -6
      vertex -16 -10.5 6
      vertex -16 -10.5 -6
    endloop
  endfacet
  facet normal 0.354605 0.935016 -0
    outer loop
      vertex -12.4821 -14.4708 -6
      vertex -14.2723 -13.7919 6
      vertex -12.4821 -14.4708 6
    endloop
  endfacet
  facet normal 0.354605 0.935016 0
    outer loop
      vertex -14.2723 -13.7919 6
      vertex -12.4821 -14.4708 -6
      vertex -14.2723 -13.7919 -6
    endloop
  endfacet
  facet normal 0.748511 0.663123 0
    outer loop
      vertex -14.2723 -13.7919 6
      vertex -15.5418 -12.3589 -6
      vertex -15.5418 -12.3589 6
    endloop
  endfacet
  facet normal 0.748511 0.663123 0
    outer loop
      vertex -15.5418 -12.3589 -6
      vertex -14.2723 -13.7919 6
      vertex -14.2723 -13.7919 -6
    endloop
  endfacet
  facet normal 0.970942 0.239316 0
    outer loop
      vertex -15.5418 -12.3589 6
      vertex -16 -10.5 -6
      vertex -16 -10.5 6
    endloop
  endfacet
  facet normal 0.970942 0.239316 0
    outer loop
      vertex -16 -10.5 -6
      vertex -15.5418 -12.3589 6
      vertex -15.5418 -12.3589 -6
    endloop
  endfacet
  facet normal -0.120537 0.992709 0
    outer loop
      vertex -11.5 -14.3516 -6
      vertex -12.4821 -14.4708 6
      vertex -11.5 -14.3516 6
    endloop
  endfacet
  facet normal -0.120537 0.992709 0
    outer loop
      vertex -12.4821 -14.4708 6
      vertex -11.5 -14.3516 -6
      vertex -12.4821 -14.4708 -6
    endloop
  endfacet
  facet normal 0.970942 -0.239316 0
    outer loop
      vertex -16 10.5 6
      vertex -15.5418 12.3589 -6
      vertex -15.5418 12.3589 6
    endloop
  endfacet
  facet normal 0.970942 -0.239316 0
    outer loop
      vertex -15.5418 12.3589 -6
      vertex -16 10.5 6
      vertex -16 10.5 -6
    endloop
  endfacet
  facet normal -0.120537 -0.992709 0
    outer loop
      vertex -12.4821 14.4708 -6
      vertex -11.5 14.3516 6
      vertex -12.4821 14.4708 6
    endloop
  endfacet
  facet normal -0.120537 -0.992709 -0
    outer loop
      vertex -11.5 14.3516 6
      vertex -12.4821 14.4708 -6
      vertex -11.5 14.3516 -6
    endloop
  endfacet
  facet normal 0.748511 -0.663123 0
    outer loop
      vertex -15.5418 12.3589 6
      vertex -14.2723 13.7919 -6
      vertex -14.2723 13.7919 6
    endloop
  endfacet
  facet normal 0.748511 -0.663123 0
    outer loop
      vertex -14.2723 13.7919 -6
      vertex -15.5418 12.3589 6
      vertex -15.5418 12.3589 -6
    endloop
  endfacet
  facet normal 0.354605 -0.935016 0
    outer loop
      vertex -14.2723 13.7919 -6
      vertex -12.4821 14.4708 6
      vertex -14.2723 13.7919 6
    endloop
  endfacet
  facet normal 0.354605 -0.935016 0
    outer loop
      vertex -12.4821 14.4708 6
      vertex -14.2723 13.7919 -6
      vertex -12.4821 14.4708 -6
    endloop
  endfacet
  facet normal 0.587786 -0 0.809017
    outer loop
      vertex -0.951057 -18.5 -0.309016
      vertex -0.66574 -14.5 -0.516311
      vertex -0.951057 -14.5 -0.309016
    endloop
  endfacet
  facet normal 0.587786 -2.41106e-09 0.809017
    outer loop
      vertex -0.66574 -14.5 -0.516311
      vertex -0.951057 -18.5 -0.309016
      vertex -0.475529 -18.5 -0.654508
    endloop
  endfacet
  facet normal 0.951056 0 -0.309018
    outer loop
      vertex -0.587786 -18.5 0.809016
      vertex -0.951057 -14.5 -0.309016
      vertex -0.587786 -14.5 0.809016
    endloop
  endfacet
  facet normal 0.951056 0 -0.309018
    outer loop
      vertex -0.951057 -14.5 -0.309016
      vertex -0.587786 -18.5 0.809016
      vertex -0.951057 -18.5 -0.309016
    endloop
  endfacet
  facet normal 0.587785 -2.80278e-08 0.809017
    outer loop
      vertex -2.86102e-07 -14.5 -1
      vertex -0.475529 -18.5 -0.654508
      vertex -4.76837e-07 -18.5 -1
    endloop
  endfacet
  facet normal 0.587785 -2.975e-08 0.809017
    outer loop
      vertex -0.475529 -18.5 -0.654508
      vertex -2.86102e-07 -14.5 -1
      vertex -0.66574 -14.5 -0.516311
    endloop
  endfacet
  facet normal 0 0 -1
    outer loop
      vertex -0.587786 -18.5 0.809016
      vertex 0.587785 -14.5 0.809016
      vertex 0.587785 -18.5 0.809016
    endloop
  endfacet
  facet normal -0 0 -1
    outer loop
      vertex 0.587785 -14.5 0.809016
      vertex -0.587786 -18.5 0.809016
      vertex -0.587786 -14.5 0.809016
    endloop
  endfacet
  facet normal -0.587785 2.80278e-08 0.809017
    outer loop
      vertex -4.76837e-07 -18.5 -1
      vertex 0.285317 -14.5 -0.792705
      vertex -2.86102e-07 -14.5 -1
    endloop
  endfacet
  facet normal -0.587785 3.04388e-08 0.809017
    outer loop
      vertex 0.285317 -14.5 -0.792705
      vertex -4.76837e-07 -18.5 -1
      vertex 0.475528 -18.5 -0.654508
    endloop
  endfacet
  facet normal -0.587786 0 0.809017
    outer loop
      vertex 0.951056 -14.5 -0.309016
      vertex 0.475528 -18.5 -0.654508
      vertex 0.951056 -18.5 -0.309016
    endloop
  endfacet
  facet normal -0.587786 1.72218e-09 0.809017
    outer loop
      vertex 0.475528 -18.5 -0.654508
      vertex 0.951056 -14.5 -0.309016
      vertex 0.285317 -14.5 -0.792705
    endloop
  endfacet
  facet normal -0.951056 0 -0.309018
    outer loop
      vertex 0.951056 -18.5 -0.309016
      vertex 0.587785 -14.5 0.809016
      vertex 0.951056 -14.5 -0.309016
    endloop
  endfacet
  facet normal -0.951056 -0 -0.309018
    outer loop
      vertex 0.587785 -14.5 0.809016
      vertex 0.951056 -18.5 -0.309016
      vertex 0.587785 -18.5 0.809016
    endloop
  endfacet
  facet normal 0.809017 -0.587785 0
    outer loop
      vertex -27.5 -15 0
      vertex -26.809 -14.0489 -6
      vertex -26.809 -14.0489 0
    endloop
  endfacet
  facet normal 0.809017 -0.587785 0
    outer loop
      vertex -26.809 -14.0489 -6
      vertex -27.5 -15 0
      vertex -27.5 -15 -6
    endloop
  endfacet
  facet normal -1 0 0
    outer loop
      vertex -25.691 -15.5878 -6
      vertex -25.691 -14.4122 0
      vertex -25.691 -14.4122 -6
    endloop
  endfacet
  facet normal -1 -0 0
    outer loop
      vertex -25.691 -14.4122 0
      vertex -25.691 -15.5878 -6
      vertex -25.691 -15.5878 0
    endloop
  endfacet
  facet normal -0.309017 -0.951056 0
    outer loop
      vertex -26.809 -14.0489 -6
      vertex -25.691 -14.4122 0
      vertex -26.809 -14.0489 0
    endloop
  endfacet
  facet normal -0.309017 -0.951056 -0
    outer loop
      vertex -25.691 -14.4122 0
      vertex -26.809 -14.0489 -6
      vertex -25.691 -14.4122 -6
    endloop
  endfacet
  facet normal -0.309017 0.951056 0
    outer loop
      vertex -25.691 -15.5878 -6
      vertex -26.809 -15.9511 0
      vertex -25.691 -15.5878 0
    endloop
  endfacet
  facet normal -0.309017 0.951056 0
    outer loop
      vertex -26.809 -15.9511 0
      vertex -25.691 -15.5878 -6
      vertex -26.809 -15.9511 -6
    endloop
  endfacet
  facet normal 0.809017 0.587785 0
    outer loop
      vertex -26.809 -15.9511 0
      vertex -27.5 -15 -6
      vertex -27.5 -15 0
    endloop
  endfacet
  facet normal 0.809017 0.587785 0
    outer loop
      vertex -27.5 -15 -6
      vertex -26.809 -15.9511 0
      vertex -26.809 -15.9511 -6
    endloop
  endfacet
  facet normal 0.809017 -0.587785 0
    outer loop
      vertex -27.5 15 0
      vertex -26.809 15.9511 -6
      vertex -26.809 15.9511 0
    endloop
  endfacet
  facet normal 0.809017 -0.587785 0
    outer loop
      vertex -26.809 15.9511 -6
      vertex -27.5 15 0
      vertex -27.5 15 -6
    endloop
  endfacet
  facet normal -1 0 0
    outer loop
      vertex -25.691 14.4122 -6
      vertex -25.691 15.5878 0
      vertex -25.691 15.5878 -6
    endloop
  endfacet
  facet normal -1 -0 0
    outer loop
      vertex -25.691 15.5878 0
      vertex -25.691 14.4122 -6
      vertex -25.691 14.4122 0
    endloop
  endfacet
  facet normal -0.309017 -0.951056 0
    outer loop
      vertex -26.809 15.9511 -6
      vertex -25.691 15.5878 0
      vertex -26.809 15.9511 0
    endloop
  endfacet
  facet normal -0.309017 -0.951056 -0
    outer loop
      vertex -25.691 15.5878 0
      vertex -26.809 15.9511 -6
      vertex -25.691 15.5878 -6
    endloop
  endfacet
  facet normal -0.309017 0.951056 0
    outer loop
      vertex -25.691 14.4122 -6
      vertex -26.809 14.0489 0
      vertex -25.691 14.4122 0
    endloop
  endfacet
  facet normal -0.309017 0.951056 0
    outer loop
      vertex -26.809 14.0489 0
      vertex -25.691 14.4122 -6
      vertex -26.809 14.0489 -6
    endloop
  endfacet
  facet normal 0.809017 0.587785 0
    outer loop
      vertex -26.809 14.0489 0
      vertex -27.5 15 -6
      vertex -27.5 15 0
    endloop
  endfacet
  facet normal 0.809017 0.587785 0
    outer loop
      vertex -27.5 15 -6
      vertex -26.809 14.0489 0
      vertex -26.809 14.0489 -6
    endloop
  endfacet
  facet normal 0 0 1
    outer loop
      vertex -20.25 -11.75 0
      vertex -26.809 -14.0489 0
      vertex -25.691 -14.4122 0
    endloop
  endfacet
  facet normal 0 0 1
    outer loop
      vertex -26.809 -14.0489 0
      vertex -32.75 -11.75 0
      vertex -27.5 -15 0
    endloop
  endfacet
  facet normal -0 0 1
    outer loop
      vertex -32.75 -11.75 0
      vertex -26.809 -14.0489 0
      vertex -20.25 -11.75 0
    endloop
  endfacet
  facet normal 0 0 1
    outer loop
      vertex -20 18.5 0
      vertex -20.25 11.75 0
      vertex -20 -18.5 0
    endloop
  endfacet
  facet normal 0 0 1
    outer loop
      vertex -20 18.5 0
      vertex -25.691 15.5878 0
      vertex -20.25 11.75 0
    endloop
  endfacet
  facet normal 0 0 1
    outer loop
      vertex -20 18.5 0
      vertex -26.809 15.9511 0
      vertex -25.691 15.5878 0
    endloop
  endfacet
  facet normal 0 0 1
    outer loop
      vertex -35 18.5 0
      vertex -27.5 15 0
      vertex -26.809 15.9511 0
    endloop
  endfacet
  facet normal 0 0 1
    outer loop
      vertex -32.75 11.75 0
      vertex -35 18.5 0
      vertex -32.75 -11.75 0
    endloop
  endfacet
  facet normal 0 0 1
    outer loop
      vertex -27.5 15 0
      vertex -35 18.5 0
      vertex -32.75 11.75 0
    endloop
  endfacet
  facet normal -0 0 1
    outer loop
      vertex -35 18.5 0
      vertex -26.809 15.9511 0
      vertex -20 18.5 0
    endloop
  endfacet
  facet normal -0 0 1
    outer loop
      vertex -20.25 -11.75 0
      vertex -20 -18.5 0
      vertex -20.25 11.75 0
    endloop
  endfacet
  facet normal 0 0 1
    outer loop
      vertex -25.691 -15.5878 0
      vertex -20.25 -11.75 0
      vertex -25.691 -14.4122 0
    endloop
  endfacet
  facet normal 0 0 1
    outer loop
      vertex -20.25 -11.75 0
      vertex -25.691 -15.5878 0
      vertex -20 -18.5 0
    endloop
  endfacet
  facet normal -0 0 1
    outer loop
      vertex -26.809 -15.9511 0
      vertex -20 -18.5 0
      vertex -25.691 -15.5878 0
    endloop
  endfacet
  facet normal 0 0 1
    outer loop
      vertex -35 -18.5 0
      vertex -27.5 -15 0
      vertex -32.75 -11.75 0
    endloop
  endfacet
  facet normal 0 0 1
    outer loop
      vertex -26.809 -15.9511 0
      vertex -35 -18.5 0
      vertex -20 -18.5 0
    endloop
  endfacet
  facet normal 0 0 1
    outer loop
      vertex -27.5 -15 0
      vertex -35 -18.5 0
      vertex -26.809 -15.9511 0
    endloop
  endfacet
  facet normal 0 0 1
    outer loop
      vertex -35 -18.5 0
      vertex -32.75 -11.75 0
      vertex -35 18.5 0
    endloop
  endfacet
  facet normal -0 0 1
    outer loop
      vertex -25.691 14.4122 0
      vertex -20.25 11.75 0
      vertex -25.691 15.5878 0
    endloop
  endfacet
  facet normal -0 0 1
    outer loop
      vertex -26.809 14.0489 0
      vertex -20.25 11.75 0
      vertex -25.691 14.4122 0
    endloop
  endfacet
  facet normal 0 0 1
    outer loop
      vertex -26.809 14.0489 0
      vertex -32.75 11.75 0
      vertex -20.25 11.75 0
    endloop
  endfacet
  facet normal 0 0 1
    outer loop
      vertex -32.75 11.75 0
      vertex -26.809 14.0489 0
      vertex -27.5 15 0
    endloop
  endfacet
  facet normal -1 0 0
    outer loop
      vertex -35 -18.5 -6
      vertex -35 18.5 0
      vertex -35 18.5 -6
    endloop
  endfacet
  facet normal -1 -0 0
    outer loop
      vertex -35 18.5 0
      vertex -35 -18.5 -6
      vertex -35 -18.5 0
    endloop
  endfacet
  facet normal -1 0 0
    outer loop
      vertex -20.25 -11.75 -6
      vertex -20.25 11.75 0
      vertex -20.25 11.75 -6
    endloop
  endfacet
  facet normal -1 -0 0
    outer loop
      vertex -20.25 11.75 0
      vertex -20.25 -11.75 -6
      vertex -20.25 -11.75 0
    endloop
  endfacet
  facet normal 1 -0 0
    outer loop
      vertex -32.75 -11.75 0
      vertex -32.75 11.75 -6
      vertex -32.75 11.75 0
    endloop
  endfacet
  facet normal 1 0 0
    outer loop
      vertex -32.75 11.75 -6
      vertex -32.75 -11.75 0
      vertex -32.75 -11.75 -6
    endloop
  endfacet
  facet normal 0 1 -0
    outer loop
      vertex -20.25 -11.75 -6
      vertex -32.75 -11.75 0
      vertex -20.25 -11.75 0
    endloop
  endfacet
  facet normal 0 1 0
    outer loop
      vertex -32.75 -11.75 0
      vertex -20.25 -11.75 -6
      vertex -32.75 -11.75 -6
    endloop
  endfacet
  facet normal 0 -1 0
    outer loop
      vertex -32.75 11.75 -6
      vertex -20.25 11.75 0
      vertex -32.75 11.75 0
    endloop
  endfacet
  facet normal 0 -1 -0
    outer loop
      vertex -20.25 11.75 0
      vertex -32.75 11.75 -6
      vertex -20.25 11.75 -6
    endloop
  endfacet
endsolid OpenSCAD_Model
