solid OpenSCAD_Model
  facet normal 0.986361 0.164594 0
    outer loop
      vertex 46 0 4
      vertex 45.6749 1.9482 0
      vertex 45.6749 1.9482 4
    endloop
  endfacet
  facet normal 0.986361 0.164594 0
    outer loop
      vertex 45.6749 1.9482 0
      vertex 46 0 4
      vertex 46 0 0
    endloop
  endfacet
  facet normal 0.247638 0.968853 -0
    outer loop
      vertex 41.4729 5.8164 0
      vertex 13.4821 12.9708 4
      vertex 41.4729 5.8164 4
    endloop
  endfacet
  facet normal 0.247638 0.968853 0
    outer loop
      vertex 13.4821 12.9708 4
      vertex 41.4729 5.8164 0
      vertex 13.4821 12.9708 0
    endloop
  endfacet
  facet normal -0.245486 -0.9694 0
    outer loop
      vertex 37.5898 -5.49464 0
      vertex 39.5045 -5.97951 4
      vertex 37.5898 -5.49464 4
    endloop
  endfacet
  facet normal -0.245486 -0.9694 -0
    outer loop
      vertex 39.5045 -5.97951 4
      vertex 37.5898 -5.49464 0
      vertex 39.5045 -5.97951 0
    endloop
  endfacet
  facet normal 0.401695 0.915773 -0
    outer loop
      vertex 43.2817 5.023 0
      vertex 41.4729 5.8164 4
      vertex 43.2817 5.023 4
    endloop
  endfacet
  facet normal 0.401695 0.915773 0
    outer loop
      vertex 41.4729 5.8164 4
      vertex 43.2817 5.023 0
      vertex 41.4729 5.8164 0
    endloop
  endfacet
  facet normal -0.120536 0.992709 0
    outer loop
      vertex 13.4821 12.9708 0
      vertex 11.5816 12.7401 4
      vertex 13.4821 12.9708 4
    endloop
  endfacet
  facet normal -0.120536 0.992709 0
    outer loop
      vertex 11.5816 12.7401 4
      vertex 13.4821 12.9708 0
      vertex 11.5816 12.7401 0
    endloop
  endfacet
  facet normal 0.0825792 -0.996585 0
    outer loop
      vertex 39.5045 -5.97951 0
      vertex 41.4729 -5.8164 4
      vertex 39.5045 -5.97951 4
    endloop
  endfacet
  facet normal 0.0825792 -0.996585 0
    outer loop
      vertex 41.4729 -5.8164 4
      vertex 39.5045 -5.97951 0
      vertex 41.4729 -5.8164 0
    endloop
  endfacet
  facet normal 0.401695 -0.915773 0
    outer loop
      vertex 41.4729 -5.8164 0
      vertex 43.2817 -5.023 4
      vertex 41.4729 -5.8164 4
    endloop
  endfacet
  facet normal 0.401695 -0.915773 0
    outer loop
      vertex 43.2817 -5.023 4
      vertex 41.4729 -5.8164 0
      vertex 43.2817 -5.023 0
    endloop
  endfacet
  facet normal -0.382125 -0.92411 0
    outer loop
      vertex 13.7634 4.35773 0
      vertex 37.5898 -5.49464 4
      vertex 13.7634 4.35773 4
    endloop
  endfacet
  facet normal -0.382125 -0.92411 -0
    outer loop
      vertex 37.5898 -5.49464 4
      vertex 13.7634 4.35773 0
      vertex 37.5898 -5.49464 0
    endloop
  endfacet
  facet normal 0 0 -1
    outer loop
      vertex 2.97617 2.67253 0
      vertex 13.7634 4.35773 0
      vertex 3.87725 0.983312 0
    endloop
  endfacet
  facet normal -0 0 -1
    outer loop
      vertex 13.7634 4.35773 0
      vertex 2.97617 2.67253 0
      vertex 11.5816 12.7401 0
    endloop
  endfacet
  facet normal 0 0 -1
    outer loop
      vertex 1.39328 3.7495 0
      vertex 11.5816 12.7401 0
      vertex 2.97617 2.67253 0
    endloop
  endfacet
  facet normal 0 0 -1
    outer loop
      vertex -2.41017 5.49464 0
      vertex 1.39328 3.7495 0
      vertex -0.508791 3.96751 0
    endloop
  endfacet
  facet normal 0 0 -1
    outer loop
      vertex -2.41017 5.49464 0
      vertex -0.508791 3.96751 0
      vertex -2.29431 3.27661 0
    endloop
  endfacet
  facet normal 0 0 -1
    outer loop
      vertex 1.39328 3.7495 0
      vertex -2.41017 5.49464 0
      vertex 11.5816 12.7401 0
    endloop
  endfacet
  facet normal 0 0 -1
    outer loop
      vertex -4.06369 4.41434 0
      vertex -2.29431 3.27661 0
      vertex -3.55422 1.83508 0
    endloop
  endfacet
  facet normal 0 0 -1
    outer loop
      vertex -2.29431 3.27661 0
      vertex -4.06369 4.41434 0
      vertex -2.41017 5.49464 0
    endloop
  endfacet
  facet normal 0 0 -1
    outer loop
      vertex -5.91817 0.987567 0
      vertex -3.55422 1.83508 0
      vertex -3.99991 -0.0268509 0
    endloop
  endfacet
  facet normal 0 0 -1
    outer loop
      vertex -5.91817 -0.987567 0
      vertex -3.52927 -1.88263 0
      vertex -5.27684 -2.85568 0
    endloop
  endfacet
  facet normal 0 0 -1
    outer loop
      vertex -3.52927 -1.88263 0
      vertex -5.91817 -0.987567 0
      vertex -3.99991 -0.0268509 0
    endloop
  endfacet
  facet normal 0 0 -1
    outer loop
      vertex -3.55422 1.83508 0
      vertex -5.27684 2.85568 0
      vertex -4.06369 4.41434 0
    endloop
  endfacet
  facet normal 0 0 -1
    outer loop
      vertex -5.91817 0.987567 0
      vertex -3.99991 -0.0268509 0
      vertex -5.91817 -0.987567 0
    endloop
  endfacet
  facet normal -0 0 -1
    outer loop
      vertex -3.55422 1.83508 0
      vertex -5.91817 0.987567 0
      vertex -5.27684 2.85568 0
    endloop
  endfacet
  facet normal 0 0 -1
    outer loop
      vertex 43.9981 0.123495 0
      vertex 46 0 0
      vertex 45.6749 -1.9482 0
    endloop
  endfacet
  facet normal 0 0 -1
    outer loop
      vertex 43.5975 -1.74866 0
      vertex 45.6749 -1.9482 0
      vertex 44.7348 -3.68528 0
    endloop
  endfacet
  facet normal 0 0 -1
    outer loop
      vertex 46 0 0
      vertex 43.9981 0.123495 0
      vertex 45.6749 1.9482 0
    endloop
  endfacet
  facet normal 0 0 -1
    outer loop
      vertex 43.4827 1.96736 0
      vertex 45.6749 1.9482 0
      vertex 43.9981 0.123495 0
    endloop
  endfacet
  facet normal 0 0 -1
    outer loop
      vertex 45.6749 -1.9482 0
      vertex 43.5975 -1.74866 0
      vertex 43.9981 0.123495 0
    endloop
  endfacet
  facet normal 0 0 -1
    outer loop
      vertex 42.3728 -3.22021 0
      vertex 44.7348 -3.68528 0
      vertex 43.2817 -5.023 0
    endloop
  endfacet
  facet normal 0 0 -1
    outer loop
      vertex 44.7348 -3.68528 0
      vertex 42.3728 -3.22021 0
      vertex 43.5975 -1.74866 0
    endloop
  endfacet
  facet normal 0 0 -1
    outer loop
      vertex 41.4729 -5.8164 0
      vertex 42.3728 -3.22021 0
      vertex 43.2817 -5.023 0
    endloop
  endfacet
  facet normal 0 0 -1
    outer loop
      vertex 41.4729 -5.8164 0
      vertex 40.6045 -3.95406 0
      vertex 42.3728 -3.22021 0
    endloop
  endfacet
  facet normal 0 0 -1
    outer loop
      vertex 39.5045 -5.97951 0
      vertex 40.6045 -3.95406 0
      vertex 41.4729 -5.8164 0
    endloop
  endfacet
  facet normal 0 0 -1
    outer loop
      vertex 39.5045 -5.97951 0
      vertex 38.6977 -3.78207 0
      vertex 40.6045 -3.95406 0
    endloop
  endfacet
  facet normal 0 0 -1
    outer loop
      vertex 37.5898 -5.49464 0
      vertex 38.6977 -3.78207 0
      vertex 39.5045 -5.97951 0
    endloop
  endfacet
  facet normal 0 0 -1
    outer loop
      vertex 37.5898 -5.49464 0
      vertex 37.0893 -2.74366 0
      vertex 38.6977 -3.78207 0
    endloop
  endfacet
  facet normal 0 0 -1
    outer loop
      vertex 37.5898 -5.49464 0
      vertex 36.1476 -1.07671 0
      vertex 37.0893 -2.74366 0
    endloop
  endfacet
  facet normal 0 0 -1
    outer loop
      vertex 36.1476 -1.07671 0
      vertex 13.7634 4.35773 0
      vertex 36.0885 0.836899 0
    endloop
  endfacet
  facet normal 0 0 -1
    outer loop
      vertex 13.7634 4.35773 0
      vertex 36.1476 -1.07671 0
      vertex 37.5898 -5.49464 0
    endloop
  endfacet
  facet normal 0 0 -1
    outer loop
      vertex 45.6749 1.9482 0
      vertex 43.4827 1.96736 0
      vertex 44.7348 3.68528 0
    endloop
  endfacet
  facet normal 0 0 -1
    outer loop
      vertex 42.1695 3.36052 0
      vertex 44.7348 3.68528 0
      vertex 43.4827 1.96736 0
    endloop
  endfacet
  facet normal -0 0 -1
    outer loop
      vertex 44.7348 3.68528 0
      vertex 42.1695 3.36052 0
      vertex 43.2817 5.023 0
    endloop
  endfacet
  facet normal 0 0 -1
    outer loop
      vertex 42.1695 3.36052 0
      vertex 41.4729 5.8164 0
      vertex 43.2817 5.023 0
    endloop
  endfacet
  facet normal 0 0 -1
    outer loop
      vertex 40.3593 3.98383 0
      vertex 41.4729 5.8164 0
      vertex 42.1695 3.36052 0
    endloop
  endfacet
  facet normal 0 0 -1
    outer loop
      vertex 38.4668 3.69449 0
      vertex 41.4729 5.8164 0
      vertex 40.3593 3.98383 0
    endloop
  endfacet
  facet normal 0 0 -1
    outer loop
      vertex 13.7634 4.35773 0
      vertex 36.9255 2.55879 0
      vertex 36.0885 0.836899 0
    endloop
  endfacet
  facet normal 0 0 -1
    outer loop
      vertex 13.4821 12.9708 0
      vertex 36.9255 2.55879 0
      vertex 13.7634 4.35773 0
    endloop
  endfacet
  facet normal 0 0 -1
    outer loop
      vertex 36.9255 2.55879 0
      vertex 13.4821 12.9708 0
      vertex 38.4668 3.69449 0
    endloop
  endfacet
  facet normal 0 0 -1
    outer loop
      vertex 38.4668 3.69449 0
      vertex 13.4821 12.9708 0
      vertex 41.4729 5.8164 0
    endloop
  endfacet
  facet normal 0 0 -1
    outer loop
      vertex 13.7634 4.35773 0
      vertex 11.5816 12.7401 0
      vertex 13.4821 12.9708 0
    endloop
  endfacet
  facet normal 0 0 -1
    outer loop
      vertex 3.87725 0.983312 0
      vertex 13.7634 4.35773 0
      vertex 3.89011 -0.93117 0
    endloop
  endfacet
  facet normal 0 0 -1
    outer loop
      vertex 3.28169 -5.023 0
      vertex 3.89011 -0.93117 0
      vertex 13.7634 4.35773 0
    endloop
  endfacet
  facet normal 0 0 -1
    outer loop
      vertex 3.28169 -5.023 0
      vertex 3.01178 -2.63233 0
      vertex 3.89011 -0.93117 0
    endloop
  endfacet
  facet normal 0 0 -1
    outer loop
      vertex 1.44349 -3.73046 0
      vertex 3.28169 -5.023 0
      vertex 1.47291 -5.8164 0
    endloop
  endfacet
  facet normal 0 0 -1
    outer loop
      vertex 3.28169 -5.023 0
      vertex 1.44349 -3.73046 0
      vertex 3.01178 -2.63233 0
    endloop
  endfacet
  facet normal 0 0 -1
    outer loop
      vertex 1.47291 -5.8164 0
      vertex -0.455481 -3.97398 0
      vertex 1.44349 -3.73046 0
    endloop
  endfacet
  facet normal 0 0 -1
    outer loop
      vertex -0.495476 -5.97951 0
      vertex -0.455481 -3.97398 0
      vertex 1.47291 -5.8164 0
    endloop
  endfacet
  facet normal 0 0 -1
    outer loop
      vertex -2.41017 -5.49464 0
      vertex -0.455481 -3.97398 0
      vertex -0.495476 -5.97951 0
    endloop
  endfacet
  facet normal -0 0 -1
    outer loop
      vertex -0.455481 -3.97398 0
      vertex -2.41017 -5.49464 0
      vertex -2.25011 -3.30711 0
    endloop
  endfacet
  facet normal 0 0 -1
    outer loop
      vertex -4.06369 -4.41434 0
      vertex -2.25011 -3.30711 0
      vertex -2.41017 -5.49464 0
    endloop
  endfacet
  facet normal 0 0 -1
    outer loop
      vertex -5.27684 -2.85568 0
      vertex -3.52927 -1.88263 0
      vertex -4.06369 -4.41434 0
    endloop
  endfacet
  facet normal -0 0 -1
    outer loop
      vertex -2.25011 -3.30711 0
      vertex -4.06369 -4.41434 0
      vertex -3.52927 -1.88263 0
    endloop
  endfacet
  facet normal 0.677282 0.735723 -0
    outer loop
      vertex 44.7348 3.68528 0
      vertex 43.2817 5.023 4
      vertex 44.7348 3.68528 4
    endloop
  endfacet
  facet normal 0.677282 0.735723 0
    outer loop
      vertex 43.2817 5.023 4
      vertex 44.7348 3.68528 0
      vertex 43.2817 5.023 0
    endloop
  endfacet
  facet normal 0 0 1
    outer loop
      vertex 14.8508 8.1989 4
      vertex 14.14 7.70117 4
      vertex 14.2536 7.53892 4
    endloop
  endfacet
  facet normal -0 0 1
    outer loop
      vertex 43.9981 0.123495 4
      vertex 46 0 4
      vertex 45.6749 1.9482 4
    endloop
  endfacet
  facet normal -0 0 1
    outer loop
      vertex 43.4827 1.96736 4
      vertex 45.6749 1.9482 4
      vertex 44.7348 3.68528 4
    endloop
  endfacet
  facet normal 0 0 1
    outer loop
      vertex 46 0 4
      vertex 43.9981 0.123495 4
      vertex 45.6749 -1.9482 4
    endloop
  endfacet
  facet normal -0 0 1
    outer loop
      vertex 43.5975 -1.74866 4
      vertex 45.6749 -1.9482 4
      vertex 43.9981 0.123495 4
    endloop
  endfacet
  facet normal 0 0 1
    outer loop
      vertex 45.6749 1.9482 4
      vertex 43.4827 1.96736 4
      vertex 43.9981 0.123495 4
    endloop
  endfacet
  facet normal 0 0 1
    outer loop
      vertex 42.1695 3.36052 4
      vertex 44.7348 3.68528 4
      vertex 43.2817 5.023 4
    endloop
  endfacet
  facet normal 0 0 1
    outer loop
      vertex 44.7348 3.68528 4
      vertex 42.1695 3.36052 4
      vertex 43.4827 1.96736 4
    endloop
  endfacet
  facet normal 0 0 1
    outer loop
      vertex 41.4729 5.8164 4
      vertex 42.1695 3.36052 4
      vertex 43.2817 5.023 4
    endloop
  endfacet
  facet normal 0 0 1
    outer loop
      vertex 41.4729 5.8164 4
      vertex 40.3593 3.98383 4
      vertex 42.1695 3.36052 4
    endloop
  endfacet
  facet normal 0 0 1
    outer loop
      vertex 41.4729 5.8164 4
      vertex 39.1331 3.79635 4
      vertex 40.3593 3.98383 4
    endloop
  endfacet
  facet normal 0 0 1
    outer loop
      vertex 41.4729 5.8164 4
      vertex 25.5228 7.10013 4
      vertex 39.1331 3.79635 4
    endloop
  endfacet
  facet normal 0 0 1
    outer loop
      vertex 25.5228 7.10013 4
      vertex 24.6379 7.19536 4
      vertex 25.4584 6.91284 4
    endloop
  endfacet
  facet normal 0 0 1
    outer loop
      vertex 13.4821 12.9708 4
      vertex 25.5228 7.10013 4
      vertex 41.4729 5.8164 4
    endloop
  endfacet
  facet normal -0 0 1
    outer loop
      vertex 14.8508 8.1989 4
      vertex 23.173 6.26469 4
      vertex 14.9589 9.93105 4
    endloop
  endfacet
  facet normal 0 0 1
    outer loop
      vertex 24.6379 7.19536 4
      vertex 14.9589 9.93105 4
      vertex 23.173 6.26469 4
    endloop
  endfacet
  facet normal 0 0 1
    outer loop
      vertex 25.5228 7.10013 4
      vertex 13.4821 12.9708 4
      vertex 24.6379 7.19536 4
    endloop
  endfacet
  facet normal 0 0 1
    outer loop
      vertex 24.6379 7.19536 4
      vertex 13.4821 12.9708 4
      vertex 14.9589 9.93105 4
    endloop
  endfacet
  facet normal 0 0 1
    outer loop
      vertex 14.9589 9.93105 4
      vertex 13.4821 12.9708 4
      vertex 13.6721 11.0956 4
    endloop
  endfacet
  facet normal 0 0 1
    outer loop
      vertex 13.4821 12.9708 4
      vertex 11.9593 10.8155 4
      vertex 13.6721 11.0956 4
    endloop
  endfacet
  facet normal -0 0 1
    outer loop
      vertex 11.5816 12.7401 4
      vertex 11.9593 10.8155 4
      vertex 13.4821 12.9708 4
    endloop
  endfacet
  facet normal 0 0 1
    outer loop
      vertex 11.5816 12.7401 4
      vertex -0.146721 3.92601 4
      vertex 11.9593 10.8155 4
    endloop
  endfacet
  facet normal -0 0 1
    outer loop
      vertex -2.41017 5.49464 4
      vertex -0.146721 3.92601 4
      vertex 11.5816 12.7401 4
    endloop
  endfacet
  facet normal 0 0 1
    outer loop
      vertex -0.146721 3.92601 4
      vertex -2.41017 5.49464 4
      vertex -0.508791 3.96751 4
    endloop
  endfacet
  facet normal 0 0 1
    outer loop
      vertex -0.508791 3.96751 4
      vertex -2.41017 5.49464 4
      vertex -2.29431 3.27661 4
    endloop
  endfacet
  facet normal -0 0 1
    outer loop
      vertex -4.06369 4.41434 4
      vertex -2.29431 3.27661 4
      vertex -2.41017 5.49464 4
    endloop
  endfacet
  facet normal -0 0 1
    outer loop
      vertex -5.27684 2.85568 4
      vertex -3.55422 1.83508 4
      vertex -4.06369 4.41434 4
    endloop
  endfacet
  facet normal 0 0 1
    outer loop
      vertex -2.29431 3.27661 4
      vertex -4.06369 4.41434 4
      vertex -3.55422 1.83508 4
    endloop
  endfacet
  facet normal 0 0 1
    outer loop
      vertex 45.6749 -1.9482 4
      vertex 43.5975 -1.74866 4
      vertex 44.7348 -3.68528 4
    endloop
  endfacet
  facet normal -0 0 1
    outer loop
      vertex 42.3728 -3.22021 4
      vertex 44.7348 -3.68528 4
      vertex 43.5975 -1.74866 4
    endloop
  endfacet
  facet normal 0 0 1
    outer loop
      vertex 44.7348 -3.68528 4
      vertex 42.3728 -3.22021 4
      vertex 43.2817 -5.023 4
    endloop
  endfacet
  facet normal 0 0 1
    outer loop
      vertex 42.3728 -3.22021 4
      vertex 41.4729 -5.8164 4
      vertex 43.2817 -5.023 4
    endloop
  endfacet
  facet normal -0 0 1
    outer loop
      vertex 40.6045 -3.95406 4
      vertex 41.4729 -5.8164 4
      vertex 42.3728 -3.22021 4
    endloop
  endfacet
  facet normal 0 0 1
    outer loop
      vertex 40.6045 -3.95406 4
      vertex 39.5045 -5.97951 4
      vertex 41.4729 -5.8164 4
    endloop
  endfacet
  facet normal 0 0 1
    outer loop
      vertex 38.6977 -3.78207 4
      vertex 39.5045 -5.97951 4
      vertex 40.6045 -3.95406 4
    endloop
  endfacet
  facet normal 0 0 1
    outer loop
      vertex 38.6977 -3.78207 4
      vertex 37.5898 -5.49464 4
      vertex 39.5045 -5.97951 4
    endloop
  endfacet
  facet normal 0 0 1
    outer loop
      vertex 37.0893 -2.74366 4
      vertex 37.5898 -5.49464 4
      vertex 38.6977 -3.78207 4
    endloop
  endfacet
  facet normal 0 0 1
    outer loop
      vertex 36.91 -2.42635 4
      vertex 37.5898 -5.49464 4
      vertex 37.0893 -2.74366 4
    endloop
  endfacet
  facet normal 0 0 1
    outer loop
      vertex 24.2206 3.31805 4
      vertex 37.5898 -5.49464 4
      vertex 36.91 -2.42635 4
    endloop
  endfacet
  facet normal 0 0 1
    outer loop
      vertex 23.173 6.26469 4
      vertex 14.8508 8.1989 4
      vertex 22.9873 4.53913 4
    endloop
  endfacet
  facet normal 0 0 1
    outer loop
      vertex 13.7634 4.35773 4
      vertex 22.9873 4.53913 4
      vertex 14.8508 8.1989 4
    endloop
  endfacet
  facet normal 0 0 1
    outer loop
      vertex 22.9873 4.53913 4
      vertex 13.7634 4.35773 4
      vertex 24.2206 3.31805 4
    endloop
  endfacet
  facet normal 0 0 1
    outer loop
      vertex 13.7634 4.35773 4
      vertex 14.8508 8.1989 4
      vertex 14.2536 7.53892 4
    endloop
  endfacet
  facet normal 0 0 1
    outer loop
      vertex 24.2206 3.31805 4
      vertex 13.7634 4.35773 4
      vertex 37.5898 -5.49464 4
    endloop
  endfacet
  facet normal 0 0 1
    outer loop
      vertex 3.58088 -1.53009 4
      vertex 13.7634 4.35773 4
      vertex 14.2536 7.53892 4
    endloop
  endfacet
  facet normal -0 0 1
    outer loop
      vertex 3.58088 -1.53009 4
      vertex 3.28169 -5.023 4
      vertex 13.7634 4.35773 4
    endloop
  endfacet
  facet normal -0 0 1
    outer loop
      vertex 3.01178 -2.63233 4
      vertex 3.28169 -5.023 4
      vertex 3.58088 -1.53009 4
    endloop
  endfacet
  facet normal -0 0 1
    outer loop
      vertex 1.44349 -3.73046 4
      vertex 3.28169 -5.023 4
      vertex 3.01178 -2.63233 4
    endloop
  endfacet
  facet normal 0 0 1
    outer loop
      vertex 3.28169 -5.023 4
      vertex 1.44349 -3.73046 4
      vertex 1.47291 -5.8164 4
    endloop
  endfacet
  facet normal -0 0 1
    outer loop
      vertex -0.455481 -3.97398 4
      vertex 1.47291 -5.8164 4
      vertex 1.44349 -3.73046 4
    endloop
  endfacet
  facet normal 0 0 1
    outer loop
      vertex -0.455481 -3.97398 4
      vertex -0.495476 -5.97951 4
      vertex 1.47291 -5.8164 4
    endloop
  endfacet
  facet normal 0 0 1
    outer loop
      vertex -2.41017 -5.49464 4
      vertex -0.455481 -3.97398 4
      vertex -2.25011 -3.30711 4
    endloop
  endfacet
  facet normal 0 0 1
    outer loop
      vertex -0.455481 -3.97398 4
      vertex -2.41017 -5.49464 4
      vertex -0.495476 -5.97951 4
    endloop
  endfacet
  facet normal 0 0 1
    outer loop
      vertex -4.06369 -4.41434 4
      vertex -2.25011 -3.30711 4
      vertex -3.52927 -1.88263 4
    endloop
  endfacet
  facet normal 0 0 1
    outer loop
      vertex -2.25011 -3.30711 4
      vertex -4.06369 -4.41434 4
      vertex -2.41017 -5.49464 4
    endloop
  endfacet
  facet normal -0 0 1
    outer loop
      vertex -5.91817 -0.987567 4
      vertex -3.52927 -1.88263 4
      vertex -3.99991 -0.0268509 4
    endloop
  endfacet
  facet normal 0 0 1
    outer loop
      vertex -5.91817 0.987567 4
      vertex -3.55422 1.83508 4
      vertex -5.27684 2.85568 4
    endloop
  endfacet
  facet normal 0 0 1
    outer loop
      vertex -3.55422 1.83508 4
      vertex -5.91817 0.987567 4
      vertex -3.99991 -0.0268509 4
    endloop
  endfacet
  facet normal 0 0 1
    outer loop
      vertex -3.52927 -1.88263 4
      vertex -5.27684 -2.85568 4
      vertex -4.06369 -4.41434 4
    endloop
  endfacet
  facet normal 0 0 1
    outer loop
      vertex -5.91817 -0.987567 4
      vertex -3.99991 -0.0268509 4
      vertex -5.91817 0.987567 4
    endloop
  endfacet
  facet normal 0 0 1
    outer loop
      vertex -3.52927 -1.88263 4
      vertex -5.91817 -0.987567 4
      vertex -5.27684 -2.85568 4
    endloop
  endfacet
  facet normal 0.879473 -0.475949 0
    outer loop
      vertex 44.7348 -3.68528 4
      vertex 45.6749 -1.9482 0
      vertex 45.6749 -1.9482 4
    endloop
  endfacet
  facet normal 0.879473 -0.475949 0
    outer loop
      vertex 45.6749 -1.9482 0
      vertex 44.7348 -3.68528 4
      vertex 44.7348 -3.68528 0
    endloop
  endfacet
  facet normal 0.677282 -0.735723 0
    outer loop
      vertex 43.2817 -5.023 0
      vertex 44.7348 -3.68528 4
      vertex 43.2817 -5.023 4
    endloop
  endfacet
  facet normal 0.677282 -0.735723 0
    outer loop
      vertex 44.7348 -3.68528 4
      vertex 43.2817 -5.023 0
      vertex 44.7348 -3.68528 0
    endloop
  endfacet
  facet normal 0.879473 0.475949 0
    outer loop
      vertex 45.6749 1.9482 4
      vertex 44.7348 3.68528 0
      vertex 44.7348 3.68528 4
    endloop
  endfacet
  facet normal 0.879473 0.475949 0
    outer loop
      vertex 44.7348 3.68528 0
      vertex 45.6749 1.9482 4
      vertex 45.6749 1.9482 0
    endloop
  endfacet
  facet normal 0.986361 -0.164594 0
    outer loop
      vertex 45.6749 -1.9482 4
      vertex 46 0 0
      vertex 46 0 4
    endloop
  endfacet
  facet normal 0.986361 -0.164594 0
    outer loop
      vertex 46 0 0
      vertex 45.6749 -1.9482 4
      vertex 45.6749 -1.9482 0
    endloop
  endfacet
  facet normal -1 0 0
    outer loop
      vertex -5.91817 -0.987567 0
      vertex -5.91817 0.987567 4
      vertex -5.91817 0.987567 0
    endloop
  endfacet
  facet normal -1 -0 0
    outer loop
      vertex -5.91817 0.987567 4
      vertex -5.91817 -0.987567 0
      vertex -5.91817 -0.987567 4
    endloop
  endfacet
  facet normal -0.945817 -0.324699 0
    outer loop
      vertex -5.27684 -2.85568 0
      vertex -5.91817 -0.987567 4
      vertex -5.91817 -0.987567 0
    endloop
  endfacet
  facet normal -0.945817 -0.324699 0
    outer loop
      vertex -5.91817 -0.987567 4
      vertex -5.27684 -2.85568 0
      vertex -5.27684 -2.85568 4
    endloop
  endfacet
  facet normal -0.459839 0.888002 0
    outer loop
      vertex 11.5816 12.7401 0
      vertex -2.41017 5.49464 4
      vertex 11.5816 12.7401 4
    endloop
  endfacet
  facet normal -0.459839 0.888002 0
    outer loop
      vertex -2.41017 5.49464 4
      vertex 11.5816 12.7401 0
      vertex -2.41017 5.49464 0
    endloop
  endfacet
  facet normal -0.546948 0.837166 0
    outer loop
      vertex -2.41017 5.49464 0
      vertex -4.06369 4.41434 4
      vertex -2.41017 5.49464 4
    endloop
  endfacet
  facet normal -0.546948 0.837166 0
    outer loop
      vertex -4.06369 4.41434 4
      vertex -2.41017 5.49464 0
      vertex -4.06369 4.41434 0
    endloop
  endfacet
  facet normal -0.945817 0.324699 0
    outer loop
      vertex -5.91817 0.987567 0
      vertex -5.27684 2.85568 4
      vertex -5.27684 2.85568 0
    endloop
  endfacet
  facet normal -0.945817 0.324699 0
    outer loop
      vertex -5.27684 2.85568 4
      vertex -5.91817 0.987567 0
      vertex -5.91817 0.987567 4
    endloop
  endfacet
  facet normal -0.78914 0.614213 0
    outer loop
      vertex -5.27684 2.85568 0
      vertex -4.06369 4.41434 4
      vertex -4.06369 4.41434 0
    endloop
  endfacet
  facet normal -0.78914 0.614213 0
    outer loop
      vertex -4.06369 4.41434 4
      vertex -5.27684 2.85568 0
      vertex -5.27684 2.85568 4
    endloop
  endfacet
  facet normal -0.245486 -0.9694 0
    outer loop
      vertex -2.41017 -5.49464 0
      vertex -0.495476 -5.97951 4
      vertex -2.41017 -5.49464 4
    endloop
  endfacet
  facet normal -0.245486 -0.9694 -0
    outer loop
      vertex -0.495476 -5.97951 4
      vertex -2.41017 -5.49464 0
      vertex -0.495476 -5.97951 0
    endloop
  endfacet
  facet normal -0.78914 -0.614213 0
    outer loop
      vertex -4.06369 -4.41434 0
      vertex -5.27684 -2.85568 4
      vertex -5.27684 -2.85568 0
    endloop
  endfacet
  facet normal -0.78914 -0.614213 0
    outer loop
      vertex -5.27684 -2.85568 4
      vertex -4.06369 -4.41434 0
      vertex -4.06369 -4.41434 4
    endloop
  endfacet
  facet normal 0.666887 -0.745159 0
    outer loop
      vertex 3.28169 -5.023 0
      vertex 13.7634 4.35773 4
      vertex 3.28169 -5.023 4
    endloop
  endfacet
  facet normal 0.666887 -0.745159 0
    outer loop
      vertex 13.7634 4.35773 4
      vertex 3.28169 -5.023 0
      vertex 13.7634 4.35773 0
    endloop
  endfacet
  facet normal 0.401695 -0.915773 0
    outer loop
      vertex 1.47291 -5.8164 0
      vertex 3.28169 -5.023 4
      vertex 1.47291 -5.8164 4
    endloop
  endfacet
  facet normal 0.401695 -0.915773 0
    outer loop
      vertex 3.28169 -5.023 4
      vertex 1.47291 -5.8164 0
      vertex 3.28169 -5.023 0
    endloop
  endfacet
  facet normal -0.546948 -0.837166 0
    outer loop
      vertex -4.06369 -4.41434 0
      vertex -2.41017 -5.49464 4
      vertex -4.06369 -4.41434 4
    endloop
  endfacet
  facet normal -0.546948 -0.837166 -0
    outer loop
      vertex -2.41017 -5.49464 4
      vertex -4.06369 -4.41434 0
      vertex -2.41017 -5.49464 0
    endloop
  endfacet
  facet normal 0.0825791 -0.996585 0
    outer loop
      vertex -0.495476 -5.97951 0
      vertex 1.47291 -5.8164 4
      vertex -0.495476 -5.97951 4
    endloop
  endfacet
  facet normal 0.0825791 -0.996585 0
    outer loop
      vertex 1.47291 -5.8164 4
      vertex -0.495476 -5.97951 0
      vertex 1.47291 -5.8164 0
    endloop
  endfacet
  facet normal 0.542386 0.84013 -0
    outer loop
      vertex 38.6977 -3.78207 0
      vertex 37.0893 -2.74366 4
      vertex 38.6977 -3.78207 4
    endloop
  endfacet
  facet normal 0.542386 0.84013 0
    outer loop
      vertex 37.0893 -2.74366 4
      vertex 38.6977 -3.78207 0
      vertex 37.0893 -2.74366 0
    endloop
  endfacet
  facet normal -0.325568 -0.945519 0
    outer loop
      vertex 40.3593 3.98383 0
      vertex 42.1695 3.36052 4
      vertex 40.3593 3.98383 4
    endloop
  endfacet
  facet normal -0.325568 -0.945519 -0
    outer loop
      vertex 42.1695 3.36052 4
      vertex 40.3593 3.98383 0
      vertex 42.1695 3.36052 0
    endloop
  endfacet
  facet normal 0.899382 -0.437163 0
    outer loop
      vertex 36.0885 0.836899 1.51
      vertex 36.9255 2.55879 0
      vertex 36.9255 2.55879 1.51
    endloop
  endfacet
  facet normal 0.899382 -0.437163 0
    outer loop
      vertex 36.9255 2.55879 0
      vertex 36.0885 0.836899 1.51
      vertex 36.0885 0.836899 0
    endloop
  endfacet
  facet normal 0.870687 0.491838 0
    outer loop
      vertex 36.91 -2.42635 1.51
      vertex 36.1476 -1.07671 0
      vertex 36.1476 -1.07671 1.51
    endloop
  endfacet
  facet normal 0.870686 0.491839 1.64892e-06
    outer loop
      vertex 36.91 -2.42635 1.51
      vertex 37.0893 -2.74366 0
      vertex 36.1476 -1.07671 0
    endloop
  endfacet
  facet normal 0.870683 0.491845 -0
    outer loop
      vertex 37.0893 -2.74366 0
      vertex 36.91 -2.42635 1.51
      vertex 37.0893 -2.74366 4
    endloop
  endfacet
  facet normal 0.870683 0.491845 0
    outer loop
      vertex 36.91 -2.42635 4
      vertex 37.0893 -2.74366 4
      vertex 36.91 -2.42635 1.51
    endloop
  endfacet
  facet normal 0.593203 -0.805053 0
    outer loop
      vertex 36.9255 2.55879 0
      vertex 38.4668 3.69449 1.51
      vertex 36.9255 2.55879 1.51
    endloop
  endfacet
  facet normal 0.593203 -0.805053 0
    outer loop
      vertex 38.4668 3.69449 1.51
      vertex 36.9255 2.55879 0
      vertex 38.4668 3.69449 0
    endloop
  endfacet
  facet normal 0.0898301 0.995957 -0
    outer loop
      vertex 40.6045 -3.95406 0
      vertex 38.6977 -3.78207 4
      vertex 40.6045 -3.95406 4
    endloop
  endfacet
  facet normal 0.0898301 0.995957 0
    outer loop
      vertex 38.6977 -3.78207 4
      vertex 40.6045 -3.95406 0
      vertex 38.6977 -3.78207 0
    endloop
  endfacet
  facet normal 0.999523 0.0308738 0
    outer loop
      vertex 36.1476 -1.07671 1.51
      vertex 36.0885 0.836899 0
      vertex 36.0885 0.836899 1.51
    endloop
  endfacet
  facet normal 0.999523 0.0308738 0
    outer loop
      vertex 36.0885 0.836899 0
      vertex 36.1476 -1.07671 1.51
      vertex 36.1476 -1.07671 0
    endloop
  endfacet
  facet normal -0.727681 -0.685915 0
    outer loop
      vertex 43.4827 1.96736 0
      vertex 42.1695 3.36052 4
      vertex 42.1695 3.36052 0
    endloop
  endfacet
  facet normal -0.727681 -0.685915 0
    outer loop
      vertex 42.1695 3.36052 4
      vertex 43.4827 1.96736 0
      vertex 43.4827 1.96736 4
    endloop
  endfacet
  facet normal -0.383303 0.923623 0
    outer loop
      vertex 42.3728 -3.22021 0
      vertex 40.6045 -3.95406 4
      vertex 42.3728 -3.22021 4
    endloop
  endfacet
  facet normal -0.383303 0.923623 0
    outer loop
      vertex 40.6045 -3.95406 4
      vertex 42.3728 -3.22021 0
      vertex 40.6045 -3.95406 0
    endloop
  endfacet
  facet normal 0.151128 -0.988514 0
    outer loop
      vertex 38.4668 3.69449 1.51
      vertex 38.4668 3.69449 0
      vertex 39.1331 3.79635 1.51
    endloop
  endfacet
  facet normal 0.151128 -0.988514 0
    outer loop
      vertex 39.1331 3.79635 1.51
      vertex 40.3593 3.98383 4
      vertex 39.1331 3.79635 4
    endloop
  endfacet
  facet normal 0.151128 -0.988514 -1.91448e-07
    outer loop
      vertex 40.3593 3.98383 0
      vertex 39.1331 3.79635 1.51
      vertex 38.4668 3.69449 0
    endloop
  endfacet
  facet normal 0.151128 -0.988514 0
    outer loop
      vertex 39.1331 3.79635 1.51
      vertex 40.3593 3.98383 0
      vertex 40.3593 3.98383 4
    endloop
  endfacet
  facet normal -0.96309 -0.269179 0
    outer loop
      vertex 43.9981 0.123495 0
      vertex 43.4827 1.96736 4
      vertex 43.4827 1.96736 0
    endloop
  endfacet
  facet normal -0.96309 -0.269179 0
    outer loop
      vertex 43.4827 1.96736 4
      vertex 43.9981 0.123495 0
      vertex 43.9981 0.123495 4
    endloop
  endfacet
  facet normal -0.768627 0.639697 0
    outer loop
      vertex 42.3728 -3.22021 0
      vertex 43.5975 -1.74866 4
      vertex 43.5975 -1.74866 0
    endloop
  endfacet
  facet normal -0.768627 0.639697 0
    outer loop
      vertex 43.5975 -1.74866 4
      vertex 42.3728 -3.22021 0
      vertex 42.3728 -3.22021 4
    endloop
  endfacet
  facet normal -0.977868 0.209225 0
    outer loop
      vertex 43.5975 -1.74866 0
      vertex 43.9981 0.123495 4
      vertex 43.9981 0.123495 0
    endloop
  endfacet
  facet normal -0.977868 0.209225 0
    outer loop
      vertex 43.9981 0.123495 4
      vertex 43.5975 -1.74866 0
      vertex 43.5975 -1.74866 4
    endloop
  endfacet
  facet normal -0 0 1
    outer loop
      vertex 25.4584 6.91284 1.51
      vertex 36.9255 2.55879 1.51
      vertex 25.5228 7.10013 1.51
    endloop
  endfacet
  facet normal 0 0 1
    outer loop
      vertex 38.4668 3.69449 1.51
      vertex 25.5228 7.10013 1.51
      vertex 36.9255 2.55879 1.51
    endloop
  endfacet
  facet normal 0 0 1
    outer loop
      vertex 25.5228 7.10013 1.51
      vertex 38.4668 3.69449 1.51
      vertex 39.1331 3.79635 1.51
    endloop
  endfacet
  facet normal 0 0 1
    outer loop
      vertex 36.9255 2.55879 1.51
      vertex 25.4584 6.91284 1.51
      vertex 36.0885 0.836899 1.51
    endloop
  endfacet
  facet normal -0 0 1
    outer loop
      vertex 24.2206 3.31805 1.51
      vertex 36.0885 0.836899 1.51
      vertex 25.4584 6.91284 1.51
    endloop
  endfacet
  facet normal 0 0 1
    outer loop
      vertex 36.0885 0.836899 1.51
      vertex 24.2206 3.31805 1.51
      vertex 36.1476 -1.07671 1.51
    endloop
  endfacet
  facet normal 0 0 1
    outer loop
      vertex 23.173 6.26469 1.51
      vertex 25.4584 6.91284 1.51
      vertex 24.6379 7.19536 1.51
    endloop
  endfacet
  facet normal 0 0 1
    outer loop
      vertex 36.1476 -1.07671 1.51
      vertex 24.2206 3.31805 1.51
      vertex 36.91 -2.42635 1.51
    endloop
  endfacet
  facet normal 0 0 1
    outer loop
      vertex 22.9873 4.53913 1.51
      vertex 25.4584 6.91284 1.51
      vertex 23.173 6.26469 1.51
    endloop
  endfacet
  facet normal 0 0 1
    outer loop
      vertex 25.4584 6.91284 1.51
      vertex 22.9873 4.53913 1.51
      vertex 24.2206 3.31805 1.51
    endloop
  endfacet
  facet normal 0.412402 0.911002 -0
    outer loop
      vertex 36.91 -2.42635 1.51
      vertex 24.2206 3.31805 4
      vertex 36.91 -2.42635 4
    endloop
  endfacet
  facet normal 0.412402 0.911002 0
    outer loop
      vertex 24.2206 3.31805 4
      vertex 36.91 -2.42635 1.51
      vertex 24.2206 3.31805 1.51
    endloop
  endfacet
  facet normal 0.703573 0.710623 -0
    outer loop
      vertex 24.2206 3.31805 1.51
      vertex 22.9873 4.53913 4
      vertex 24.2206 3.31805 4
    endloop
  endfacet
  facet normal 0.703573 0.710623 0
    outer loop
      vertex 22.9873 4.53913 4
      vertex 24.2206 3.31805 1.51
      vertex 22.9873 4.53913 1.51
    endloop
  endfacet
  facet normal 0.994258 -0.107012 0
    outer loop
      vertex 22.9873 4.53913 4
      vertex 23.173 6.26469 1.51
      vertex 23.173 6.26469 4
    endloop
  endfacet
  facet normal 0.994258 -0.107012 0
    outer loop
      vertex 23.173 6.26469 1.51
      vertex 22.9873 4.53913 4
      vertex 22.9873 4.53913 1.51
    endloop
  endfacet
  facet normal 0.536249 -0.84406 0
    outer loop
      vertex 23.173 6.26469 1.51
      vertex 24.6379 7.19536 4
      vertex 23.173 6.26469 4
    endloop
  endfacet
  facet normal 0.536249 -0.84406 0
    outer loop
      vertex 24.6379 7.19536 4
      vertex 23.173 6.26469 1.51
      vertex 24.6379 7.19536 1.51
    endloop
  endfacet
  facet normal -0.325568 -0.945519 0
    outer loop
      vertex 24.6379 7.19536 1.51
      vertex 25.4584 6.91284 4
      vertex 24.6379 7.19536 4
    endloop
  endfacet
  facet normal -0.325568 -0.945519 -0
    outer loop
      vertex 25.4584 6.91284 4
      vertex 24.6379 7.19536 1.51
      vertex 25.4584 6.91284 1.51
    endloop
  endfacet
  facet normal 0.94552 -0.325563 0
    outer loop
      vertex 25.4584 6.91284 4
      vertex 25.5228 7.10013 1.51
      vertex 25.5228 7.10013 4
    endloop
  endfacet
  facet normal 0.94552 -0.325563 0
    outer loop
      vertex 25.5228 7.10013 1.51
      vertex 25.4584 6.91284 4
      vertex 25.4584 6.91284 1.51
    endloop
  endfacet
  facet normal -0.235891 -0.971779 0
    outer loop
      vertex 25.5228 7.10013 1.51
      vertex 39.1331 3.79635 4
      vertex 25.5228 7.10013 4
    endloop
  endfacet
  facet normal -0.235891 -0.971779 -0
    outer loop
      vertex 39.1331 3.79635 4
      vertex 25.5228 7.10013 1.51
      vertex 39.1331 3.79635 1.51
    endloop
  endfacet
  facet normal 0.360873 -0.932615 0
    outer loop
      vertex -2.29431 3.27661 0
      vertex -0.508791 3.96751 4
      vertex -2.29431 3.27661 4
    endloop
  endfacet
  facet normal 0.360873 -0.932615 0
    outer loop
      vertex -0.508791 3.96751 4
      vertex -2.29431 3.27661 0
      vertex -0.508791 3.96751 0
    endloop
  endfacet
  facet normal -0.573576 0.819152 0
    outer loop
      vertex 3.01178 -2.63233 0
      vertex 1.44349 -3.73046 4
      vertex 3.01178 -2.63233 4
    endloop
  endfacet
  facet normal -0.573576 0.819152 0
    outer loop
      vertex 1.44349 -3.73046 4
      vertex 3.01178 -2.63233 0
      vertex 1.44349 -3.73046 0
    endloop
  endfacet
  facet normal -0.882316 -0.470657 0
    outer loop
      vertex 3.87725 0.983312 0
      vertex 2.97617 2.67253 1.51
      vertex 2.97617 2.67253 0
    endloop
  endfacet
  facet normal -0.882316 -0.470657 0
    outer loop
      vertex 2.97617 2.67253 1.51
      vertex 3.87725 0.983312 0
      vertex 3.87725 0.983312 1.51
    endloop
  endfacet
  facet normal -0.11387 -0.993496 0
    outer loop
      vertex -0.508791 3.96751 4
      vertex -0.146721 3.92601 1.51
      vertex -0.146721 3.92601 4
    endloop
  endfacet
  facet normal -0.11387 -0.993496 0
    outer loop
      vertex -0.508791 3.96751 0
      vertex -0.146721 3.92601 1.51
      vertex -0.508791 3.96751 4
    endloop
  endfacet
  facet normal -0.11387 -0.993496 -6.19612e-08
    outer loop
      vertex 1.39328 3.7495 0
      vertex -0.146721 3.92601 1.51
      vertex -0.508791 3.96751 0
    endloop
  endfacet
  facet normal -0.11387 -0.993496 0
    outer loop
      vertex -0.146721 3.92601 1.51
      vertex 1.39328 3.7495 0
      vertex 1.39328 3.7495 1.51
    endloop
  endfacet
  facet normal -0.999977 -0.00671287 0
    outer loop
      vertex 3.89011 -0.93117 0
      vertex 3.87725 0.983312 1.51
      vertex 3.87725 0.983312 0
    endloop
  endfacet
  facet normal -0.999977 -0.00671287 0
    outer loop
      vertex 3.87725 0.983312 1.51
      vertex 3.89011 -0.93117 0
      vertex 3.89011 -0.93117 1.51
    endloop
  endfacet
  facet normal 0.752946 -0.658083 0
    outer loop
      vertex -3.55422 1.83508 4
      vertex -2.29431 3.27661 0
      vertex -2.29431 3.27661 4
    endloop
  endfacet
  facet normal 0.752946 -0.658083 0
    outer loop
      vertex -2.29431 3.27661 0
      vertex -3.55422 1.83508 4
      vertex -3.55422 1.83508 0
    endloop
  endfacet
  facet normal -0.562528 -0.826778 0
    outer loop
      vertex 1.39328 3.7495 0
      vertex 2.97617 2.67253 1.51
      vertex 1.39328 3.7495 1.51
    endloop
  endfacet
  facet normal -0.562528 -0.826778 -0
    outer loop
      vertex 2.97617 2.67253 1.51
      vertex 1.39328 3.7495 0
      vertex 2.97617 2.67253 0
    endloop
  endfacet
  facet normal -0.127198 0.991877 0
    outer loop
      vertex 1.44349 -3.73046 0
      vertex -0.455481 -3.97398 4
      vertex 1.44349 -3.73046 4
    endloop
  endfacet
  facet normal -0.127198 0.991877 0
    outer loop
      vertex -0.455481 -3.97398 4
      vertex 1.44349 -3.73046 0
      vertex -0.455481 -3.97398 0
    endloop
  endfacet
  facet normal 0.972526 -0.232793 0
    outer loop
      vertex -3.99991 -0.0268509 4
      vertex -3.55422 1.83508 0
      vertex -3.55422 1.83508 4
    endloop
  endfacet
  facet normal 0.972526 -0.232793 0
    outer loop
      vertex -3.55422 1.83508 0
      vertex -3.99991 -0.0268509 4
      vertex -3.99991 -0.0268509 0
    endloop
  endfacet
  facet normal -0.888556 0.458769 0
    outer loop
      vertex 3.89011 -0.93117 0
      vertex 3.58088 -1.53009 1.51
      vertex 3.89011 -0.93117 1.51
    endloop
  endfacet
  facet normal -0.888556 0.458769 6.38148e-08
    outer loop
      vertex 3.01178 -2.63233 0
      vertex 3.58088 -1.53009 1.51
      vertex 3.89011 -0.93117 0
    endloop
  endfacet
  facet normal -0.888556 0.458769 0
    outer loop
      vertex 3.01178 -2.63233 4
      vertex 3.58088 -1.53009 1.51
      vertex 3.01178 -2.63233 0
    endloop
  endfacet
  facet normal -0.888556 0.458769 0
    outer loop
      vertex 3.58088 -1.53009 1.51
      vertex 3.01178 -2.63233 4
      vertex 3.58088 -1.53009 4
    endloop
  endfacet
  facet normal 0.348321 0.937375 -0
    outer loop
      vertex -0.455481 -3.97398 0
      vertex -2.25011 -3.30711 4
      vertex -0.455481 -3.97398 4
    endloop
  endfacet
  facet normal 0.348321 0.937375 0
    outer loop
      vertex -2.25011 -3.30711 4
      vertex -0.455481 -3.97398 0
      vertex -2.25011 -3.30711 0
    endloop
  endfacet
  facet normal 0.969313 0.245828 0
    outer loop
      vertex -3.52927 -1.88263 4
      vertex -3.99991 -0.0268509 0
      vertex -3.99991 -0.0268509 4
    endloop
  endfacet
  facet normal 0.969313 0.245828 0
    outer loop
      vertex -3.99991 -0.0268509 0
      vertex -3.52927 -1.88263 4
      vertex -3.52927 -1.88263 0
    endloop
  endfacet
  facet normal 0.744043 0.668132 0
    outer loop
      vertex -2.25011 -3.30711 4
      vertex -3.52927 -1.88263 0
      vertex -3.52927 -1.88263 4
    endloop
  endfacet
  facet normal 0.744043 0.668132 0
    outer loop
      vertex -3.52927 -1.88263 0
      vertex -2.25011 -3.30711 4
      vertex -2.25011 -3.30711 0
    endloop
  endfacet
  facet normal 0 0 1
    outer loop
      vertex 14.9589 9.93105 1.51
      vertex 14.14 7.70117 1.51
      vertex 14.8508 8.1989 1.51
    endloop
  endfacet
  facet normal 0 -0 1
    outer loop
      vertex 14.14 7.70117 1.51
      vertex 14.9589 9.93105 1.51
      vertex 13.6721 11.0956 1.51
    endloop
  endfacet
  facet normal -0 0 1
    outer loop
      vertex 11.9593 10.8155 1.51
      vertex 14.14 7.70117 1.51
      vertex 13.6721 11.0956 1.51
    endloop
  endfacet
  facet normal 0 0 1
    outer loop
      vertex 2.97617 2.67253 1.51
      vertex 14.14 7.70117 1.51
      vertex 11.9593 10.8155 1.51
    endloop
  endfacet
  facet normal 0 0 1
    outer loop
      vertex 3.87725 0.983312 1.51
      vertex 14.2536 7.53892 1.51
      vertex 14.14 7.70117 1.51
    endloop
  endfacet
  facet normal 0 0 1
    outer loop
      vertex 14.2536 7.53892 1.51
      vertex 3.89011 -0.93117 1.51
      vertex 3.58088 -1.53009 1.51
    endloop
  endfacet
  facet normal 0 0 1
    outer loop
      vertex 14.2536 7.53892 1.51
      vertex 3.87725 0.983312 1.51
      vertex 3.89011 -0.93117 1.51
    endloop
  endfacet
  facet normal 0 0 1
    outer loop
      vertex 14.14 7.70117 1.51
      vertex 2.97617 2.67253 1.51
      vertex 3.87725 0.983312 1.51
    endloop
  endfacet
  facet normal 0 0 1
    outer loop
      vertex 11.9593 10.8155 1.51
      vertex 1.39328 3.7495 1.51
      vertex 2.97617 2.67253 1.51
    endloop
  endfacet
  facet normal 0 -0 1
    outer loop
      vertex 1.39328 3.7495 1.51
      vertex 11.9593 10.8155 1.51
      vertex -0.146721 3.92601 1.51
    endloop
  endfacet
  facet normal 0.494612 -0.869114 0
    outer loop
      vertex -0.146721 3.92601 1.51
      vertex 11.9593 10.8155 4
      vertex -0.146721 3.92601 4
    endloop
  endfacet
  facet normal 0.494612 -0.869114 0
    outer loop
      vertex 11.9593 10.8155 4
      vertex -0.146721 3.92601 1.51
      vertex 11.9593 10.8155 1.51
    endloop
  endfacet
  facet normal 0.161357 -0.986896 0
    outer loop
      vertex 11.9593 10.8155 1.51
      vertex 13.6721 11.0956 4
      vertex 11.9593 10.8155 4
    endloop
  endfacet
  facet normal 0.161357 -0.986896 0
    outer loop
      vertex 13.6721 11.0956 4
      vertex 11.9593 10.8155 1.51
      vertex 13.6721 11.0956 1.51
    endloop
  endfacet
  facet normal -0.670985 -0.741471 0
    outer loop
      vertex 13.6721 11.0956 1.51
      vertex 14.9589 9.93105 4
      vertex 13.6721 11.0956 4
    endloop
  endfacet
  facet normal -0.670985 -0.741471 -0
    outer loop
      vertex 14.9589 9.93105 4
      vertex 13.6721 11.0956 1.51
      vertex 14.9589 9.93105 1.51
    endloop
  endfacet
  facet normal -0.998058 0.0622906 0
    outer loop
      vertex 14.8508 8.1989 1.51
      vertex 14.9589 9.93105 4
      vertex 14.9589 9.93105 1.51
    endloop
  endfacet
  facet normal -0.998058 0.0622906 0
    outer loop
      vertex 14.9589 9.93105 4
      vertex 14.8508 8.1989 1.51
      vertex 14.8508 8.1989 4
    endloop
  endfacet
  facet normal -0.573577 0.819152 0
    outer loop
      vertex 14.8508 8.1989 1.51
      vertex 14.14 7.70117 4
      vertex 14.8508 8.1989 4
    endloop
  endfacet
  facet normal -0.573577 0.819152 0
    outer loop
      vertex 14.14 7.70117 4
      vertex 14.8508 8.1989 1.51
      vertex 14.14 7.70117 1.51
    endloop
  endfacet
  facet normal -0.819151 -0.573578 0
    outer loop
      vertex 14.2536 7.53892 1.51
      vertex 14.14 7.70117 4
      vertex 14.14 7.70117 1.51
    endloop
  endfacet
  facet normal -0.819151 -0.573578 0
    outer loop
      vertex 14.14 7.70117 4
      vertex 14.2536 7.53892 1.51
      vertex 14.2536 7.53892 4
    endloop
  endfacet
  facet normal -0.647533 0.762038 0
    outer loop
      vertex 14.2536 7.53892 1.51
      vertex 3.58088 -1.53009 4
      vertex 14.2536 7.53892 4
    endloop
  endfacet
  facet normal -0.647533 0.762038 0
    outer loop
      vertex 3.58088 -1.53009 4
      vertex 14.2536 7.53892 1.51
      vertex 3.58088 -1.53009 1.51
    endloop
  endfacet
endsolid OpenSCAD_Model
