solid OpenSCAD_Model
  facet normal -0.951056 0.309019 0
    outer loop
      vertex -32.9058 7.74607 0
      vertex -32.7893 8.10437 4
      vertex -32.7893 8.10437 0
    endloop
  endfacet
  facet normal -0.951056 0.309019 0
    outer loop
      vertex -32.7893 8.10437 4
      vertex -32.9058 7.74607 0
      vertex -32.9058 7.74607 4
    endloop
  endfacet
  facet normal -0.368128 0.929775 0
    outer loop
      vertex -30.9271 9.85317 0
      vertex -31.2773 9.71448 4
      vertex -30.9271 9.85317 4
    endloop
  endfacet
  facet normal -0.368128 0.929775 0
    outer loop
      vertex -31.2773 9.71448 4
      vertex -30.9271 9.85317 0
      vertex -31.2773 9.71448 0
    endloop
  endfacet
  facet normal -0.904829 0.425776 0
    outer loop
      vertex -32.7893 8.10437 0
      vertex -32.6289 8.44526 4
      vertex -32.6289 8.44526 0
    endloop
  endfacet
  facet normal -0.904829 0.425776 0
    outer loop
      vertex -32.6289 8.44526 4
      vertex -32.7893 8.10437 0
      vertex -32.7893 8.10437 4
    endloop
  endfacet
  facet normal 0 1 -0
    outer loop
      vertex -30 9.99408 0
      vertex -30.1884 9.99408 4
      vertex -30 9.99408 4
    endloop
  endfacet
  facet normal 0 1 0
    outer loop
      vertex -30.1884 9.99408 4
      vertex -30 9.99408 0
      vertex -30.1884 9.99408 0
    endloop
  endfacet
  facet normal -0.982289 0.187372 0
    outer loop
      vertex -32.9763 7.376 0
      vertex -32.9058 7.74607 4
      vertex -32.9058 7.74607 0
    endloop
  endfacet
  facet normal -0.982289 0.187372 0
    outer loop
      vertex -32.9058 7.74607 4
      vertex -32.9763 7.376 0
      vertex -32.9763 7.376 4
    endloop
  endfacet
  facet normal -0.770511 0.637427 0
    outer loop
      vertex -32.4271 8.76336 0
      vertex -32.1869 9.05364 4
      vertex -32.1869 9.05364 0
    endloop
  endfacet
  facet normal -0.770511 0.637427 0
    outer loop
      vertex -32.1869 9.05364 4
      vertex -32.4271 8.76336 0
      vertex -32.4271 8.76336 4
    endloop
  endfacet
  facet normal -0.248688 0.968584 0
    outer loop
      vertex -30.5621 9.94686 0
      vertex -30.9271 9.85317 4
      vertex -30.5621 9.94686 4
    endloop
  endfacet
  facet normal -0.248688 0.968584 0
    outer loop
      vertex -30.9271 9.85317 4
      vertex -30.5621 9.94686 0
      vertex -30.9271 9.85317 0
    endloop
  endfacet
  facet normal -0.684549 0.728967 0
    outer loop
      vertex -31.9123 9.31154 0
      vertex -32.1869 9.05364 4
      vertex -31.9123 9.31154 4
    endloop
  endfacet
  facet normal -0.684549 0.728967 0
    outer loop
      vertex -32.1869 9.05364 4
      vertex -31.9123 9.31154 0
      vertex -32.1869 9.05364 0
    endloop
  endfacet
  facet normal -0.998026 0.0627981 0
    outer loop
      vertex -33 7 0
      vertex -32.9763 7.376 4
      vertex -32.9763 7.376 0
    endloop
  endfacet
  facet normal -0.998026 0.0627981 0
    outer loop
      vertex -32.9763 7.376 4
      vertex -33 7 0
      vertex -33 7 4
    endloop
  endfacet
  facet normal -0.844326 0.535829 0
    outer loop
      vertex -32.6289 8.44526 0
      vertex -32.4271 8.76336 4
      vertex -32.4271 8.76336 0
    endloop
  endfacet
  facet normal -0.844326 0.535829 0
    outer loop
      vertex -32.4271 8.76336 4
      vertex -32.6289 8.44526 0
      vertex -32.6289 8.44526 4
    endloop
  endfacet
  facet normal -0.125333 0.992115 0
    outer loop
      vertex -30.1884 9.99408 0
      vertex -30.5621 9.94686 4
      vertex -30.1884 9.99408 4
    endloop
  endfacet
  facet normal -0.125333 0.992115 0
    outer loop
      vertex -30.5621 9.94686 4
      vertex -30.1884 9.99408 0
      vertex -30.5621 9.94686 0
    endloop
  endfacet
  facet normal -0.587783 0.809019 0
    outer loop
      vertex -31.6075 9.53298 0
      vertex -31.9123 9.31154 4
      vertex -31.6075 9.53298 4
    endloop
  endfacet
  facet normal -0.587783 0.809019 0
    outer loop
      vertex -31.9123 9.31154 4
      vertex -31.6075 9.53298 0
      vertex -31.9123 9.31154 0
    endloop
  endfacet
  facet normal -0.481754 0.876307 0
    outer loop
      vertex -31.2773 9.71448 0
      vertex -31.6075 9.53298 4
      vertex -31.2773 9.71448 4
    endloop
  endfacet
  facet normal -0.481754 0.876307 0
    outer loop
      vertex -31.6075 9.53298 4
      vertex -31.2773 9.71448 0
      vertex -31.6075 9.53298 0
    endloop
  endfacet
  facet normal 0 0 1
    outer loop
      vertex -35.0144 111.391 4
      vertex -31.6106 112.812 4
      vertex -33.6807 112.678 4
    endloop
  endfacet
  facet normal 0 0 1
    outer loop
      vertex -31.6106 112.812 4
      vertex -34.5236 107.898 4
      vertex -32.8865 107.028 4
    endloop
  endfacet
  facet normal 0 0 1
    outer loop
      vertex -35.3364 109.565 4
      vertex -31.6106 112.812 4
      vertex -35.0144 111.391 4
    endloop
  endfacet
  facet normal 0 0 1
    outer loop
      vertex -31.6106 112.812 4
      vertex -35.3364 109.565 4
      vertex -34.5236 107.898 4
    endloop
  endfacet
  facet normal -0 0 1
    outer loop
      vertex -30.191 -0.587785 4
      vertex -28.5 -6.25 4
      vertex -30.0489 -0.309016 4
    endloop
  endfacet
  facet normal -0 0 1
    outer loop
      vertex -30.4122 -0.809016 4
      vertex -28.5 -6.25 4
      vertex -30.191 -0.587785 4
    endloop
  endfacet
  facet normal -0 0 1
    outer loop
      vertex -30.691 -0.951056 4
      vertex -28.5 -6.25 4
      vertex -30.4122 -0.809016 4
    endloop
  endfacet
  facet normal 0 -0 1
    outer loop
      vertex -32.9763 -7.376 4
      vertex -28.5 -6.25 4
      vertex -33 -7 4
    endloop
  endfacet
  facet normal 0 0 1
    outer loop
      vertex -28.5 -6.25 4
      vertex -30.5621 -9.94686 4
      vertex -30 -9.99408 4
    endloop
  endfacet
  facet normal -0 0 1
    outer loop
      vertex -31 -1 4
      vertex -28.5 -6.25 4
      vertex -30.691 -0.951056 4
    endloop
  endfacet
  facet normal 0 0 1
    outer loop
      vertex -30 -9.99408 4
      vertex -30.5621 -9.94686 4
      vertex -30.1884 -9.99408 4
    endloop
  endfacet
  facet normal 0 0 1
    outer loop
      vertex -28.5 -6.25 4
      vertex -31 -1 4
      vertex -33 -7 4
    endloop
  endfacet
  facet normal 0 0 1
    outer loop
      vertex -28.5 -6.25 4
      vertex -30.9271 -9.85317 4
      vertex -30.5621 -9.94686 4
    endloop
  endfacet
  facet normal 0 0 1
    outer loop
      vertex -33 -7 4
      vertex -31 -1 4
      vertex -31.309 -0.951056 4
    endloop
  endfacet
  facet normal 0 0 1
    outer loop
      vertex -33 -7 4
      vertex -31.309 -0.951056 4
      vertex -31.5878 -0.809016 4
    endloop
  endfacet
  facet normal 0 0 1
    outer loop
      vertex -28.5 -6.25 4
      vertex -31.2773 -9.71448 4
      vertex -30.9271 -9.85317 4
    endloop
  endfacet
  facet normal 0 0 1
    outer loop
      vertex -33 -7 4
      vertex -31.5878 -0.809016 4
      vertex -31.809 -0.587785 4
    endloop
  endfacet
  facet normal 0 0 1
    outer loop
      vertex -28.5 -6.25 4
      vertex -31.6075 -9.53298 4
      vertex -31.2773 -9.71448 4
    endloop
  endfacet
  facet normal 0 0 1
    outer loop
      vertex -33 -7 4
      vertex -31.809 -0.587785 4
      vertex -31.9511 -0.309016 4
    endloop
  endfacet
  facet normal 0 0 1
    outer loop
      vertex -33 -7 4
      vertex -31.9511 -0.309016 4
      vertex -32 0 4
    endloop
  endfacet
  facet normal 0 0 1
    outer loop
      vertex -31.9511 0.309016 4
      vertex -33 7 4
      vertex -32 0 4
    endloop
  endfacet
  facet normal 0 0 1
    outer loop
      vertex -33 -7 4
      vertex -32 0 4
      vertex -33 7 4
    endloop
  endfacet
  facet normal 0 0 1
    outer loop
      vertex -33 7 4
      vertex -32.1869 9.05364 4
      vertex -32.4271 8.76336 4
    endloop
  endfacet
  facet normal 0 0 1
    outer loop
      vertex -28.5 -6.25 4
      vertex -31.9123 -9.31154 4
      vertex -31.6075 -9.53298 4
    endloop
  endfacet
  facet normal 0 0 1
    outer loop
      vertex -33 7 4
      vertex -32.4271 8.76336 4
      vertex -32.6289 8.44526 4
    endloop
  endfacet
  facet normal 0 0 1
    outer loop
      vertex -28.5 -6.25 4
      vertex -32.1869 -9.05364 4
      vertex -31.9123 -9.31154 4
    endloop
  endfacet
  facet normal 0 0 1
    outer loop
      vertex -33 7 4
      vertex -32.6289 8.44526 4
      vertex -32.7893 8.10437 4
    endloop
  endfacet
  facet normal 0 0 1
    outer loop
      vertex -28.5 -6.25 4
      vertex -32.4271 -8.76336 4
      vertex -32.1869 -9.05364 4
    endloop
  endfacet
  facet normal 0 0 1
    outer loop
      vertex -33 7 4
      vertex -32.7893 8.10437 4
      vertex -32.9058 7.74607 4
    endloop
  endfacet
  facet normal 0 0 1
    outer loop
      vertex -28.5 -6.25 4
      vertex -32.6289 -8.44526 4
      vertex -32.4271 -8.76336 4
    endloop
  endfacet
  facet normal 0 0 1
    outer loop
      vertex -33 7 4
      vertex -32.9058 7.74607 4
      vertex -32.9763 7.376 4
    endloop
  endfacet
  facet normal 0 0 1
    outer loop
      vertex -28.5 -6.25 4
      vertex -32.7893 -8.10437 4
      vertex -32.6289 -8.44526 4
    endloop
  endfacet
  facet normal 0 0 1
    outer loop
      vertex -28.5 -6.25 4
      vertex -32.9058 -7.74607 4
      vertex -32.7893 -8.10437 4
    endloop
  endfacet
  facet normal 0 0 1
    outer loop
      vertex -28.5 -6.25 4
      vertex -32.9763 -7.376 4
      vertex -32.9058 -7.74607 4
    endloop
  endfacet
  facet normal 0 0 1
    outer loop
      vertex -28.5 6.25 4
      vertex -30.0489 0.309016 4
      vertex -30 0 4
    endloop
  endfacet
  facet normal 0 0 1
    outer loop
      vertex -30.5621 9.94686 4
      vertex -30 9.99408 4
      vertex -30.1884 9.99408 4
    endloop
  endfacet
  facet normal 0 0 1
    outer loop
      vertex -28.5 6.25 4
      vertex -30.191 0.587785 4
      vertex -30.0489 0.309016 4
    endloop
  endfacet
  facet normal 0 0 1
    outer loop
      vertex -28.5 6.25 4
      vertex -30.4122 0.809016 4
      vertex -30.191 0.587785 4
    endloop
  endfacet
  facet normal -0 0 1
    outer loop
      vertex -30.9271 9.85317 4
      vertex -28.5 6.25 4
      vertex -30.5621 9.94686 4
    endloop
  endfacet
  facet normal 0 0 1
    outer loop
      vertex -28.5 6.25 4
      vertex -30.691 0.951056 4
      vertex -30.4122 0.809016 4
    endloop
  endfacet
  facet normal -0 0 1
    outer loop
      vertex -31.2773 9.71448 4
      vertex -28.5 6.25 4
      vertex -30.9271 9.85317 4
    endloop
  endfacet
  facet normal -0 0 1
    outer loop
      vertex -33 7 4
      vertex -28.5 6.25 4
      vertex -32.1869 9.05364 4
    endloop
  endfacet
  facet normal -0 0 1
    outer loop
      vertex -31.6075 9.53298 4
      vertex -28.5 6.25 4
      vertex -31.2773 9.71448 4
    endloop
  endfacet
  facet normal 0 0 1
    outer loop
      vertex -28.5 6.25 4
      vertex -31 1 4
      vertex -30.691 0.951056 4
    endloop
  endfacet
  facet normal 0 0 1
    outer loop
      vertex -33 7 4
      vertex -31 1 4
      vertex -28.5 6.25 4
    endloop
  endfacet
  facet normal -0 0 1
    outer loop
      vertex -31.9123 9.31154 4
      vertex -28.5 6.25 4
      vertex -31.6075 9.53298 4
    endloop
  endfacet
  facet normal 0 0 1
    outer loop
      vertex -31 1 4
      vertex -33 7 4
      vertex -31.309 0.951056 4
    endloop
  endfacet
  facet normal 0 0 1
    outer loop
      vertex -28.5 6.25 4
      vertex -31.9123 9.31154 4
      vertex -32.1869 9.05364 4
    endloop
  endfacet
  facet normal 0 0 1
    outer loop
      vertex -31.309 0.951056 4
      vertex -33 7 4
      vertex -31.5878 0.809016 4
    endloop
  endfacet
  facet normal 0 0 1
    outer loop
      vertex -31.5878 0.809016 4
      vertex -33 7 4
      vertex -31.809 0.587785 4
    endloop
  endfacet
  facet normal 0 0 1
    outer loop
      vertex -31.809 0.587785 4
      vertex -33 7 4
      vertex -31.9511 0.309016 4
    endloop
  endfacet
  facet normal 0 0 1
    outer loop
      vertex 5.22937 3.17226 4
      vertex -2.04894 0.309016 4
      vertex -2 0 4
    endloop
  endfacet
  facet normal 0 0 1
    outer loop
      vertex 5.22937 3.17226 4
      vertex -2.19098 0.587785 4
      vertex -2.04894 0.309016 4
    endloop
  endfacet
  facet normal 0 0 1
    outer loop
      vertex 5.22937 3.17226 4
      vertex -2.41221 0.809016 4
      vertex -2.19098 0.587785 4
    endloop
  endfacet
  facet normal 0 0 1
    outer loop
      vertex -2 10 4
      vertex -2.69098 0.951056 4
      vertex -2.41221 0.809016 4
    endloop
  endfacet
  facet normal -0 0 1
    outer loop
      vertex -5.5 6.25 4
      vertex -2.69098 0.951056 4
      vertex -2 10 4
    endloop
  endfacet
  facet normal 0 0 1
    outer loop
      vertex -2.69098 0.951056 4
      vertex -5.5 6.25 4
      vertex -3 1 4
    endloop
  endfacet
  facet normal 0 0 1
    outer loop
      vertex -3 1 4
      vertex -5.5 6.25 4
      vertex -3.30902 0.951056 4
    endloop
  endfacet
  facet normal 0 0 1
    outer loop
      vertex -3.30902 0.951056 4
      vertex -5.5 6.25 4
      vertex -3.58778 0.809016 4
    endloop
  endfacet
  facet normal 0 0 1
    outer loop
      vertex -3.58778 0.809016 4
      vertex -5.5 6.25 4
      vertex -3.80902 0.587785 4
    endloop
  endfacet
  facet normal 0 0 1
    outer loop
      vertex -3.95106 0.309016 4
      vertex -5.5 6.25 4
      vertex -4 0 4
    endloop
  endfacet
  facet normal 0 0 1
    outer loop
      vertex -3.80902 0.587785 4
      vertex -5.5 6.25 4
      vertex -3.95106 0.309016 4
    endloop
  endfacet
  facet normal -0 0 1
    outer loop
      vertex -30 10 4
      vertex -5.5 6.25 4
      vertex -2 10 4
    endloop
  endfacet
  facet normal -0 0 1
    outer loop
      vertex -30 9.99408 4
      vertex -28.5 6.25 4
      vertex -30 10 4
    endloop
  endfacet
  facet normal 0 0 1
    outer loop
      vertex -5.5 6.25 4
      vertex -30 10 4
      vertex -28.5 6.25 4
    endloop
  endfacet
  facet normal -0 0 1
    outer loop
      vertex 19.9848 42.6038 4
      vertex 25.9833 42.473 4
      vertex 25.796 49.3399 4
    endloop
  endfacet
  facet normal 0 0 1
    outer loop
      vertex 19.8135 48.8822 4
      vertex 25.796 49.3399 4
      vertex 24.9365 56.1554 4
    endloop
  endfacet
  facet normal 0 0 1
    outer loop
      vertex 25.9833 42.473 4
      vertex 19.9848 42.6038 4
      vertex 25.4967 35.6208 4
    endloop
  endfacet
  facet normal 0 0 1
    outer loop
      vertex 19.0277 55.1135 4
      vertex 24.9365 56.1554 4
      vertex 23.4131 62.8538 4
    endloop
  endfacet
  facet normal -0 0 1
    outer loop
      vertex 19.5398 36.339 4
      vertex 25.4967 35.6208 4
      vertex 19.9848 42.6038 4
    endloop
  endfacet
  facet normal 0 0 1
    outer loop
      vertex 17.6349 61.2378 4
      vertex 23.4131 62.8538 4
      vertex 21.2406 69.3707 4
    endloop
  endfacet
  facet normal 0 0 1
    outer loop
      vertex 25.4967 35.6208 4
      vertex 19.5398 36.339 4
      vertex 24.3407 28.8492 4
    endloop
  endfacet
  facet normal -0 0 1
    outer loop
      vertex 18.4829 30.1479 4
      vertex 24.3407 28.8492 4
      vertex 19.5398 36.339 4
    endloop
  endfacet
  facet normal 0 0 1
    outer loop
      vertex 25.796 49.3399 4
      vertex 19.8135 48.8822 4
      vertex 19.9848 42.6038 4
    endloop
  endfacet
  facet normal 0 0 1
    outer loop
      vertex 24.9365 56.1554 4
      vertex 19.0277 55.1135 4
      vertex 19.8135 48.8822 4
    endloop
  endfacet
  facet normal 0 0 1
    outer loop
      vertex 15.6485 67.196 4
      vertex 21.2406 69.3707 4
      vertex 18.4396 75.6432 4
    endloop
  endfacet
  facet normal 0 0 1
    outer loop
      vertex 23.4131 62.8538 4
      vertex 17.6349 61.2378 4
      vertex 19.0277 55.1135 4
    endloop
  endfacet
  facet normal 0 0 1
    outer loop
      vertex 21.2406 69.3707 4
      vertex 15.6485 67.196 4
      vertex 17.6349 61.2378 4
    endloop
  endfacet
  facet normal 0 0 1
    outer loop
      vertex 13.0877 72.9309 4
      vertex 18.4396 75.6432 4
      vertex 15.0374 81.611 4
    endloop
  endfacet
  facet normal 0 0 1
    outer loop
      vertex 18.4396 75.6432 4
      vertex 13.0877 72.9309 4
      vertex 15.6485 67.196 4
    endloop
  endfacet
  facet normal 0 0 1
    outer loop
      vertex 9.97705 78.3872 4
      vertex 15.0374 81.611 4
      vertex 11.0666 87.2165 4
    endloop
  endfacet
  facet normal 0 0 1
    outer loop
      vertex 15.0374 81.611 4
      vertex 9.97705 78.3872 4
      vertex 13.0877 72.9309 4
    endloop
  endfacet
  facet normal 0 0 1
    outer loop
      vertex 6.34659 83.5123 4
      vertex 11.0666 87.2165 4
      vertex 6.56547 92.4059 4
    endloop
  endfacet
  facet normal 0 0 1
    outer loop
      vertex 11.0666 87.2165 4
      vertex 6.34659 83.5123 4
      vertex 9.97705 78.3872 4
    endloop
  endfacet
  facet normal 0 0 1
    outer loop
      vertex 6.56547 92.4059 4
      vertex 2.23129 88.2568 4
      vertex 6.34659 83.5123 4
    endloop
  endfacet
  facet normal 0 0 1
    outer loop
      vertex 1.57737 97.1291 4
      vertex 2.23129 88.2568 4
      vertex 6.56547 92.4059 4
    endloop
  endfacet
  facet normal 0 0 1
    outer loop
      vertex 1.57737 97.1291 4
      vertex -2.32926 92.5752 4
      vertex 2.23129 88.2568 4
    endloop
  endfacet
  facet normal 0 0 1
    outer loop
      vertex -3.84966 101.341 4
      vertex -2.32926 92.5752 4
      vertex 1.57737 97.1291 4
    endloop
  endfacet
  facet normal 0 0 1
    outer loop
      vertex -3.84966 101.341 4
      vertex -7.29112 96.4257 4
      vertex -2.32926 92.5752 4
    endloop
  endfacet
  facet normal 0 0 1
    outer loop
      vertex -9.66336 105 4
      vertex -7.29112 96.4257 4
      vertex -3.84966 101.341 4
    endloop
  endfacet
  facet normal 0 0 1
    outer loop
      vertex -9.66336 105 4
      vertex -12.6065 99.7714 4
      vertex -7.29112 96.4257 4
    endloop
  endfacet
  facet normal 0 0 1
    outer loop
      vertex -15.8077 108.072 4
      vertex -12.6065 99.7714 4
      vertex -9.66336 105 4
    endloop
  endfacet
  facet normal 0 0 1
    outer loop
      vertex -15.8077 108.072 4
      vertex -18.2242 102.58 4
      vertex -12.6065 99.7714 4
    endloop
  endfacet
  facet normal 0 0 1
    outer loop
      vertex -22.2236 110.527 4
      vertex -18.2242 102.58 4
      vertex -15.8077 108.072 4
    endloop
  endfacet
  facet normal 0 0 1
    outer loop
      vertex -22.2236 110.527 4
      vertex -24.0902 104.824 4
      vertex -18.2242 102.58 4
    endloop
  endfacet
  facet normal 0 0 1
    outer loop
      vertex -28.8492 112.341 4
      vertex -24.0902 104.824 4
      vertex -22.2236 110.527 4
    endloop
  endfacet
  facet normal 0 0 1
    outer loop
      vertex -28.8492 112.341 4
      vertex -30.1479 106.483 4
      vertex -24.0902 104.824 4
    endloop
  endfacet
  facet normal 0 0 1
    outer loop
      vertex -31.6106 112.812 4
      vertex -30.1479 106.483 4
      vertex -28.8492 112.341 4
    endloop
  endfacet
  facet normal 0 0 1
    outer loop
      vertex -33.6807 112.678 4
      vertex -31.6106 112.812 4
      vertex -31.8446 112.937 4
    endloop
  endfacet
  facet normal 0 0 1
    outer loop
      vertex -31.6106 112.812 4
      vertex -32.8865 107.028 4
      vertex -30.1479 106.483 4
    endloop
  endfacet
  facet normal 0 0 1
    outer loop
      vertex -30.1479 106.483 4
      vertex -32.8865 107.028 4
      vertex -32.8997 106.953 4
    endloop
  endfacet
  facet normal 0 0 1
    outer loop
      vertex 24.3407 28.8492 4
      vertex 18.4829 30.1479 4
      vertex 22.5266 22.2236 4
    endloop
  endfacet
  facet normal -0 0 1
    outer loop
      vertex 16.8243 24.0902 4
      vertex 22.5266 22.2236 4
      vertex 18.4829 30.1479 4
    endloop
  endfacet
  facet normal 0 0 1
    outer loop
      vertex 22.5266 22.2236 4
      vertex 16.8243 24.0902 4
      vertex 20.0718 15.8077 4
    endloop
  endfacet
  facet normal -0 0 1
    outer loop
      vertex 14.5799 18.2242 4
      vertex 20.0718 15.8077 4
      vertex 16.8243 24.0902 4
    endloop
  endfacet
  facet normal 0 0 1
    outer loop
      vertex 20.0718 15.8077 4
      vertex 14.5799 18.2242 4
      vertex 16.9999 9.66336 4
    endloop
  endfacet
  facet normal -0 0 1
    outer loop
      vertex 11.7714 12.6065 4
      vertex 16.9999 9.66336 4
      vertex 14.5799 18.2242 4
    endloop
  endfacet
  facet normal 0 0 1
    outer loop
      vertex 16.9999 9.66336 4
      vertex 11.7714 12.6065 4
      vertex 13.3406 3.84966 4
    endloop
  endfacet
  facet normal -0 0 1
    outer loop
      vertex 8.42572 7.29112 4
      vertex 13.3406 3.84966 4
      vertex 11.7714 12.6065 4
    endloop
  endfacet
  facet normal 0 0 1
    outer loop
      vertex 5.22937 3.17226 4
      vertex 13.3406 3.84966 4
      vertex 8.42572 7.29112 4
    endloop
  endfacet
  facet normal 0 0 1
    outer loop
      vertex 13.3406 3.84966 4
      vertex 5.22937 3.17226 4
      vertex 9.12909 -1.57737 4
    endloop
  endfacet
  facet normal 0 0 1
    outer loop
      vertex 5.22937 3.17226 4
      vertex 4.4059 -6.56547 4
      vertex 9.12909 -1.57737 4
    endloop
  endfacet
  facet normal -0 0 1
    outer loop
      vertex -2.04894 -0.309016 4
      vertex 4.4059 -6.56547 4
      vertex 5.22937 3.17226 4
    endloop
  endfacet
  facet normal 0 0 1
    outer loop
      vertex -2.41221 0.809016 4
      vertex 5.22937 3.17226 4
      vertex -2 10 4
    endloop
  endfacet
  facet normal 0 0 1
    outer loop
      vertex -2.04894 -0.309016 4
      vertex 5.22937 3.17226 4
      vertex -2 0 4
    endloop
  endfacet
  facet normal 0 0 1
    outer loop
      vertex 4.4059 -6.56547 4
      vertex -2.04894 -0.309016 4
      vertex -2.19098 -0.587785 4
    endloop
  endfacet
  facet normal -0 0 1
    outer loop
      vertex -2.41221 -0.809016 4
      vertex 4.4059 -6.56547 4
      vertex -2.19098 -0.587785 4
    endloop
  endfacet
  facet normal -0 0 1
    outer loop
      vertex -2.69098 -0.951056 4
      vertex 4.4059 -6.56547 4
      vertex -2.41221 -0.809016 4
    endloop
  endfacet
  facet normal -0 0 1
    outer loop
      vertex -5.5 -6.25 4
      vertex 4.4059 -6.56547 4
      vertex -2.69098 -0.951056 4
    endloop
  endfacet
  facet normal 0 0 1
    outer loop
      vertex -5.5 -6.25 4
      vertex -2.69098 -0.951056 4
      vertex -3 -1 4
    endloop
  endfacet
  facet normal 0 0 1
    outer loop
      vertex -5.5 -6.25 4
      vertex -3 -1 4
      vertex -3.30902 -0.951056 4
    endloop
  endfacet
  facet normal 0 0 1
    outer loop
      vertex -5.5 -6.25 4
      vertex -3.30902 -0.951056 4
      vertex -3.58778 -0.809016 4
    endloop
  endfacet
  facet normal 0 0 1
    outer loop
      vertex -5.5 -6.25 4
      vertex -3.58778 -0.809016 4
      vertex -3.80902 -0.587785 4
    endloop
  endfacet
  facet normal 0 0 1
    outer loop
      vertex -5.5 -6.25 4
      vertex -3.80902 -0.587785 4
      vertex -3.95106 -0.309016 4
    endloop
  endfacet
  facet normal 0 0 1
    outer loop
      vertex -5.5 -6.25 4
      vertex -4 0 4
      vertex -5.5 6.25 4
    endloop
  endfacet
  facet normal 0 0 1
    outer loop
      vertex -4 0 4
      vertex -5.5 -6.25 4
      vertex -3.95106 -0.309016 4
    endloop
  endfacet
  facet normal 0 0 1
    outer loop
      vertex 4.4059 -6.56547 4
      vertex -5.5 -6.25 4
      vertex -0.783473 -11.0666 4
    endloop
  endfacet
  facet normal 0 0 1
    outer loop
      vertex -5.5 -6.25 4
      vertex -6.38904 -15.0374 4
      vertex -0.783473 -11.0666 4
    endloop
  endfacet
  facet normal 0 0 1
    outer loop
      vertex -5.5 -6.25 4
      vertex -9.6531 -10 4
      vertex -6.38904 -15.0374 4
    endloop
  endfacet
  facet normal -0 0 1
    outer loop
      vertex -28.5 -6.25 4
      vertex -9.6531 -10 4
      vertex -5.5 -6.25 4
    endloop
  endfacet
  facet normal -0 0 1
    outer loop
      vertex -30.5621 9.94686 4
      vertex -28.5 6.25 4
      vertex -30 9.99408 4
    endloop
  endfacet
  facet normal 0 0 1
    outer loop
      vertex -28.5 6.25 4
      vertex -30 0 4
      vertex -28.5 -6.25 4
    endloop
  endfacet
  facet normal -0 0 1
    outer loop
      vertex -30.0489 -0.309016 4
      vertex -28.5 -6.25 4
      vertex -30 0 4
    endloop
  endfacet
  facet normal 0 0 1
    outer loop
      vertex -30 -10 4
      vertex -28.5 -6.25 4
      vertex -30 -9.99408 4
    endloop
  endfacet
  facet normal 0 0 1
    outer loop
      vertex -28.5 -6.25 4
      vertex -30 -10 4
      vertex -9.6531 -10 4
    endloop
  endfacet
  facet normal 0 0 1
    outer loop
      vertex -9.6531 -10 4
      vertex -12.3568 -18.4396 4
      vertex -6.38904 -15.0374 4
    endloop
  endfacet
  facet normal -0 0 1
    outer loop
      vertex -15.0691 -13.0877 4
      vertex -12.3568 -18.4396 4
      vertex -9.6531 -10 4
    endloop
  endfacet
  facet normal 0 0 1
    outer loop
      vertex -15.0691 -13.0877 4
      vertex -18.6293 -21.2406 4
      vertex -12.3568 -18.4396 4
    endloop
  endfacet
  facet normal -0 0 1
    outer loop
      vertex -20.804 -15.6485 4
      vertex -18.6293 -21.2406 4
      vertex -15.0691 -13.0877 4
    endloop
  endfacet
  facet normal 0 0 1
    outer loop
      vertex -20.804 -15.6485 4
      vertex -25.1462 -23.4131 4
      vertex -18.6293 -21.2406 4
    endloop
  endfacet
  facet normal -0 0 1
    outer loop
      vertex -26.7622 -17.6349 4
      vertex -25.1462 -23.4131 4
      vertex -20.804 -15.6485 4
    endloop
  endfacet
  facet normal 0 0 1
    outer loop
      vertex -26.7622 -17.6349 4
      vertex -31.8446 -24.9365 4
      vertex -25.1462 -23.4131 4
    endloop
  endfacet
  facet normal -0 0 1
    outer loop
      vertex -32.8865 -19.0277 4
      vertex -31.8446 -24.9365 4
      vertex -26.7622 -17.6349 4
    endloop
  endfacet
  facet normal 0 0 1
    outer loop
      vertex -32.8865 -19.0277 4
      vertex -33.6807 -24.6785 4
      vertex -31.8446 -24.9365 4
    endloop
  endfacet
  facet normal -0 0 1
    outer loop
      vertex -34.5236 -19.8981 4
      vertex -33.6807 -24.6785 4
      vertex -32.8865 -19.0277 4
    endloop
  endfacet
  facet normal 0 0 1
    outer loop
      vertex -34.5236 -19.8981 4
      vertex -35.0144 -23.3905 4
      vertex -33.6807 -24.6785 4
    endloop
  endfacet
  facet normal 0 -0 1
    outer loop
      vertex -35.0144 -23.3905 4
      vertex -34.5236 -19.8981 4
      vertex -35.3364 -21.5646 4
    endloop
  endfacet
  facet normal -0 0 -1
    outer loop
      vertex -31.6106 112.812 0
      vertex -33.6807 112.678 0
      vertex -31.8446 112.937 0
    endloop
  endfacet
  facet normal 0 0 -1
    outer loop
      vertex -35.3364 109.565 0
      vertex -31.6106 112.812 0
      vertex -34.5236 107.898 0
    endloop
  endfacet
  facet normal 0 0 -1
    outer loop
      vertex -31.6106 112.812 0
      vertex -35.0144 111.391 0
      vertex -33.6807 112.678 0
    endloop
  endfacet
  facet normal 0 0 -1
    outer loop
      vertex -31.6106 112.812 0
      vertex -35.3364 109.565 0
      vertex -35.0144 111.391 0
    endloop
  endfacet
  facet normal 0 0 -1
    outer loop
      vertex -30.191 0.587785 0
      vertex -28.5 6.25 0
      vertex -30.0489 0.309016 0
    endloop
  endfacet
  facet normal 0 0 -1
    outer loop
      vertex -30.4122 0.809016 0
      vertex -28.5 6.25 0
      vertex -30.191 0.587785 0
    endloop
  endfacet
  facet normal 0 0 -1
    outer loop
      vertex -30.691 0.951056 0
      vertex -28.5 6.25 0
      vertex -30.4122 0.809016 0
    endloop
  endfacet
  facet normal 0 -0 -1
    outer loop
      vertex -32.9763 7.376 0
      vertex -28.5 6.25 0
      vertex -33 7 0
    endloop
  endfacet
  facet normal 0 0 -1
    outer loop
      vertex -28.5 6.25 0
      vertex -30.5621 9.94686 0
      vertex -30 9.99408 0
    endloop
  endfacet
  facet normal 0 0 -1
    outer loop
      vertex -31 1 0
      vertex -28.5 6.25 0
      vertex -30.691 0.951056 0
    endloop
  endfacet
  facet normal -0 0 -1
    outer loop
      vertex -30 9.99408 0
      vertex -30.5621 9.94686 0
      vertex -30.1884 9.99408 0
    endloop
  endfacet
  facet normal -0 0 -1
    outer loop
      vertex -28.5 6.25 0
      vertex -31 1 0
      vertex -33 7 0
    endloop
  endfacet
  facet normal 0 0 -1
    outer loop
      vertex -28.5 6.25 0
      vertex -30.9271 9.85317 0
      vertex -30.5621 9.94686 0
    endloop
  endfacet
  facet normal 0 0 -1
    outer loop
      vertex -33 7 0
      vertex -31 1 0
      vertex -31.309 0.951056 0
    endloop
  endfacet
  facet normal 0 0 -1
    outer loop
      vertex -33 7 0
      vertex -31.309 0.951056 0
      vertex -31.5878 0.809016 0
    endloop
  endfacet
  facet normal 0 0 -1
    outer loop
      vertex -28.5 6.25 0
      vertex -31.2773 9.71448 0
      vertex -30.9271 9.85317 0
    endloop
  endfacet
  facet normal 0 0 -1
    outer loop
      vertex -33 7 0
      vertex -31.5878 0.809016 0
      vertex -31.809 0.587785 0
    endloop
  endfacet
  facet normal 0 0 -1
    outer loop
      vertex -28.5 6.25 0
      vertex -31.6075 9.53298 0
      vertex -31.2773 9.71448 0
    endloop
  endfacet
  facet normal 0 0 -1
    outer loop
      vertex -33 7 0
      vertex -31.809 0.587785 0
      vertex -31.9511 0.309016 0
    endloop
  endfacet
  facet normal 0 0 -1
    outer loop
      vertex -33 7 0
      vertex -31.9511 0.309016 0
      vertex -32 0 0
    endloop
  endfacet
  facet normal -0 0 -1
    outer loop
      vertex -31.9511 -0.309016 0
      vertex -33 -7 0
      vertex -32 0 0
    endloop
  endfacet
  facet normal 0 0 -1
    outer loop
      vertex -33 7 0
      vertex -32 0 0
      vertex -33 -7 0
    endloop
  endfacet
  facet normal 0 0 -1
    outer loop
      vertex -33 -7 0
      vertex -32.1869 -9.05364 0
      vertex -32.4271 -8.76336 0
    endloop
  endfacet
  facet normal 0 0 -1
    outer loop
      vertex -28.5 6.25 0
      vertex -31.9123 9.31154 0
      vertex -31.6075 9.53298 0
    endloop
  endfacet
  facet normal 0 0 -1
    outer loop
      vertex -33 -7 0
      vertex -32.4271 -8.76336 0
      vertex -32.6289 -8.44526 0
    endloop
  endfacet
  facet normal 0 0 -1
    outer loop
      vertex -28.5 6.25 0
      vertex -32.1869 9.05364 0
      vertex -31.9123 9.31154 0
    endloop
  endfacet
  facet normal 0 0 -1
    outer loop
      vertex -33 -7 0
      vertex -32.6289 -8.44526 0
      vertex -32.7893 -8.10437 0
    endloop
  endfacet
  facet normal 0 0 -1
    outer loop
      vertex -28.5 6.25 0
      vertex -32.4271 8.76336 0
      vertex -32.1869 9.05364 0
    endloop
  endfacet
  facet normal 0 0 -1
    outer loop
      vertex -33 -7 0
      vertex -32.7893 -8.10437 0
      vertex -32.9058 -7.74607 0
    endloop
  endfacet
  facet normal 0 0 -1
    outer loop
      vertex -28.5 6.25 0
      vertex -32.6289 8.44526 0
      vertex -32.4271 8.76336 0
    endloop
  endfacet
  facet normal 0 0 -1
    outer loop
      vertex -33 -7 0
      vertex -32.9058 -7.74607 0
      vertex -32.9763 -7.376 0
    endloop
  endfacet
  facet normal 0 0 -1
    outer loop
      vertex -28.5 6.25 0
      vertex -32.7893 8.10437 0
      vertex -32.6289 8.44526 0
    endloop
  endfacet
  facet normal 0 0 -1
    outer loop
      vertex -28.5 6.25 0
      vertex -32.9058 7.74607 0
      vertex -32.7893 8.10437 0
    endloop
  endfacet
  facet normal 0 0 -1
    outer loop
      vertex -28.5 6.25 0
      vertex -32.9763 7.376 0
      vertex -32.9058 7.74607 0
    endloop
  endfacet
  facet normal 0 0 -1
    outer loop
      vertex -28.5 -6.25 0
      vertex -30.0489 -0.309016 0
      vertex -30 0 0
    endloop
  endfacet
  facet normal 0 0 -1
    outer loop
      vertex -30.5621 -9.94686 0
      vertex -30 -9.99408 0
      vertex -30.1884 -9.99408 0
    endloop
  endfacet
  facet normal 0 0 -1
    outer loop
      vertex -28.5 -6.25 0
      vertex -30.191 -0.587785 0
      vertex -30.0489 -0.309016 0
    endloop
  endfacet
  facet normal 0 0 -1
    outer loop
      vertex -28.5 -6.25 0
      vertex -30.4122 -0.809016 0
      vertex -30.191 -0.587785 0
    endloop
  endfacet
  facet normal 0 0 -1
    outer loop
      vertex -30.9271 -9.85317 0
      vertex -28.5 -6.25 0
      vertex -30.5621 -9.94686 0
    endloop
  endfacet
  facet normal 0 0 -1
    outer loop
      vertex -28.5 -6.25 0
      vertex -30.691 -0.951056 0
      vertex -30.4122 -0.809016 0
    endloop
  endfacet
  facet normal 0 0 -1
    outer loop
      vertex -31.2773 -9.71448 0
      vertex -28.5 -6.25 0
      vertex -30.9271 -9.85317 0
    endloop
  endfacet
  facet normal 0 0 -1
    outer loop
      vertex -33 -7 0
      vertex -28.5 -6.25 0
      vertex -32.1869 -9.05364 0
    endloop
  endfacet
  facet normal 0 0 -1
    outer loop
      vertex -31.6075 -9.53298 0
      vertex -28.5 -6.25 0
      vertex -31.2773 -9.71448 0
    endloop
  endfacet
  facet normal 0 0 -1
    outer loop
      vertex -28.5 -6.25 0
      vertex -31 -1 0
      vertex -30.691 -0.951056 0
    endloop
  endfacet
  facet normal 0 0 -1
    outer loop
      vertex -33 -7 0
      vertex -31 -1 0
      vertex -28.5 -6.25 0
    endloop
  endfacet
  facet normal 0 0 -1
    outer loop
      vertex -31.9123 -9.31154 0
      vertex -28.5 -6.25 0
      vertex -31.6075 -9.53298 0
    endloop
  endfacet
  facet normal -0 0 -1
    outer loop
      vertex -31 -1 0
      vertex -33 -7 0
      vertex -31.309 -0.951056 0
    endloop
  endfacet
  facet normal 0 0 -1
    outer loop
      vertex -28.5 -6.25 0
      vertex -31.9123 -9.31154 0
      vertex -32.1869 -9.05364 0
    endloop
  endfacet
  facet normal -0 0 -1
    outer loop
      vertex -31.309 -0.951056 0
      vertex -33 -7 0
      vertex -31.5878 -0.809016 0
    endloop
  endfacet
  facet normal -0 0 -1
    outer loop
      vertex -31.5878 -0.809016 0
      vertex -33 -7 0
      vertex -31.809 -0.587785 0
    endloop
  endfacet
  facet normal -0 0 -1
    outer loop
      vertex -31.809 -0.587785 0
      vertex -33 -7 0
      vertex -31.9511 -0.309016 0
    endloop
  endfacet
  facet normal 0 0 -1
    outer loop
      vertex -12.3568 -18.4396 0
      vertex -9.6531 -10 0
      vertex -6.38904 -15.0374 0
    endloop
  endfacet
  facet normal 0 0 -1
    outer loop
      vertex -12.3568 -18.4396 0
      vertex -15.0691 -13.0877 0
      vertex -9.6531 -10 0
    endloop
  endfacet
  facet normal 0 0 -1
    outer loop
      vertex -18.6293 -21.2406 0
      vertex -15.0691 -13.0877 0
      vertex -12.3568 -18.4396 0
    endloop
  endfacet
  facet normal 0 0 -1
    outer loop
      vertex -18.6293 -21.2406 0
      vertex -20.804 -15.6485 0
      vertex -15.0691 -13.0877 0
    endloop
  endfacet
  facet normal 0 0 -1
    outer loop
      vertex -25.1462 -23.4131 0
      vertex -20.804 -15.6485 0
      vertex -18.6293 -21.2406 0
    endloop
  endfacet
  facet normal 0 0 -1
    outer loop
      vertex -25.1462 -23.4131 0
      vertex -26.7622 -17.6349 0
      vertex -20.804 -15.6485 0
    endloop
  endfacet
  facet normal 0 0 -1
    outer loop
      vertex -31.8446 -24.9365 0
      vertex -26.7622 -17.6349 0
      vertex -25.1462 -23.4131 0
    endloop
  endfacet
  facet normal 0 0 -1
    outer loop
      vertex -31.8446 -24.9365 0
      vertex -32.8865 -19.0277 0
      vertex -26.7622 -17.6349 0
    endloop
  endfacet
  facet normal 0 0 -1
    outer loop
      vertex -33.6807 -24.6785 0
      vertex -32.8865 -19.0277 0
      vertex -31.8446 -24.9365 0
    endloop
  endfacet
  facet normal 0 0 -1
    outer loop
      vertex -33.6807 -24.6785 0
      vertex -34.5236 -19.8981 0
      vertex -32.8865 -19.0277 0
    endloop
  endfacet
  facet normal 0 0 -1
    outer loop
      vertex -35.0144 -23.3905 0
      vertex -34.5236 -19.8981 0
      vertex -33.6807 -24.6785 0
    endloop
  endfacet
  facet normal 0 0 -1
    outer loop
      vertex -34.5236 -19.8981 0
      vertex -35.0144 -23.3905 0
      vertex -35.3364 -21.5646 0
    endloop
  endfacet
  facet normal 0 0 -1
    outer loop
      vertex 5.22937 3.17226 0
      vertex -2.04894 -0.309016 0
      vertex -2 0 0
    endloop
  endfacet
  facet normal 0 0 -1
    outer loop
      vertex 4.4059 -6.56547 0
      vertex -2.19098 -0.587785 0
      vertex -2.04894 -0.309016 0
    endloop
  endfacet
  facet normal 0 0 -1
    outer loop
      vertex 4.4059 -6.56547 0
      vertex -2.41221 -0.809016 0
      vertex -2.19098 -0.587785 0
    endloop
  endfacet
  facet normal 0 0 -1
    outer loop
      vertex 4.4059 -6.56547 0
      vertex -2.69098 -0.951056 0
      vertex -2.41221 -0.809016 0
    endloop
  endfacet
  facet normal 0 0 -1
    outer loop
      vertex 4.4059 -6.56547 0
      vertex -5.5 -6.25 0
      vertex -2.69098 -0.951056 0
    endloop
  endfacet
  facet normal 0 0 -1
    outer loop
      vertex -2.69098 -0.951056 0
      vertex -5.5 -6.25 0
      vertex -3 -1 0
    endloop
  endfacet
  facet normal -0 0 -1
    outer loop
      vertex -3 -1 0
      vertex -5.5 -6.25 0
      vertex -3.30902 -0.951056 0
    endloop
  endfacet
  facet normal -0 0 -1
    outer loop
      vertex -3.30902 -0.951056 0
      vertex -5.5 -6.25 0
      vertex -3.58778 -0.809016 0
    endloop
  endfacet
  facet normal -0 0 -1
    outer loop
      vertex -3.58778 -0.809016 0
      vertex -5.5 -6.25 0
      vertex -3.80902 -0.587785 0
    endloop
  endfacet
  facet normal -0 0 -1
    outer loop
      vertex -3.95106 -0.309016 0
      vertex -5.5 -6.25 0
      vertex -4 0 0
    endloop
  endfacet
  facet normal -0 0 -1
    outer loop
      vertex -3.80902 -0.587785 0
      vertex -5.5 -6.25 0
      vertex -3.95106 -0.309016 0
    endloop
  endfacet
  facet normal 0 0 -1
    outer loop
      vertex -6.38904 -15.0374 0
      vertex -5.5 -6.25 0
      vertex -0.783473 -11.0666 0
    endloop
  endfacet
  facet normal 0 0 -1
    outer loop
      vertex -9.6531 -10 0
      vertex -5.5 -6.25 0
      vertex -6.38904 -15.0374 0
    endloop
  endfacet
  facet normal 0 0 -1
    outer loop
      vertex -9.6531 -10 0
      vertex -28.5 -6.25 0
      vertex -5.5 -6.25 0
    endloop
  endfacet
  facet normal 0 0 -1
    outer loop
      vertex -30 -9.99408 0
      vertex -28.5 -6.25 0
      vertex -30 -10 0
    endloop
  endfacet
  facet normal 0 0 -1
    outer loop
      vertex -30 -10 0
      vertex -28.5 -6.25 0
      vertex -9.6531 -10 0
    endloop
  endfacet
  facet normal 0 0 -1
    outer loop
      vertex 25.4967 35.6208 0
      vertex 19.5398 36.339 0
      vertex 19.9848 42.6038 0
    endloop
  endfacet
  facet normal 0 0 -1
    outer loop
      vertex 22.5266 22.2236 0
      vertex 18.4829 30.1479 0
      vertex 19.5398 36.339 0
    endloop
  endfacet
  facet normal 0 0 -1
    outer loop
      vertex 14.5799 18.2242 0
      vertex 20.0718 15.8077 0
      vertex 16.9999 9.66336 0
    endloop
  endfacet
  facet normal 0 0 -1
    outer loop
      vertex 22.5266 22.2236 0
      vertex 16.8243 24.0902 0
      vertex 18.4829 30.1479 0
    endloop
  endfacet
  facet normal 0 0 -1
    outer loop
      vertex 20.0718 15.8077 0
      vertex 14.5799 18.2242 0
      vertex 16.8243 24.0902 0
    endloop
  endfacet
  facet normal 0 0 -1
    outer loop
      vertex 11.7714 12.6065 0
      vertex 16.9999 9.66336 0
      vertex 13.3406 3.84966 0
    endloop
  endfacet
  facet normal 0 0 -1
    outer loop
      vertex 16.9999 9.66336 0
      vertex 11.7714 12.6065 0
      vertex 14.5799 18.2242 0
    endloop
  endfacet
  facet normal 0 0 -1
    outer loop
      vertex 5.22937 3.17226 0
      vertex 13.3406 3.84966 0
      vertex 9.12909 -1.57737 0
    endloop
  endfacet
  facet normal 0 0 -1
    outer loop
      vertex 13.3406 3.84966 0
      vertex 8.42572 7.29112 0
      vertex 11.7714 12.6065 0
    endloop
  endfacet
  facet normal -0 0 -1
    outer loop
      vertex 13.3406 3.84966 0
      vertex 5.22937 3.17226 0
      vertex 8.42572 7.29112 0
    endloop
  endfacet
  facet normal 0 0 -1
    outer loop
      vertex 4.4059 -6.56547 0
      vertex 5.22937 3.17226 0
      vertex 9.12909 -1.57737 0
    endloop
  endfacet
  facet normal 0 0 -1
    outer loop
      vertex -5.5 -6.25 0
      vertex 4.4059 -6.56547 0
      vertex -0.783473 -11.0666 0
    endloop
  endfacet
  facet normal 0 0 -1
    outer loop
      vertex -2.04894 -0.309016 0
      vertex 5.22937 3.17226 0
      vertex 4.4059 -6.56547 0
    endloop
  endfacet
  facet normal 0 0 -1
    outer loop
      vertex -2.04894 0.309016 0
      vertex 5.22937 3.17226 0
      vertex -2 0 0
    endloop
  endfacet
  facet normal 0 0 -1
    outer loop
      vertex -2.19098 0.587785 0
      vertex 5.22937 3.17226 0
      vertex -2.04894 0.309016 0
    endloop
  endfacet
  facet normal 0 0 -1
    outer loop
      vertex -2.41221 0.809016 0
      vertex 5.22937 3.17226 0
      vertex -2.19098 0.587785 0
    endloop
  endfacet
  facet normal -0 0 -1
    outer loop
      vertex 5.22937 3.17226 0
      vertex -2.41221 0.809016 0
      vertex -2 10 0
    endloop
  endfacet
  facet normal 0 0 -1
    outer loop
      vertex -2.69098 0.951056 0
      vertex -2 10 0
      vertex -2.41221 0.809016 0
    endloop
  endfacet
  facet normal 0 0 -1
    outer loop
      vertex -5.5 6.25 0
      vertex -2.69098 0.951056 0
      vertex -3 1 0
    endloop
  endfacet
  facet normal 0 0 -1
    outer loop
      vertex -5.5 6.25 0
      vertex -3 1 0
      vertex -3.30902 0.951056 0
    endloop
  endfacet
  facet normal 0 0 -1
    outer loop
      vertex -5.5 6.25 0
      vertex -3.30902 0.951056 0
      vertex -3.58778 0.809016 0
    endloop
  endfacet
  facet normal 0 0 -1
    outer loop
      vertex -5.5 6.25 0
      vertex -3.58778 0.809016 0
      vertex -3.80902 0.587785 0
    endloop
  endfacet
  facet normal 0 0 -1
    outer loop
      vertex -5.5 6.25 0
      vertex -3.80902 0.587785 0
      vertex -3.95106 0.309016 0
    endloop
  endfacet
  facet normal 0 0 -1
    outer loop
      vertex -5.5 6.25 0
      vertex -4 0 0
      vertex -5.5 -6.25 0
    endloop
  endfacet
  facet normal 0 0 -1
    outer loop
      vertex -4 0 0
      vertex -5.5 6.25 0
      vertex -3.95106 0.309016 0
    endloop
  endfacet
  facet normal 0 0 -1
    outer loop
      vertex -2.69098 0.951056 0
      vertex -5.5 6.25 0
      vertex -2 10 0
    endloop
  endfacet
  facet normal 0 0 -1
    outer loop
      vertex -30 10 0
      vertex -5.5 6.25 0
      vertex -28.5 6.25 0
    endloop
  endfacet
  facet normal 0 0 -1
    outer loop
      vertex -30.5621 -9.94686 0
      vertex -28.5 -6.25 0
      vertex -30 -9.99408 0
    endloop
  endfacet
  facet normal 0 0 -1
    outer loop
      vertex -28.5 -6.25 0
      vertex -30 0 0
      vertex -28.5 6.25 0
    endloop
  endfacet
  facet normal 0 0 -1
    outer loop
      vertex -30.0489 0.309016 0
      vertex -28.5 6.25 0
      vertex -30 0 0
    endloop
  endfacet
  facet normal 0 0 -1
    outer loop
      vertex -30 10 0
      vertex -28.5 6.25 0
      vertex -30 9.99408 0
    endloop
  endfacet
  facet normal 0 0 -1
    outer loop
      vertex -5.5 6.25 0
      vertex -30 10 0
      vertex -2 10 0
    endloop
  endfacet
  facet normal 0 0 -1
    outer loop
      vertex 19.9848 42.6038 0
      vertex 25.9833 42.473 0
      vertex 25.4967 35.6208 0
    endloop
  endfacet
  facet normal 0 0 -1
    outer loop
      vertex 25.9833 42.473 0
      vertex 19.9848 42.6038 0
      vertex 25.796 49.3399 0
    endloop
  endfacet
  facet normal 0 0 -1
    outer loop
      vertex 19.5398 36.339 0
      vertex 25.4967 35.6208 0
      vertex 24.3407 28.8492 0
    endloop
  endfacet
  facet normal 0 0 -1
    outer loop
      vertex 19.8135 48.8822 0
      vertex 25.796 49.3399 0
      vertex 19.9848 42.6038 0
    endloop
  endfacet
  facet normal 0 0 -1
    outer loop
      vertex 19.5398 36.339 0
      vertex 24.3407 28.8492 0
      vertex 22.5266 22.2236 0
    endloop
  endfacet
  facet normal -0 0 -1
    outer loop
      vertex 25.796 49.3399 0
      vertex 19.8135 48.8822 0
      vertex 24.9365 56.1554 0
    endloop
  endfacet
  facet normal 0 0 -1
    outer loop
      vertex 16.8243 24.0902 0
      vertex 22.5266 22.2236 0
      vertex 20.0718 15.8077 0
    endloop
  endfacet
  facet normal 0 0 -1
    outer loop
      vertex 19.0277 55.1135 0
      vertex 24.9365 56.1554 0
      vertex 19.8135 48.8822 0
    endloop
  endfacet
  facet normal -0 0 -1
    outer loop
      vertex 24.9365 56.1554 0
      vertex 19.0277 55.1135 0
      vertex 23.4131 62.8538 0
    endloop
  endfacet
  facet normal 0 0 -1
    outer loop
      vertex 17.6349 61.2378 0
      vertex 23.4131 62.8538 0
      vertex 19.0277 55.1135 0
    endloop
  endfacet
  facet normal -0 0 -1
    outer loop
      vertex 23.4131 62.8538 0
      vertex 17.6349 61.2378 0
      vertex 21.2406 69.3707 0
    endloop
  endfacet
  facet normal 0 0 -1
    outer loop
      vertex 15.6485 67.196 0
      vertex 21.2406 69.3707 0
      vertex 17.6349 61.2378 0
    endloop
  endfacet
  facet normal -0 0 -1
    outer loop
      vertex 21.2406 69.3707 0
      vertex 15.6485 67.196 0
      vertex 18.4396 75.6432 0
    endloop
  endfacet
  facet normal 0 0 -1
    outer loop
      vertex 13.0877 72.9309 0
      vertex 18.4396 75.6432 0
      vertex 15.6485 67.196 0
    endloop
  endfacet
  facet normal -0 0 -1
    outer loop
      vertex 18.4396 75.6432 0
      vertex 13.0877 72.9309 0
      vertex 15.0374 81.611 0
    endloop
  endfacet
  facet normal 0 0 -1
    outer loop
      vertex 9.97705 78.3872 0
      vertex 15.0374 81.611 0
      vertex 13.0877 72.9309 0
    endloop
  endfacet
  facet normal -0 0 -1
    outer loop
      vertex 15.0374 81.611 0
      vertex 9.97705 78.3872 0
      vertex 11.0666 87.2165 0
    endloop
  endfacet
  facet normal 0 0 -1
    outer loop
      vertex 6.34659 83.5123 0
      vertex 11.0666 87.2165 0
      vertex 9.97705 78.3872 0
    endloop
  endfacet
  facet normal -0 0 -1
    outer loop
      vertex 11.0666 87.2165 0
      vertex 6.34659 83.5123 0
      vertex 6.56547 92.4059 0
    endloop
  endfacet
  facet normal 0 0 -1
    outer loop
      vertex 2.23129 88.2568 0
      vertex 6.56547 92.4059 0
      vertex 6.34659 83.5123 0
    endloop
  endfacet
  facet normal 0 0 -1
    outer loop
      vertex 2.23129 88.2568 0
      vertex 1.57737 97.1291 0
      vertex 6.56547 92.4059 0
    endloop
  endfacet
  facet normal 0 0 -1
    outer loop
      vertex -2.32926 92.5752 0
      vertex 1.57737 97.1291 0
      vertex 2.23129 88.2568 0
    endloop
  endfacet
  facet normal 0 0 -1
    outer loop
      vertex -2.32926 92.5752 0
      vertex -3.84966 101.341 0
      vertex 1.57737 97.1291 0
    endloop
  endfacet
  facet normal 0 0 -1
    outer loop
      vertex -7.29112 96.4257 0
      vertex -3.84966 101.341 0
      vertex -2.32926 92.5752 0
    endloop
  endfacet
  facet normal 0 0 -1
    outer loop
      vertex -7.29112 96.4257 0
      vertex -9.66336 105 0
      vertex -3.84966 101.341 0
    endloop
  endfacet
  facet normal 0 0 -1
    outer loop
      vertex -12.6065 99.7714 0
      vertex -9.66336 105 0
      vertex -7.29112 96.4257 0
    endloop
  endfacet
  facet normal 0 0 -1
    outer loop
      vertex -12.6065 99.7714 0
      vertex -15.8077 108.072 0
      vertex -9.66336 105 0
    endloop
  endfacet
  facet normal 0 0 -1
    outer loop
      vertex -18.2242 102.58 0
      vertex -15.8077 108.072 0
      vertex -12.6065 99.7714 0
    endloop
  endfacet
  facet normal 0 0 -1
    outer loop
      vertex -18.2242 102.58 0
      vertex -22.2236 110.527 0
      vertex -15.8077 108.072 0
    endloop
  endfacet
  facet normal 0 0 -1
    outer loop
      vertex -24.0902 104.824 0
      vertex -22.2236 110.527 0
      vertex -18.2242 102.58 0
    endloop
  endfacet
  facet normal 0 0 -1
    outer loop
      vertex -24.0902 104.824 0
      vertex -28.8492 112.341 0
      vertex -22.2236 110.527 0
    endloop
  endfacet
  facet normal 0 0 -1
    outer loop
      vertex -30.1479 106.483 0
      vertex -28.8492 112.341 0
      vertex -24.0902 104.824 0
    endloop
  endfacet
  facet normal 0 0 -1
    outer loop
      vertex -30.1479 106.483 0
      vertex -31.6106 112.812 0
      vertex -28.8492 112.341 0
    endloop
  endfacet
  facet normal 0 0 -1
    outer loop
      vertex -32.8865 107.028 0
      vertex -31.6106 112.812 0
      vertex -30.1479 106.483 0
    endloop
  endfacet
  facet normal 0 0 -1
    outer loop
      vertex -34.5236 107.898 0
      vertex -31.6106 112.812 0
      vertex -32.8865 107.028 0
    endloop
  endfacet
  facet normal 0 -0 -1
    outer loop
      vertex -32.8865 107.028 0
      vertex -30.1479 106.483 0
      vertex -32.8997 106.953 0
    endloop
  endfacet
  facet normal -0.844326 -0.535829 0
    outer loop
      vertex -32.4271 -8.76336 0
      vertex -32.6289 -8.44526 4
      vertex -32.6289 -8.44526 0
    endloop
  endfacet
  facet normal -0.844326 -0.535829 0
    outer loop
      vertex -32.6289 -8.44526 4
      vertex -32.4271 -8.76336 0
      vertex -32.4271 -8.76336 4
    endloop
  endfacet
  facet normal 0 -1 0
    outer loop
      vertex -30.1884 -9.99408 0
      vertex -30 -9.99408 4
      vertex -30.1884 -9.99408 4
    endloop
  endfacet
  facet normal 0 -1 -0
    outer loop
      vertex -30 -9.99408 4
      vertex -30.1884 -9.99408 0
      vertex -30 -9.99408 0
    endloop
  endfacet
  facet normal -0.998026 -0.0627981 0
    outer loop
      vertex -32.9763 -7.376 0
      vertex -33 -7 4
      vertex -33 -7 0
    endloop
  endfacet
  facet normal -0.998026 -0.0627981 0
    outer loop
      vertex -33 -7 4
      vertex -32.9763 -7.376 0
      vertex -32.9763 -7.376 4
    endloop
  endfacet
  facet normal -0.904829 -0.425776 0
    outer loop
      vertex -32.6289 -8.44526 0
      vertex -32.7893 -8.10437 4
      vertex -32.7893 -8.10437 0
    endloop
  endfacet
  facet normal -0.904829 -0.425776 0
    outer loop
      vertex -32.7893 -8.10437 4
      vertex -32.6289 -8.44526 0
      vertex -32.6289 -8.44526 4
    endloop
  endfacet
  facet normal -0.684549 -0.728967 0
    outer loop
      vertex -32.1869 -9.05364 0
      vertex -31.9123 -9.31154 4
      vertex -32.1869 -9.05364 4
    endloop
  endfacet
  facet normal -0.684549 -0.728967 -0
    outer loop
      vertex -31.9123 -9.31154 4
      vertex -32.1869 -9.05364 0
      vertex -31.9123 -9.31154 0
    endloop
  endfacet
  facet normal -0.587783 -0.809019 0
    outer loop
      vertex -31.9123 -9.31154 0
      vertex -31.6075 -9.53298 4
      vertex -31.9123 -9.31154 4
    endloop
  endfacet
  facet normal -0.587783 -0.809019 -0
    outer loop
      vertex -31.6075 -9.53298 4
      vertex -31.9123 -9.31154 0
      vertex -31.6075 -9.53298 0
    endloop
  endfacet
  facet normal -0.368128 -0.929775 0
    outer loop
      vertex -31.2773 -9.71448 0
      vertex -30.9271 -9.85317 4
      vertex -31.2773 -9.71448 4
    endloop
  endfacet
  facet normal -0.368128 -0.929775 -0
    outer loop
      vertex -30.9271 -9.85317 4
      vertex -31.2773 -9.71448 0
      vertex -30.9271 -9.85317 0
    endloop
  endfacet
  facet normal -0.125333 -0.992115 0
    outer loop
      vertex -30.5621 -9.94686 0
      vertex -30.1884 -9.99408 4
      vertex -30.5621 -9.94686 4
    endloop
  endfacet
  facet normal -0.125333 -0.992115 -0
    outer loop
      vertex -30.1884 -9.99408 4
      vertex -30.5621 -9.94686 0
      vertex -30.1884 -9.99408 0
    endloop
  endfacet
  facet normal -0.248688 -0.968584 0
    outer loop
      vertex -30.9271 -9.85317 0
      vertex -30.5621 -9.94686 4
      vertex -30.9271 -9.85317 4
    endloop
  endfacet
  facet normal -0.248688 -0.968584 -0
    outer loop
      vertex -30.5621 -9.94686 4
      vertex -30.9271 -9.85317 0
      vertex -30.5621 -9.94686 0
    endloop
  endfacet
  facet normal -0.481754 -0.876307 0
    outer loop
      vertex -31.6075 -9.53298 0
      vertex -31.2773 -9.71448 4
      vertex -31.6075 -9.53298 4
    endloop
  endfacet
  facet normal -0.481754 -0.876307 -0
    outer loop
      vertex -31.2773 -9.71448 4
      vertex -31.6075 -9.53298 0
      vertex -31.2773 -9.71448 0
    endloop
  endfacet
  facet normal -0.951056 -0.309019 0
    outer loop
      vertex -32.7893 -8.10437 0
      vertex -32.9058 -7.74607 4
      vertex -32.9058 -7.74607 0
    endloop
  endfacet
  facet normal -0.951056 -0.309019 0
    outer loop
      vertex -32.9058 -7.74607 4
      vertex -32.7893 -8.10437 0
      vertex -32.7893 -8.10437 4
    endloop
  endfacet
  facet normal -0.982289 -0.187372 0
    outer loop
      vertex -32.9058 -7.74607 0
      vertex -32.9763 -7.376 4
      vertex -32.9763 -7.376 0
    endloop
  endfacet
  facet normal -0.982289 -0.187372 0
    outer loop
      vertex -32.9763 -7.376 4
      vertex -32.9058 -7.74607 0
      vertex -32.9058 -7.74607 4
    endloop
  endfacet
  facet normal -0.770511 -0.637427 0
    outer loop
      vertex -32.1869 -9.05364 0
      vertex -32.4271 -8.76336 4
      vertex -32.4271 -8.76336 0
    endloop
  endfacet
  facet normal -0.770511 -0.637427 0
    outer loop
      vertex -32.4271 -8.76336 4
      vertex -32.1869 -9.05364 0
      vertex -32.1869 -9.05364 4
    endloop
  endfacet
  facet normal -0.469471 0.882948 0
    outer loop
      vertex -32.8865 -19.0277 0
      vertex -34.5236 -19.8981 4
      vertex -32.8865 -19.0277 4
    endloop
  endfacet
  facet normal -0.469471 0.882948 0
    outer loop
      vertex -34.5236 -19.8981 4
      vertex -32.8865 -19.0277 0
      vertex -34.5236 -19.8981 0
    endloop
  endfacet
  facet normal -0.139173 -0.990268 0
    outer loop
      vertex -33.6807 -24.6785 0
      vertex -31.8446 -24.9365 4
      vertex -33.6807 -24.6785 4
    endloop
  endfacet
  facet normal -0.139173 -0.990268 -0
    outer loop
      vertex -31.8446 -24.9365 4
      vertex -33.6807 -24.6785 0
      vertex -31.8446 -24.9365 0
    endloop
  endfacet
  facet normal -0.694659 -0.71934 0
    outer loop
      vertex -35.0144 -23.3905 0
      vertex -33.6807 -24.6785 4
      vertex -35.0144 -23.3905 4
    endloop
  endfacet
  facet normal -0.694659 -0.71934 -0
    outer loop
      vertex -33.6807 -24.6785 4
      vertex -35.0144 -23.3905 0
      vertex -33.6807 -24.6785 0
    endloop
  endfacet
  facet normal -0.898794 0.438372 0
    outer loop
      vertex -35.3364 -21.5646 0
      vertex -34.5236 -19.8981 4
      vertex -34.5236 -19.8981 0
    endloop
  endfacet
  facet normal -0.898794 0.438372 0
    outer loop
      vertex -34.5236 -19.8981 4
      vertex -35.3364 -21.5646 0
      vertex -35.3364 -21.5646 4
    endloop
  endfacet
  facet normal -0.984808 -0.173648 0
    outer loop
      vertex -35.0144 -23.3905 0
      vertex -35.3364 -21.5646 4
      vertex -35.3364 -21.5646 0
    endloop
  endfacet
  facet normal -0.984808 -0.173648 0
    outer loop
      vertex -35.3364 -21.5646 4
      vertex -35.0144 -23.3905 0
      vertex -35.0144 -23.3905 4
    endloop
  endfacet
  facet normal -0.139173 0.990268 0
    outer loop
      vertex -31.8446 112.937 0
      vertex -33.6807 112.678 4
      vertex -31.8446 112.937 4
    endloop
  endfacet
  facet normal -0.139173 0.990268 0
    outer loop
      vertex -33.6807 112.678 4
      vertex -31.8446 112.937 0
      vertex -33.6807 112.678 0
    endloop
  endfacet
  facet normal -0.469468 -0.882949 0
    outer loop
      vertex -34.5236 107.898 0
      vertex -32.8865 107.028 4
      vertex -34.5236 107.898 4
    endloop
  endfacet
  facet normal -0.469468 -0.882949 -0
    outer loop
      vertex -32.8865 107.028 4
      vertex -34.5236 107.898 0
      vertex -32.8865 107.028 0
    endloop
  endfacet
  facet normal -0.984808 0.173648 0
    outer loop
      vertex -35.3364 109.565 0
      vertex -35.0144 111.391 4
      vertex -35.0144 111.391 0
    endloop
  endfacet
  facet normal -0.984808 0.173648 0
    outer loop
      vertex -35.0144 111.391 4
      vertex -35.3364 109.565 0
      vertex -35.3364 109.565 4
    endloop
  endfacet
  facet normal -0.694658 0.719341 0
    outer loop
      vertex -33.6807 112.678 0
      vertex -35.0144 111.391 4
      vertex -33.6807 112.678 4
    endloop
  endfacet
  facet normal -0.694658 0.719341 0
    outer loop
      vertex -35.0144 111.391 4
      vertex -33.6807 112.678 0
      vertex -35.0144 111.391 0
    endloop
  endfacet
  facet normal -0.898795 -0.43837 0
    outer loop
      vertex -34.5236 107.898 0
      vertex -35.3364 109.565 4
      vertex -35.3364 109.565 0
    endloop
  endfacet
  facet normal -0.898795 -0.43837 0
    outer loop
      vertex -35.3364 109.565 4
      vertex -34.5236 107.898 0
      vertex -34.5236 107.898 4
    endloop
  endfacet
  facet normal 0.469469 0.882949 -0
    outer loop
      vertex -31.6106 112.812 0
      vertex -31.8446 112.937 4
      vertex -31.6106 112.812 4
    endloop
  endfacet
  facet normal 0.469469 0.882949 0
    outer loop
      vertex -31.8446 112.937 4
      vertex -31.6106 112.812 0
      vertex -31.8446 112.937 0
    endloop
  endfacet
  facet normal 0.316269 -0.94867 0
    outer loop
      vertex -25.1462 -23.4131 0
      vertex -18.6293 -21.2406 4
      vertex -25.1462 -23.4131 4
    endloop
  endfacet
  facet normal 0.316269 -0.94867 0
    outer loop
      vertex -18.6293 -21.2406 4
      vertex -25.1462 -23.4131 0
      vertex -18.6293 -21.2406 0
    endloop
  endfacet
  facet normal 0.407734 -0.913101 0
    outer loop
      vertex -18.6293 -21.2406 0
      vertex -12.3568 -18.4396 4
      vertex -18.6293 -21.2406 4
    endloop
  endfacet
  facet normal 0.407734 -0.913101 0
    outer loop
      vertex -12.3568 -18.4396 4
      vertex -18.6293 -21.2406 0
      vertex -12.3568 -18.4396 0
    endloop
  endfacet
  facet normal 0.495269 -0.86874 0
    outer loop
      vertex -12.3568 -18.4396 0
      vertex -6.38904 -15.0374 4
      vertex -12.3568 -18.4396 4
    endloop
  endfacet
  facet normal 0.495269 -0.86874 0
    outer loop
      vertex -6.38904 -15.0374 4
      vertex -12.3568 -18.4396 0
      vertex -6.38904 -15.0374 0
    endloop
  endfacet
  facet normal 0.578035 -0.816012 0
    outer loop
      vertex -6.38904 -15.0374 0
      vertex -0.783473 -11.0666 4
      vertex -6.38904 -15.0374 4
    endloop
  endfacet
  facet normal 0.578035 -0.816012 0
    outer loop
      vertex -0.783473 -11.0666 4
      vertex -6.38904 -15.0374 0
      vertex -0.783473 -11.0666 0
    endloop
  endfacet
  facet normal 0.655235 -0.755425 0
    outer loop
      vertex -0.783473 -11.0666 0
      vertex 4.4059 -6.56547 4
      vertex -0.783473 -11.0666 4
    endloop
  endfacet
  facet normal 0.655235 -0.755425 0
    outer loop
      vertex 4.4059 -6.56547 4
      vertex -0.783473 -11.0666 0
      vertex 4.4059 -6.56547 0
    endloop
  endfacet
  facet normal 0.726126 -0.687562 0
    outer loop
      vertex 4.4059 -6.56547 4
      vertex 9.12909 -1.57737 0
      vertex 9.12909 -1.57737 4
    endloop
  endfacet
  facet normal 0.726126 -0.687562 0
    outer loop
      vertex 9.12909 -1.57737 0
      vertex 4.4059 -6.56547 4
      vertex 4.4059 -6.56547 0
    endloop
  endfacet
  facet normal 0.790021 -0.61308 0
    outer loop
      vertex 9.12909 -1.57737 4
      vertex 13.3406 3.84966 0
      vertex 13.3406 3.84966 4
    endloop
  endfacet
  facet normal 0.790021 -0.61308 0
    outer loop
      vertex 13.3406 3.84966 0
      vertex 9.12909 -1.57737 4
      vertex 9.12909 -1.57737 0
    endloop
  endfacet
  facet normal 0.84631 -0.532691 0
    outer loop
      vertex 13.3406 3.84966 4
      vertex 16.9999 9.66336 0
      vertex 16.9999 9.66336 4
    endloop
  endfacet
  facet normal 0.84631 -0.532691 0
    outer loop
      vertex 16.9999 9.66336 0
      vertex 13.3406 3.84966 4
      vertex 13.3406 3.84966 0
    endloop
  endfacet
  facet normal 0.894447 -0.447175 0
    outer loop
      vertex 16.9999 9.66336 4
      vertex 20.0718 15.8077 0
      vertex 20.0718 15.8077 4
    endloop
  endfacet
  facet normal 0.894447 -0.447175 0
    outer loop
      vertex 20.0718 15.8077 0
      vertex 16.9999 9.66336 4
      vertex 16.9999 9.66336 0
    endloop
  endfacet
  facet normal 0.933971 -0.357349 0
    outer loop
      vertex 20.0718 15.8077 4
      vertex 22.5266 22.2236 0
      vertex 22.5266 22.2236 4
    endloop
  endfacet
  facet normal 0.933971 -0.357349 0
    outer loop
      vertex 22.5266 22.2236 0
      vertex 20.0718 15.8077 4
      vertex 20.0718 15.8077 0
    endloop
  endfacet
  facet normal 0.9645 -0.264083 0
    outer loop
      vertex 22.5266 22.2236 4
      vertex 24.3407 28.8492 0
      vertex 24.3407 28.8492 4
    endloop
  endfacet
  facet normal 0.9645 -0.264083 0
    outer loop
      vertex 24.3407 28.8492 0
      vertex 22.5266 22.2236 4
      vertex 22.5266 22.2236 0
    endloop
  endfacet
  facet normal 0.98574 -0.168274 0
    outer loop
      vertex 24.3407 28.8492 4
      vertex 25.4967 35.6208 0
      vertex 25.4967 35.6208 4
    endloop
  endfacet
  facet normal 0.98574 -0.168274 0
    outer loop
      vertex 25.4967 35.6208 0
      vertex 24.3407 28.8492 4
      vertex 24.3407 28.8492 0
    endloop
  endfacet
  facet normal 0.997487 -0.0708466 0
    outer loop
      vertex 25.4967 35.6208 4
      vertex 25.9833 42.473 0
      vertex 25.9833 42.473 4
    endloop
  endfacet
  facet normal 0.997487 -0.0708466 0
    outer loop
      vertex 25.9833 42.473 0
      vertex 25.4967 35.6208 4
      vertex 25.4967 35.6208 0
    endloop
  endfacet
  facet normal 0.999628 0.0272691 0
    outer loop
      vertex 25.9833 42.473 4
      vertex 25.796 49.3399 0
      vertex 25.796 49.3399 4
    endloop
  endfacet
  facet normal 0.999628 0.0272691 0
    outer loop
      vertex 25.796 49.3399 0
      vertex 25.9833 42.473 4
      vertex 25.9833 42.473 0
    endloop
  endfacet
  facet normal 0.992142 0.125115 0
    outer loop
      vertex 25.796 49.3399 4
      vertex 24.9365 56.1554 0
      vertex 24.9365 56.1554 4
    endloop
  endfacet
  facet normal 0.992142 0.125115 0
    outer loop
      vertex 24.9365 56.1554 0
      vertex 25.796 49.3399 4
      vertex 25.796 49.3399 0
    endloop
  endfacet
  facet normal 0.975101 0.221763 0
    outer loop
      vertex 24.9365 56.1554 4
      vertex 23.4131 62.8538 0
      vertex 23.4131 62.8538 4
    endloop
  endfacet
  facet normal 0.975101 0.221763 0
    outer loop
      vertex 23.4131 62.8538 0
      vertex 24.9365 56.1554 4
      vertex 24.9365 56.1554 0
    endloop
  endfacet
  facet normal 0.94867 0.316269 0
    outer loop
      vertex 23.4131 62.8538 4
      vertex 21.2406 69.3707 0
      vertex 21.2406 69.3707 4
    endloop
  endfacet
  facet normal 0.94867 0.316269 0
    outer loop
      vertex 21.2406 69.3707 0
      vertex 23.4131 62.8538 4
      vertex 23.4131 62.8538 0
    endloop
  endfacet
  facet normal 0.913101 0.407735 0
    outer loop
      vertex 21.2406 69.3707 4
      vertex 18.4396 75.6432 0
      vertex 18.4396 75.6432 4
    endloop
  endfacet
  facet normal 0.913101 0.407735 0
    outer loop
      vertex 18.4396 75.6432 0
      vertex 21.2406 69.3707 4
      vertex 21.2406 69.3707 0
    endloop
  endfacet
  facet normal 0.86874 0.495269 0
    outer loop
      vertex 18.4396 75.6432 4
      vertex 15.0374 81.611 0
      vertex 15.0374 81.611 4
    endloop
  endfacet
  facet normal 0.86874 0.495269 0
    outer loop
      vertex 15.0374 81.611 0
      vertex 18.4396 75.6432 4
      vertex 18.4396 75.6432 0
    endloop
  endfacet
  facet normal 0.816012 0.578035 0
    outer loop
      vertex 15.0374 81.611 4
      vertex 11.0666 87.2165 0
      vertex 11.0666 87.2165 4
    endloop
  endfacet
  facet normal 0.816012 0.578035 0
    outer loop
      vertex 11.0666 87.2165 0
      vertex 15.0374 81.611 4
      vertex 15.0374 81.611 0
    endloop
  endfacet
  facet normal 0.755425 0.655235 0
    outer loop
      vertex 11.0666 87.2165 4
      vertex 6.56547 92.4059 0
      vertex 6.56547 92.4059 4
    endloop
  endfacet
  facet normal 0.755425 0.655235 0
    outer loop
      vertex 6.56547 92.4059 0
      vertex 11.0666 87.2165 4
      vertex 11.0666 87.2165 0
    endloop
  endfacet
  facet normal 0.687562 0.726126 -0
    outer loop
      vertex 6.56547 92.4059 0
      vertex 1.57737 97.1291 4
      vertex 6.56547 92.4059 4
    endloop
  endfacet
  facet normal 0.687562 0.726126 0
    outer loop
      vertex 1.57737 97.1291 4
      vertex 6.56547 92.4059 0
      vertex 1.57737 97.1291 0
    endloop
  endfacet
  facet normal 0.61308 0.790021 -0
    outer loop
      vertex 1.57737 97.1291 0
      vertex -3.84966 101.341 4
      vertex 1.57737 97.1291 4
    endloop
  endfacet
  facet normal 0.61308 0.790021 0
    outer loop
      vertex -3.84966 101.341 4
      vertex 1.57737 97.1291 0
      vertex -3.84966 101.341 0
    endloop
  endfacet
  facet normal 0.53269 0.84631 -0
    outer loop
      vertex -3.84966 101.341 0
      vertex -9.66336 105 4
      vertex -3.84966 101.341 4
    endloop
  endfacet
  facet normal 0.53269 0.84631 0
    outer loop
      vertex -9.66336 105 4
      vertex -3.84966 101.341 0
      vertex -9.66336 105 0
    endloop
  endfacet
  facet normal 0.447175 0.894447 -0
    outer loop
      vertex -9.66336 105 0
      vertex -15.8077 108.072 4
      vertex -9.66336 105 4
    endloop
  endfacet
  facet normal 0.447175 0.894447 0
    outer loop
      vertex -15.8077 108.072 4
      vertex -9.66336 105 0
      vertex -15.8077 108.072 0
    endloop
  endfacet
  facet normal 0.357349 0.933971 -0
    outer loop
      vertex -15.8077 108.072 0
      vertex -22.2236 110.527 4
      vertex -15.8077 108.072 4
    endloop
  endfacet
  facet normal 0.357349 0.933971 0
    outer loop
      vertex -22.2236 110.527 4
      vertex -15.8077 108.072 0
      vertex -22.2236 110.527 0
    endloop
  endfacet
  facet normal 0.264083 0.9645 -0
    outer loop
      vertex -22.2236 110.527 0
      vertex -28.8492 112.341 4
      vertex -22.2236 110.527 4
    endloop
  endfacet
  facet normal 0.264083 0.9645 0
    outer loop
      vertex -28.8492 112.341 4
      vertex -22.2236 110.527 0
      vertex -28.8492 112.341 0
    endloop
  endfacet
  facet normal 0.168272 0.985741 -0
    outer loop
      vertex -28.8492 112.341 0
      vertex -31.6106 112.812 4
      vertex -28.8492 112.341 4
    endloop
  endfacet
  facet normal 0.168272 0.985741 0
    outer loop
      vertex -31.6106 112.812 4
      vertex -28.8492 112.341 0
      vertex -31.6106 112.812 0
    endloop
  endfacet
  facet normal -0.984804 0.173668 0
    outer loop
      vertex -32.8997 106.953 0
      vertex -32.8865 107.028 4
      vertex -32.8865 107.028 0
    endloop
  endfacet
  facet normal -0.984804 0.173668 0
    outer loop
      vertex -32.8865 107.028 4
      vertex -32.8997 106.953 0
      vertex -32.8997 106.953 4
    endloop
  endfacet
  facet normal -0.168275 -0.98574 0
    outer loop
      vertex -32.8997 106.953 0
      vertex -30.1479 106.483 4
      vertex -32.8997 106.953 4
    endloop
  endfacet
  facet normal -0.168275 -0.98574 -0
    outer loop
      vertex -30.1479 106.483 4
      vertex -32.8997 106.953 0
      vertex -30.1479 106.483 0
    endloop
  endfacet
  facet normal -0.264084 -0.9645 0
    outer loop
      vertex -30.1479 106.483 0
      vertex -24.0902 104.824 4
      vertex -30.1479 106.483 4
    endloop
  endfacet
  facet normal -0.264084 -0.9645 -0
    outer loop
      vertex -24.0902 104.824 4
      vertex -30.1479 106.483 0
      vertex -24.0902 104.824 0
    endloop
  endfacet
  facet normal -0.357349 -0.933971 0
    outer loop
      vertex -24.0902 104.824 0
      vertex -18.2242 102.58 4
      vertex -24.0902 104.824 4
    endloop
  endfacet
  facet normal -0.357349 -0.933971 -0
    outer loop
      vertex -18.2242 102.58 4
      vertex -24.0902 104.824 0
      vertex -18.2242 102.58 0
    endloop
  endfacet
  facet normal -0.447174 -0.894447 0
    outer loop
      vertex -18.2242 102.58 0
      vertex -12.6065 99.7714 4
      vertex -18.2242 102.58 4
    endloop
  endfacet
  facet normal -0.447174 -0.894447 -0
    outer loop
      vertex -12.6065 99.7714 4
      vertex -18.2242 102.58 0
      vertex -12.6065 99.7714 0
    endloop
  endfacet
  facet normal -0.532692 -0.846309 0
    outer loop
      vertex -12.6065 99.7714 0
      vertex -7.29112 96.4257 4
      vertex -12.6065 99.7714 4
    endloop
  endfacet
  facet normal -0.532692 -0.846309 -0
    outer loop
      vertex -7.29112 96.4257 4
      vertex -12.6065 99.7714 0
      vertex -7.29112 96.4257 0
    endloop
  endfacet
  facet normal -0.613079 -0.790022 0
    outer loop
      vertex -7.29112 96.4257 0
      vertex -2.32926 92.5752 4
      vertex -7.29112 96.4257 4
    endloop
  endfacet
  facet normal -0.613079 -0.790022 -0
    outer loop
      vertex -2.32926 92.5752 4
      vertex -7.29112 96.4257 0
      vertex -2.32926 92.5752 0
    endloop
  endfacet
  facet normal -0.687562 -0.726125 0
    outer loop
      vertex -2.32926 92.5752 0
      vertex 2.23129 88.2568 4
      vertex -2.32926 92.5752 4
    endloop
  endfacet
  facet normal -0.687562 -0.726125 -0
    outer loop
      vertex 2.23129 88.2568 4
      vertex -2.32926 92.5752 0
      vertex 2.23129 88.2568 0
    endloop
  endfacet
  facet normal -0.755425 -0.655235 0
    outer loop
      vertex 6.34659 83.5123 0
      vertex 2.23129 88.2568 4
      vertex 2.23129 88.2568 0
    endloop
  endfacet
  facet normal -0.755425 -0.655235 0
    outer loop
      vertex 2.23129 88.2568 4
      vertex 6.34659 83.5123 0
      vertex 6.34659 83.5123 4
    endloop
  endfacet
  facet normal -0.816011 -0.578036 0
    outer loop
      vertex 9.97705 78.3872 0
      vertex 6.34659 83.5123 4
      vertex 6.34659 83.5123 0
    endloop
  endfacet
  facet normal -0.816011 -0.578036 0
    outer loop
      vertex 6.34659 83.5123 4
      vertex 9.97705 78.3872 0
      vertex 9.97705 78.3872 4
    endloop
  endfacet
  facet normal -0.868739 -0.495269 0
    outer loop
      vertex 13.0877 72.9309 0
      vertex 9.97705 78.3872 4
      vertex 9.97705 78.3872 0
    endloop
  endfacet
  facet normal -0.868739 -0.495269 0
    outer loop
      vertex 9.97705 78.3872 4
      vertex 13.0877 72.9309 0
      vertex 13.0877 72.9309 4
    endloop
  endfacet
  facet normal -0.913101 -0.407733 0
    outer loop
      vertex 15.6485 67.196 0
      vertex 13.0877 72.9309 4
      vertex 13.0877 72.9309 0
    endloop
  endfacet
  facet normal -0.913101 -0.407733 0
    outer loop
      vertex 13.0877 72.9309 4
      vertex 15.6485 67.196 0
      vertex 15.6485 67.196 4
    endloop
  endfacet
  facet normal -0.948669 -0.31627 0
    outer loop
      vertex 17.6349 61.2378 0
      vertex 15.6485 67.196 4
      vertex 15.6485 67.196 0
    endloop
  endfacet
  facet normal -0.948669 -0.31627 0
    outer loop
      vertex 15.6485 67.196 4
      vertex 17.6349 61.2378 0
      vertex 17.6349 61.2378 4
    endloop
  endfacet
  facet normal -0.975101 -0.221762 0
    outer loop
      vertex 19.0277 55.1135 0
      vertex 17.6349 61.2378 4
      vertex 17.6349 61.2378 0
    endloop
  endfacet
  facet normal -0.975101 -0.221762 0
    outer loop
      vertex 17.6349 61.2378 4
      vertex 19.0277 55.1135 0
      vertex 19.0277 55.1135 4
    endloop
  endfacet
  facet normal -0.992142 -0.125116 0
    outer loop
      vertex 19.8135 48.8822 0
      vertex 19.0277 55.1135 4
      vertex 19.0277 55.1135 0
    endloop
  endfacet
  facet normal -0.992142 -0.125116 0
    outer loop
      vertex 19.0277 55.1135 4
      vertex 19.8135 48.8822 0
      vertex 19.8135 48.8822 4
    endloop
  endfacet
  facet normal -0.999628 -0.0272667 0
    outer loop
      vertex 19.9848 42.6038 0
      vertex 19.8135 48.8822 4
      vertex 19.8135 48.8822 0
    endloop
  endfacet
  facet normal -0.999628 -0.0272667 0
    outer loop
      vertex 19.8135 48.8822 4
      vertex 19.9848 42.6038 0
      vertex 19.9848 42.6038 4
    endloop
  endfacet
  facet normal -0.997487 0.0708448 0
    outer loop
      vertex 19.5398 36.339 0
      vertex 19.9848 42.6038 4
      vertex 19.9848 42.6038 0
    endloop
  endfacet
  facet normal -0.997487 0.0708448 0
    outer loop
      vertex 19.9848 42.6038 4
      vertex 19.5398 36.339 0
      vertex 19.5398 36.339 4
    endloop
  endfacet
  facet normal -0.98574 0.168275 0
    outer loop
      vertex 18.4829 30.1479 0
      vertex 19.5398 36.339 4
      vertex 19.5398 36.339 0
    endloop
  endfacet
  facet normal -0.98574 0.168275 0
    outer loop
      vertex 19.5398 36.339 4
      vertex 18.4829 30.1479 0
      vertex 18.4829 30.1479 4
    endloop
  endfacet
  facet normal -0.9645 0.264083 0
    outer loop
      vertex 16.8243 24.0902 0
      vertex 18.4829 30.1479 4
      vertex 18.4829 30.1479 0
    endloop
  endfacet
  facet normal -0.9645 0.264083 0
    outer loop
      vertex 18.4829 30.1479 4
      vertex 16.8243 24.0902 0
      vertex 16.8243 24.0902 4
    endloop
  endfacet
  facet normal -0.933971 0.357349 0
    outer loop
      vertex 14.5799 18.2242 0
      vertex 16.8243 24.0902 4
      vertex 16.8243 24.0902 0
    endloop
  endfacet
  facet normal -0.933971 0.357349 0
    outer loop
      vertex 16.8243 24.0902 4
      vertex 14.5799 18.2242 0
      vertex 14.5799 18.2242 4
    endloop
  endfacet
  facet normal -0.894447 0.447174 0
    outer loop
      vertex 11.7714 12.6065 0
      vertex 14.5799 18.2242 4
      vertex 14.5799 18.2242 0
    endloop
  endfacet
  facet normal -0.894447 0.447174 0
    outer loop
      vertex 14.5799 18.2242 4
      vertex 11.7714 12.6065 0
      vertex 11.7714 12.6065 4
    endloop
  endfacet
  facet normal -0.846309 0.532692 0
    outer loop
      vertex 8.42572 7.29112 0
      vertex 11.7714 12.6065 4
      vertex 11.7714 12.6065 0
    endloop
  endfacet
  facet normal -0.846309 0.532692 0
    outer loop
      vertex 11.7714 12.6065 4
      vertex 8.42572 7.29112 0
      vertex 8.42572 7.29112 4
    endloop
  endfacet
  facet normal -0.790022 0.613079 0
    outer loop
      vertex 5.22937 3.17226 0
      vertex 8.42572 7.29112 4
      vertex 8.42572 7.29112 0
    endloop
  endfacet
  facet normal -0.790022 0.613079 0
    outer loop
      vertex 8.42572 7.29112 4
      vertex 5.22937 3.17226 0
      vertex 5.22937 3.17226 4
    endloop
  endfacet
  facet normal -0.495269 0.86874 0
    outer loop
      vertex -9.6531 -10 0
      vertex -15.0691 -13.0877 4
      vertex -9.6531 -10 4
    endloop
  endfacet
  facet normal -0.495269 0.86874 0
    outer loop
      vertex -15.0691 -13.0877 4
      vertex -9.6531 -10 0
      vertex -15.0691 -13.0877 0
    endloop
  endfacet
  facet normal -0.407733 0.913101 0
    outer loop
      vertex -15.0691 -13.0877 0
      vertex -20.804 -15.6485 4
      vertex -15.0691 -13.0877 4
    endloop
  endfacet
  facet normal -0.407733 0.913101 0
    outer loop
      vertex -20.804 -15.6485 4
      vertex -15.0691 -13.0877 0
      vertex -20.804 -15.6485 0
    endloop
  endfacet
  facet normal -0.31627 0.948669 0
    outer loop
      vertex -20.804 -15.6485 0
      vertex -26.7622 -17.6349 4
      vertex -20.804 -15.6485 4
    endloop
  endfacet
  facet normal -0.31627 0.948669 0
    outer loop
      vertex -26.7622 -17.6349 4
      vertex -20.804 -15.6485 0
      vertex -26.7622 -17.6349 0
    endloop
  endfacet
  facet normal -0.221762 0.975101 0
    outer loop
      vertex -26.7622 -17.6349 0
      vertex -32.8865 -19.0277 4
      vertex -26.7622 -17.6349 4
    endloop
  endfacet
  facet normal -0.221762 0.975101 0
    outer loop
      vertex -32.8865 -19.0277 4
      vertex -26.7622 -17.6349 0
      vertex -32.8865 -19.0277 0
    endloop
  endfacet
  facet normal 0.221763 -0.975101 0
    outer loop
      vertex -31.8446 -24.9365 0
      vertex -25.1462 -23.4131 4
      vertex -31.8446 -24.9365 4
    endloop
  endfacet
  facet normal 0.221763 -0.975101 0
    outer loop
      vertex -25.1462 -23.4131 4
      vertex -31.8446 -24.9365 0
      vertex -25.1462 -23.4131 0
    endloop
  endfacet
  facet normal -1 0 0
    outer loop
      vertex -30 -10 0
      vertex -30 -9.99408 4
      vertex -30 -9.99408 0
    endloop
  endfacet
  facet normal -1 -0 0
    outer loop
      vertex -30 -9.99408 4
      vertex -30 -10 0
      vertex -30 -10 4
    endloop
  endfacet
  facet normal -1 0 0
    outer loop
      vertex -30 9.99408 0
      vertex -30 10 4
      vertex -30 10 0
    endloop
  endfacet
  facet normal -1 -0 0
    outer loop
      vertex -30 10 4
      vertex -30 9.99408 0
      vertex -30 9.99408 4
    endloop
  endfacet
  facet normal 0 -1 0
    outer loop
      vertex -30 -10 0
      vertex -9.6531 -10 4
      vertex -30 -10 4
    endloop
  endfacet
  facet normal 0 -1 -0
    outer loop
      vertex -9.6531 -10 4
      vertex -30 -10 0
      vertex -9.6531 -10 0
    endloop
  endfacet
  facet normal 0 1 -0
    outer loop
      vertex -2 10 0
      vertex -30 10 4
      vertex -2 10 4
    endloop
  endfacet
  facet normal 0 1 0
    outer loop
      vertex -30 10 4
      vertex -2 10 0
      vertex -30 10 0
    endloop
  endfacet
  facet normal 0.686624 0.727013 -0
    outer loop
      vertex 5.22937 3.17226 0
      vertex -2 10 4
      vertex 5.22937 3.17226 4
    endloop
  endfacet
  facet normal 0.686624 0.727013 0
    outer loop
      vertex -2 10 4
      vertex 5.22937 3.17226 0
      vertex -2 10 0
    endloop
  endfacet
  facet normal -1 0 0
    outer loop
      vertex -33 -7 0
      vertex -33 7 4
      vertex -33 7 0
    endloop
  endfacet
  facet normal -1 -0 0
    outer loop
      vertex -33 7 4
      vertex -33 -7 0
      vertex -33 -7 4
    endloop
  endfacet
  facet normal 0.987688 -0.156435 0
    outer loop
      vertex -4 0 4
      vertex -3.95106 0.309016 0
      vertex -3.95106 0.309016 4
    endloop
  endfacet
  facet normal 0.987688 -0.156435 0
    outer loop
      vertex -3.95106 0.309016 0
      vertex -4 0 4
      vertex -4 0 0
    endloop
  endfacet
  facet normal -0.453992 -0.891006 0
    outer loop
      vertex -2.69098 0.951056 0
      vertex -2.41221 0.809016 4
      vertex -2.69098 0.951056 4
    endloop
  endfacet
  facet normal -0.453992 -0.891006 -0
    outer loop
      vertex -2.41221 0.809016 4
      vertex -2.69098 0.951056 0
      vertex -2.41221 0.809016 0
    endloop
  endfacet
  facet normal -0.987689 0.156432 0
    outer loop
      vertex -2.04894 -0.309016 0
      vertex -2 0 4
      vertex -2 0 0
    endloop
  endfacet
  facet normal -0.987689 0.156432 0
    outer loop
      vertex -2 0 4
      vertex -2.04894 -0.309016 0
      vertex -2.04894 -0.309016 4
    endloop
  endfacet
  facet normal 0.156435 0.987688 -0
    outer loop
      vertex -3 -1 0
      vertex -3.30902 -0.951056 4
      vertex -3 -1 4
    endloop
  endfacet
  facet normal 0.156435 0.987688 0
    outer loop
      vertex -3.30902 -0.951056 4
      vertex -3 -1 0
      vertex -3.30902 -0.951056 0
    endloop
  endfacet
  facet normal -0.707107 -0.707107 0
    outer loop
      vertex -2.19098 0.587785 0
      vertex -2.41221 0.809016 4
      vertex -2.41221 0.809016 0
    endloop
  endfacet
  facet normal -0.707107 -0.707107 0
    outer loop
      vertex -2.41221 0.809016 4
      vertex -2.19098 0.587785 0
      vertex -2.19098 0.587785 4
    endloop
  endfacet
  facet normal -0.891006 -0.453992 0
    outer loop
      vertex -2.04894 0.309016 0
      vertex -2.19098 0.587785 4
      vertex -2.19098 0.587785 0
    endloop
  endfacet
  facet normal -0.891006 -0.453992 0
    outer loop
      vertex -2.19098 0.587785 4
      vertex -2.04894 0.309016 0
      vertex -2.04894 0.309016 4
    endloop
  endfacet
  facet normal -0.156434 -0.987688 0
    outer loop
      vertex -3 1 0
      vertex -2.69098 0.951056 4
      vertex -3 1 4
    endloop
  endfacet
  facet normal -0.156434 -0.987688 -0
    outer loop
      vertex -2.69098 0.951056 4
      vertex -3 1 0
      vertex -2.69098 0.951056 0
    endloop
  endfacet
  facet normal 0.156435 -0.987688 0
    outer loop
      vertex -3.30902 0.951056 0
      vertex -3 1 4
      vertex -3.30902 0.951056 4
    endloop
  endfacet
  facet normal 0.156435 -0.987688 0
    outer loop
      vertex -3 1 4
      vertex -3.30902 0.951056 0
      vertex -3 1 0
    endloop
  endfacet
  facet normal 0.891006 -0.453992 0
    outer loop
      vertex -3.95106 0.309016 4
      vertex -3.80902 0.587785 0
      vertex -3.80902 0.587785 4
    endloop
  endfacet
  facet normal 0.891006 -0.453992 0
    outer loop
      vertex -3.80902 0.587785 0
      vertex -3.95106 0.309016 4
      vertex -3.95106 0.309016 0
    endloop
  endfacet
  facet normal 0.453992 -0.891006 0
    outer loop
      vertex -3.58778 0.809016 0
      vertex -3.30902 0.951056 4
      vertex -3.58778 0.809016 4
    endloop
  endfacet
  facet normal 0.453992 -0.891006 0
    outer loop
      vertex -3.30902 0.951056 4
      vertex -3.58778 0.809016 0
      vertex -3.30902 0.951056 0
    endloop
  endfacet
  facet normal -0.707107 0.707107 0
    outer loop
      vertex -2.41221 -0.809016 0
      vertex -2.19098 -0.587785 4
      vertex -2.19098 -0.587785 0
    endloop
  endfacet
  facet normal -0.707107 0.707107 0
    outer loop
      vertex -2.19098 -0.587785 4
      vertex -2.41221 -0.809016 0
      vertex -2.41221 -0.809016 4
    endloop
  endfacet
  facet normal -0.156434 0.987688 0
    outer loop
      vertex -2.69098 -0.951056 0
      vertex -3 -1 4
      vertex -2.69098 -0.951056 4
    endloop
  endfacet
  facet normal -0.156434 0.987688 0
    outer loop
      vertex -3 -1 4
      vertex -2.69098 -0.951056 0
      vertex -3 -1 0
    endloop
  endfacet
  facet normal -0.891006 0.453992 0
    outer loop
      vertex -2.19098 -0.587785 0
      vertex -2.04894 -0.309016 4
      vertex -2.04894 -0.309016 0
    endloop
  endfacet
  facet normal -0.891006 0.453992 0
    outer loop
      vertex -2.04894 -0.309016 4
      vertex -2.19098 -0.587785 0
      vertex -2.19098 -0.587785 4
    endloop
  endfacet
  facet normal 0.987688 0.156435 0
    outer loop
      vertex -3.95106 -0.309016 4
      vertex -4 0 0
      vertex -4 0 4
    endloop
  endfacet
  facet normal 0.987688 0.156435 0
    outer loop
      vertex -4 0 0
      vertex -3.95106 -0.309016 4
      vertex -3.95106 -0.309016 0
    endloop
  endfacet
  facet normal 0.707107 -0.707107 0
    outer loop
      vertex -3.80902 0.587785 4
      vertex -3.58778 0.809016 0
      vertex -3.58778 0.809016 4
    endloop
  endfacet
  facet normal 0.707107 -0.707107 0
    outer loop
      vertex -3.58778 0.809016 0
      vertex -3.80902 0.587785 4
      vertex -3.80902 0.587785 0
    endloop
  endfacet
  facet normal -0.987689 -0.156432 0
    outer loop
      vertex -2 0 0
      vertex -2.04894 0.309016 4
      vertex -2.04894 0.309016 0
    endloop
  endfacet
  facet normal -0.987689 -0.156432 0
    outer loop
      vertex -2.04894 0.309016 4
      vertex -2 0 0
      vertex -2 0 4
    endloop
  endfacet
  facet normal -0.453992 0.891006 0
    outer loop
      vertex -2.41221 -0.809016 0
      vertex -2.69098 -0.951056 4
      vertex -2.41221 -0.809016 4
    endloop
  endfacet
  facet normal -0.453992 0.891006 0
    outer loop
      vertex -2.69098 -0.951056 4
      vertex -2.41221 -0.809016 0
      vertex -2.69098 -0.951056 0
    endloop
  endfacet
  facet normal 0.707107 0.707107 0
    outer loop
      vertex -3.58778 -0.809016 4
      vertex -3.80902 -0.587785 0
      vertex -3.80902 -0.587785 4
    endloop
  endfacet
  facet normal 0.707107 0.707107 0
    outer loop
      vertex -3.80902 -0.587785 0
      vertex -3.58778 -0.809016 4
      vertex -3.58778 -0.809016 0
    endloop
  endfacet
  facet normal 0.891006 0.453992 0
    outer loop
      vertex -3.80902 -0.587785 4
      vertex -3.95106 -0.309016 0
      vertex -3.95106 -0.309016 4
    endloop
  endfacet
  facet normal 0.891006 0.453992 0
    outer loop
      vertex -3.95106 -0.309016 0
      vertex -3.80902 -0.587785 4
      vertex -3.80902 -0.587785 0
    endloop
  endfacet
  facet normal 0.453992 0.891006 -0
    outer loop
      vertex -3.30902 -0.951056 0
      vertex -3.58778 -0.809016 4
      vertex -3.30902 -0.951056 4
    endloop
  endfacet
  facet normal 0.453992 0.891006 0
    outer loop
      vertex -3.58778 -0.809016 4
      vertex -3.30902 -0.951056 0
      vertex -3.58778 -0.809016 0
    endloop
  endfacet
  facet normal 0.987689 -0.156432 0
    outer loop
      vertex -32 0 4
      vertex -31.9511 0.309016 0
      vertex -31.9511 0.309016 4
    endloop
  endfacet
  facet normal 0.987689 -0.156432 0
    outer loop
      vertex -31.9511 0.309016 0
      vertex -32 0 4
      vertex -32 0 0
    endloop
  endfacet
  facet normal -0.453992 -0.891006 0
    outer loop
      vertex -30.691 0.951056 0
      vertex -30.4122 0.809016 4
      vertex -30.691 0.951056 4
    endloop
  endfacet
  facet normal -0.453992 -0.891006 -0
    outer loop
      vertex -30.4122 0.809016 4
      vertex -30.691 0.951056 0
      vertex -30.4122 0.809016 0
    endloop
  endfacet
  facet normal -0.987689 0.156432 0
    outer loop
      vertex -30.0489 -0.309016 0
      vertex -30 0 4
      vertex -30 0 0
    endloop
  endfacet
  facet normal -0.987689 0.156432 0
    outer loop
      vertex -30 0 4
      vertex -30.0489 -0.309016 0
      vertex -30.0489 -0.309016 4
    endloop
  endfacet
  facet normal 0.156434 0.987688 -0
    outer loop
      vertex -31 -1 0
      vertex -31.309 -0.951056 4
      vertex -31 -1 4
    endloop
  endfacet
  facet normal 0.156434 0.987688 0
    outer loop
      vertex -31.309 -0.951056 4
      vertex -31 -1 0
      vertex -31.309 -0.951056 0
    endloop
  endfacet
  facet normal -0.707107 -0.707107 0
    outer loop
      vertex -30.191 0.587785 0
      vertex -30.4122 0.809016 4
      vertex -30.4122 0.809016 0
    endloop
  endfacet
  facet normal -0.707107 -0.707107 0
    outer loop
      vertex -30.4122 0.809016 4
      vertex -30.191 0.587785 0
      vertex -30.191 0.587785 4
    endloop
  endfacet
  facet normal -0.891006 -0.453992 0
    outer loop
      vertex -30.0489 0.309016 0
      vertex -30.191 0.587785 4
      vertex -30.191 0.587785 0
    endloop
  endfacet
  facet normal -0.891006 -0.453992 0
    outer loop
      vertex -30.191 0.587785 4
      vertex -30.0489 0.309016 0
      vertex -30.0489 0.309016 4
    endloop
  endfacet
  facet normal -0.156434 -0.987688 0
    outer loop
      vertex -31 1 0
      vertex -30.691 0.951056 4
      vertex -31 1 4
    endloop
  endfacet
  facet normal -0.156434 -0.987688 -0
    outer loop
      vertex -30.691 0.951056 4
      vertex -31 1 0
      vertex -30.691 0.951056 0
    endloop
  endfacet
  facet normal 0.156434 -0.987688 0
    outer loop
      vertex -31.309 0.951056 0
      vertex -31 1 4
      vertex -31.309 0.951056 4
    endloop
  endfacet
  facet normal 0.156434 -0.987688 0
    outer loop
      vertex -31 1 4
      vertex -31.309 0.951056 0
      vertex -31 1 0
    endloop
  endfacet
  facet normal 0.891006 -0.453992 0
    outer loop
      vertex -31.9511 0.309016 4
      vertex -31.809 0.587785 0
      vertex -31.809 0.587785 4
    endloop
  endfacet
  facet normal 0.891006 -0.453992 0
    outer loop
      vertex -31.809 0.587785 0
      vertex -31.9511 0.309016 4
      vertex -31.9511 0.309016 0
    endloop
  endfacet
  facet normal 0.453994 -0.891005 0
    outer loop
      vertex -31.5878 0.809016 0
      vertex -31.309 0.951056 4
      vertex -31.5878 0.809016 4
    endloop
  endfacet
  facet normal 0.453994 -0.891005 0
    outer loop
      vertex -31.309 0.951056 4
      vertex -31.5878 0.809016 0
      vertex -31.309 0.951056 0
    endloop
  endfacet
  facet normal -0.707107 0.707107 0
    outer loop
      vertex -30.4122 -0.809016 0
      vertex -30.191 -0.587785 4
      vertex -30.191 -0.587785 0
    endloop
  endfacet
  facet normal -0.707107 0.707107 0
    outer loop
      vertex -30.191 -0.587785 4
      vertex -30.4122 -0.809016 0
      vertex -30.4122 -0.809016 4
    endloop
  endfacet
  facet normal -0.156434 0.987688 0
    outer loop
      vertex -30.691 -0.951056 0
      vertex -31 -1 4
      vertex -30.691 -0.951056 4
    endloop
  endfacet
  facet normal -0.156434 0.987688 0
    outer loop
      vertex -31 -1 4
      vertex -30.691 -0.951056 0
      vertex -31 -1 0
    endloop
  endfacet
  facet normal -0.891006 0.453992 0
    outer loop
      vertex -30.191 -0.587785 0
      vertex -30.0489 -0.309016 4
      vertex -30.0489 -0.309016 0
    endloop
  endfacet
  facet normal -0.891006 0.453992 0
    outer loop
      vertex -30.0489 -0.309016 4
      vertex -30.191 -0.587785 0
      vertex -30.191 -0.587785 4
    endloop
  endfacet
  facet normal 0.987689 0.156432 0
    outer loop
      vertex -31.9511 -0.309016 4
      vertex -32 0 0
      vertex -32 0 4
    endloop
  endfacet
  facet normal 0.987689 0.156432 0
    outer loop
      vertex -32 0 0
      vertex -31.9511 -0.309016 4
      vertex -31.9511 -0.309016 0
    endloop
  endfacet
  facet normal 0.707104 -0.70711 0
    outer loop
      vertex -31.809 0.587785 0
      vertex -31.5878 0.809016 4
      vertex -31.809 0.587785 4
    endloop
  endfacet
  facet normal 0.707104 -0.70711 0
    outer loop
      vertex -31.5878 0.809016 4
      vertex -31.809 0.587785 0
      vertex -31.5878 0.809016 0
    endloop
  endfacet
  facet normal -0.987689 -0.156432 0
    outer loop
      vertex -30 0 0
      vertex -30.0489 0.309016 4
      vertex -30.0489 0.309016 0
    endloop
  endfacet
  facet normal -0.987689 -0.156432 0
    outer loop
      vertex -30.0489 0.309016 4
      vertex -30 0 0
      vertex -30 0 4
    endloop
  endfacet
  facet normal -0.453992 0.891006 0
    outer loop
      vertex -30.4122 -0.809016 0
      vertex -30.691 -0.951056 4
      vertex -30.4122 -0.809016 4
    endloop
  endfacet
  facet normal -0.453992 0.891006 0
    outer loop
      vertex -30.691 -0.951056 4
      vertex -30.4122 -0.809016 0
      vertex -30.691 -0.951056 0
    endloop
  endfacet
  facet normal 0.707104 0.70711 -0
    outer loop
      vertex -31.5878 -0.809016 0
      vertex -31.809 -0.587785 4
      vertex -31.5878 -0.809016 4
    endloop
  endfacet
  facet normal 0.707104 0.70711 0
    outer loop
      vertex -31.809 -0.587785 4
      vertex -31.5878 -0.809016 0
      vertex -31.809 -0.587785 0
    endloop
  endfacet
  facet normal 0.891006 0.453992 0
    outer loop
      vertex -31.809 -0.587785 4
      vertex -31.9511 -0.309016 0
      vertex -31.9511 -0.309016 4
    endloop
  endfacet
  facet normal 0.891006 0.453992 0
    outer loop
      vertex -31.9511 -0.309016 0
      vertex -31.809 -0.587785 4
      vertex -31.809 -0.587785 0
    endloop
  endfacet
  facet normal 0.453994 0.891005 -0
    outer loop
      vertex -31.309 -0.951056 0
      vertex -31.5878 -0.809016 4
      vertex -31.309 -0.951056 4
    endloop
  endfacet
  facet normal 0.453994 0.891005 0
    outer loop
      vertex -31.5878 -0.809016 4
      vertex -31.309 -0.951056 0
      vertex -31.5878 -0.809016 0
    endloop
  endfacet
  facet normal 1 -0 0
    outer loop
      vertex -28.5 -6.25 4
      vertex -28.5 6.25 0
      vertex -28.5 6.25 4
    endloop
  endfacet
  facet normal 1 0 0
    outer loop
      vertex -28.5 6.25 0
      vertex -28.5 -6.25 4
      vertex -28.5 -6.25 0
    endloop
  endfacet
  facet normal -1 0 0
    outer loop
      vertex -5.5 -6.25 0
      vertex -5.5 6.25 4
      vertex -5.5 6.25 0
    endloop
  endfacet
  facet normal -1 -0 0
    outer loop
      vertex -5.5 6.25 4
      vertex -5.5 -6.25 0
      vertex -5.5 -6.25 4
    endloop
  endfacet
  facet normal 0 -1 0
    outer loop
      vertex -28.5 6.25 0
      vertex -5.5 6.25 4
      vertex -28.5 6.25 4
    endloop
  endfacet
  facet normal 0 -1 -0
    outer loop
      vertex -5.5 6.25 4
      vertex -28.5 6.25 0
      vertex -5.5 6.25 0
    endloop
  endfacet
  facet normal 0 1 -0
    outer loop
      vertex -5.5 -6.25 0
      vertex -28.5 -6.25 4
      vertex -5.5 -6.25 4
    endloop
  endfacet
  facet normal 0 1 0
    outer loop
      vertex -28.5 -6.25 4
      vertex -5.5 -6.25 0
      vertex -28.5 -6.25 0
    endloop
  endfacet
endsolid OpenSCAD_Model
